M48
FMAT,2
METRIC,TZ
T4C0.350
T5C0.500
T6C0.600
T3C0.900
T2C1.000
T1C1.400
%
G90
G05
M71
T4
X8.625Y39.000
X39.125Y7.000
X1.000Y26.200
X62.000Y64.600
X54.375Y71.000
X46.750Y1.000
X54.375Y13.400
X25.759Y16.165
X23.875Y13.400
X27.700Y45.450
X1.000Y51.800
X8.000Y48.200
X1.000Y32.600
X39.125Y32.600
X16.250Y32.600
X8.625Y13.400
X62.000Y13.400
X15.950Y39.000
X32.785Y46.160
X23.875Y26.200
X27.210Y56.250
X46.750Y71.000
X28.199Y17.805
X62.000Y51.800
X54.375Y32.600
X34.000Y36.400
X39.125Y64.600
X62.000Y1.000
X8.625Y71.000
X16.250Y13.400
X15.500Y44.900
X8.625Y58.200
X54.375Y26.200
X1.000Y19.800
X62.000Y7.000
X45.050Y36.100
X16.250Y1.000
X23.875Y7.000
X62.000Y32.600
X31.500Y1.000
X62.000Y45.400
X1.000Y71.000
X46.750Y7.000
X46.750Y26.200
X39.125Y71.000
X62.000Y19.800
X31.500Y71.000
X14.564Y49.850
X8.625Y19.800
X62.000Y26.200
X46.750Y32.600
X50.950Y37.700
X23.875Y19.800
X39.125Y19.800
X62.000Y39.000
X34.435Y48.600
X62.000Y58.200
X52.941Y53.290
X1.000Y1.000
X8.625Y1.000
X1.000Y7.000
X1.000Y45.400
X58.000Y40.750
X11.300Y45.000
X46.750Y13.400
X1.000Y58.200
X23.875Y71.000
X31.145Y48.600
X37.050Y38.650
X16.250Y19.800
X45.714Y54.890
X28.850Y37.550
X59.305Y54.005
X25.041Y48.150
X34.800Y44.200
X54.375Y1.000
X23.875Y1.000
X38.100Y47.550
X54.375Y64.600
X8.625Y32.600
X45.000Y40.750
X16.250Y26.200
X39.125Y13.400
X1.000Y39.000
X46.650Y58.200
X46.750Y64.600
X28.199Y14.515
X1.000Y13.400
X16.250Y7.000
X9.600Y46.700
X46.750Y19.800
X8.089Y52.720
X16.250Y71.000
X31.500Y32.600
X39.125Y26.200
X8.625Y64.600
X39.125Y1.000
X59.305Y55.830
X3.200Y39.000
X8.625Y26.200
X62.000Y71.000
X54.375Y19.800
X1.000Y64.600
T5
X48.500Y40.300
X40.080Y54.690
X39.000Y45.150
X27.850Y46.900
T6
X46.486Y52.350
T3
X6.789Y57.465
X6.789Y54.925
X11.314Y54.925
X11.314Y57.465
X23.050Y61.150
X25.550Y64.450
X28.050Y64.450
X23.050Y64.450
X25.550Y61.150
X28.050Y61.150
T2
X54.727Y7.691
X52.227Y7.691
X20.249Y3.240
X37.749Y3.240
X35.249Y3.240
X32.749Y3.240
X27.749Y3.240
X42.749Y3.240
X22.749Y3.240
X25.249Y3.240
X40.249Y3.240
X30.249Y3.240
X10.727Y7.691
X8.227Y7.691
X24.285Y56.700
X9.589Y42.735
X19.236Y52.390
X19.536Y42.400
X17.800Y59.545
X38.115Y50.900
X33.199Y18.765
X25.541Y49.750
X35.375Y64.965
X53.591Y54.890
T1
X4.500Y62.500
X14.500Y62.500
X9.500Y62.500
X26.500Y36.500
X36.500Y36.500
X31.500Y36.500
X4.500Y36.500
X14.500Y36.500
X9.500Y36.500
X48.500Y62.500
X58.500Y62.500
X53.500Y62.500
X48.500Y36.500
X58.500Y36.500
X53.500Y36.500
M30
