%FSLAX46Y46*%
%MOMM*%
%ADD10C,0.050000*%
%ADD11C,0.150000*%
G01*
%LPD*%
G01*
%LPD*%
D10*
X16025000Y66475000D02*
X2975000Y66475000D01*
D10*
X16025000Y73000000D02*
X16025000Y66475000D01*
D10*
X-3500000Y69500000D02*
X-3500000Y69500000D01*
D10*
X2975000Y66475000D02*
X2975000Y73000000D01*
D11*
X10809524Y64748808D02*
X10809524Y65748808D01*
D11*
X10380952Y65748808D02*
X10809524Y65748808D01*
D11*
X10238095Y65701192D02*
X10380952Y65748808D01*
D11*
X10190476Y65653572D02*
X10238095Y65701192D01*
D11*
X10142857Y65558332D02*
X10190476Y65653572D01*
D11*
X10142857Y65463096D02*
X10142857Y65558332D01*
D11*
X10190476Y65367856D02*
X10142857Y65463096D01*
D11*
X10238095Y65320240D02*
X10190476Y65367856D01*
D11*
X10380952Y65272620D02*
X10238095Y65320240D01*
D11*
X10809524Y65272620D02*
X10380952Y65272620D01*
D11*
X10142857Y64748808D02*
X10476190Y65272620D01*
D11*
X9952381Y64748808D02*
X9571429Y65748808D01*
D11*
X9190476Y64748808D02*
X9571429Y65748808D01*
D11*
X9333333Y65082144D02*
X9809524Y65082144D01*
D11*
X8761905Y64748808D02*
X8761905Y65748808D01*
D11*
X8428572Y65748808D02*
X9095238Y65748808D01*
D11*
X8190476Y64748808D02*
X8190476Y65748808D01*
D11*
X7666667Y65701192D02*
X7571428Y65748808D01*
D11*
X7761905Y65605952D02*
X7666667Y65701192D01*
D11*
X7809524Y65510716D02*
X7761905Y65605952D01*
D11*
X7857143Y65367856D02*
X7809524Y65510716D01*
D11*
X7857143Y65129760D02*
X7857143Y65367856D01*
D11*
X7809524Y64986904D02*
X7857143Y65129760D01*
D11*
X7761905Y64891668D02*
X7809524Y64986904D01*
D11*
X7666667Y64796428D02*
X7761905Y64891668D01*
D11*
X7571428Y64748808D02*
X7666667Y64796428D01*
D11*
X7380952Y64748808D02*
X7571428Y64748808D01*
D11*
X7285714Y64796428D02*
X7380952Y64748808D01*
D11*
X7190476Y64891668D02*
X7285714Y64796428D01*
D11*
X7142857Y64986904D02*
X7190476Y64891668D01*
D11*
X7095238Y65129760D02*
X7142857Y64986904D01*
D11*
X7095238Y65367856D02*
X7095238Y65129760D01*
D11*
X7142857Y65510716D02*
X7095238Y65367856D01*
D11*
X7190476Y65605952D02*
X7142857Y65510716D01*
D11*
X7285714Y65701192D02*
X7190476Y65605952D01*
D11*
X7380952Y65748808D02*
X7285714Y65701192D01*
D11*
X7571428Y65748808D02*
X7380952Y65748808D01*
D10*
X38025000Y40475000D02*
X24975000Y40475000D01*
D10*
X38025000Y47000000D02*
X38025000Y40475000D01*
D10*
X18500000Y43500000D02*
X18500000Y43500000D01*
D10*
X24975000Y40475000D02*
X24975000Y47000000D01*
D11*
X32952380Y38748808D02*
X32571428Y39748808D01*
D11*
X32190476Y38748808D02*
X32571428Y39748808D01*
D11*
X32333334Y39082144D02*
X32809524Y39082144D01*
D11*
X31761904Y38748808D02*
X31761904Y39748808D01*
D11*
X31428572Y39748808D02*
X32095238Y39748808D01*
D11*
X31000000Y38748808D02*
X31000000Y39748808D01*
D11*
X30666666Y39748808D02*
X31333334Y39748808D01*
D11*
X30571428Y38748808D02*
X30190476Y39748808D01*
D11*
X29809524Y38748808D02*
X30190476Y39748808D01*
D11*
X29952380Y39082144D02*
X30428572Y39082144D01*
D11*
X28952380Y39605952D02*
X28904762Y39510716D01*
D11*
X29047620Y39701192D02*
X28952380Y39605952D01*
D11*
X29142858Y39748808D02*
X29047620Y39701192D01*
D11*
X29333334Y39748808D02*
X29142858Y39748808D01*
D11*
X29428572Y39701192D02*
X29333334Y39748808D01*
D11*
X29523810Y39605952D02*
X29428572Y39701192D01*
D11*
X29571428Y39510716D02*
X29523810Y39605952D01*
D11*
X29619048Y39367856D02*
X29571428Y39510716D01*
D11*
X29619048Y39129760D02*
X29619048Y39367856D01*
D11*
X29571428Y38986904D02*
X29619048Y39129760D01*
D11*
X29523810Y38891668D02*
X29571428Y38986904D01*
D11*
X29428572Y38796428D02*
X29523810Y38891668D01*
D11*
X29333334Y38748808D02*
X29428572Y38796428D01*
D11*
X29142858Y38748808D02*
X29333334Y38748808D01*
D11*
X29047620Y38796428D02*
X29142858Y38748808D01*
D11*
X28952380Y38891668D02*
X29047620Y38796428D01*
D11*
X28904762Y38986904D02*
X28952380Y38891668D01*
D11*
X28571428Y38748808D02*
X28571428Y39748808D01*
D11*
X28571428Y39082144D02*
X27904762Y39748808D01*
D11*
X27904762Y38748808D02*
X28333334Y39320240D01*
D10*
X16025000Y40475000D02*
X2975000Y40475000D01*
D10*
X16025000Y47000000D02*
X16025000Y40475000D01*
D10*
X-3500000Y43500000D02*
X-3500000Y43500000D01*
D10*
X2975000Y40475000D02*
X2975000Y47000000D01*
D11*
X10619048Y38748808D02*
X10619048Y39748808D01*
D11*
X10285714Y39748808D02*
X10952381Y39748808D01*
D11*
X10047619Y38748808D02*
X10047619Y39748808D01*
D11*
X9380952Y38748808D02*
X9380952Y39748808D01*
D11*
X9380952Y39272620D02*
X10047619Y39272620D01*
D11*
X9000000Y38748808D02*
X9000000Y39748808D01*
D11*
X8571428Y39748808D02*
X9000000Y39748808D01*
D11*
X8428572Y39701192D02*
X8571428Y39748808D01*
D11*
X8380952Y39653572D02*
X8428572Y39701192D01*
D11*
X8333333Y39558332D02*
X8380952Y39653572D01*
D11*
X8333333Y39463096D02*
X8333333Y39558332D01*
D11*
X8380952Y39367856D02*
X8333333Y39463096D01*
D11*
X8428572Y39320240D02*
X8380952Y39367856D01*
D11*
X8571428Y39272620D02*
X8428572Y39320240D01*
D11*
X9000000Y39272620D02*
X8571428Y39272620D01*
D11*
X8333333Y38748808D02*
X8666667Y39272620D01*
D11*
X8000000Y38748808D02*
X8000000Y39748808D01*
D11*
X7380952Y39748808D02*
X8000000Y39748808D01*
D11*
X7619048Y39272620D02*
X8000000Y39272620D01*
D11*
X7380952Y38748808D02*
X8000000Y38748808D01*
D11*
X6571428Y39701192D02*
X6476190Y39605952D01*
D11*
X6714286Y39748808D02*
X6571428Y39701192D01*
D11*
X6904762Y39748808D02*
X6714286Y39748808D01*
D11*
X7047619Y39701192D02*
X6904762Y39748808D01*
D11*
X7142857Y39605952D02*
X7047619Y39701192D01*
D11*
X7142857Y39510716D02*
X7142857Y39605952D01*
D11*
X7095238Y39415476D02*
X7142857Y39510716D01*
D11*
X7047619Y39367856D02*
X7095238Y39415476D01*
D11*
X6952381Y39320240D02*
X7047619Y39367856D01*
D11*
X6666666Y39225000D02*
X6952381Y39320240D01*
D11*
X6571428Y39177380D02*
X6666666Y39225000D01*
D11*
X6523809Y39129760D02*
X6571428Y39177380D01*
D11*
X6476190Y39034524D02*
X6523809Y39129760D01*
D11*
X6476190Y38891668D02*
X6476190Y39034524D01*
D11*
X6571428Y38796428D02*
X6476190Y38891668D01*
D11*
X6714286Y38748808D02*
X6571428Y38796428D01*
D11*
X6904762Y38748808D02*
X6714286Y38748808D01*
D11*
X7047619Y38796428D02*
X6904762Y38748808D01*
D11*
X7142857Y38891668D02*
X7047619Y38796428D01*
D11*
X6142857Y38748808D02*
X6142857Y39748808D01*
D11*
X5476190Y38748808D02*
X5476190Y39748808D01*
D11*
X5476190Y39272620D02*
X6142857Y39272620D01*
D11*
X4952381Y39701192D02*
X4857143Y39748808D01*
D11*
X5047619Y39605952D02*
X4952381Y39701192D01*
D11*
X5095238Y39510716D02*
X5047619Y39605952D01*
D11*
X5142857Y39367856D02*
X5095238Y39510716D01*
D11*
X5142857Y39129760D02*
X5142857Y39367856D01*
D11*
X5095238Y38986904D02*
X5142857Y39129760D01*
D11*
X5047619Y38891668D02*
X5095238Y38986904D01*
D11*
X4952381Y38796428D02*
X5047619Y38891668D01*
D11*
X4857143Y38748808D02*
X4952381Y38796428D01*
D11*
X4666667Y38748808D02*
X4857143Y38748808D01*
D11*
X4571428Y38796428D02*
X4666667Y38748808D01*
D11*
X4476190Y38891668D02*
X4571428Y38796428D01*
D11*
X4428571Y38986904D02*
X4476190Y38891668D01*
D11*
X4380952Y39129760D02*
X4428571Y38986904D01*
D11*
X4380952Y39367856D02*
X4380952Y39129760D01*
D11*
X4428571Y39510716D02*
X4380952Y39367856D01*
D11*
X4476190Y39605952D02*
X4428571Y39510716D01*
D11*
X4571428Y39701192D02*
X4476190Y39605952D01*
D11*
X4666667Y39748808D02*
X4571428Y39701192D01*
D11*
X4857143Y39748808D02*
X4666667Y39748808D01*
D11*
X4047619Y38748808D02*
X4047619Y39748808D01*
D11*
X3476190Y38748808D02*
X4047619Y38748808D01*
D11*
X3238095Y38748808D02*
X3238095Y39748808D01*
D11*
X2904762Y39748808D02*
X3238095Y39748808D01*
D11*
X2761905Y39701192D02*
X2904762Y39748808D01*
D11*
X2666667Y39605952D02*
X2761905Y39701192D01*
D11*
X2619048Y39510716D02*
X2666667Y39605952D01*
D11*
X2571429Y39367856D02*
X2619048Y39510716D01*
D11*
X2571429Y39129760D02*
X2571429Y39367856D01*
D11*
X2619048Y38986904D02*
X2571429Y39129760D01*
D11*
X2666667Y38891668D02*
X2619048Y38986904D01*
D11*
X2761905Y38796428D02*
X2666667Y38891668D01*
D11*
X2904762Y38748808D02*
X2761905Y38796428D01*
D11*
X3238095Y38748808D02*
X2904762Y38748808D01*
D10*
X60025000Y66475000D02*
X46975000Y66475000D01*
D10*
X60025000Y73000000D02*
X60025000Y66475000D01*
D10*
X40500000Y69500000D02*
X40500000Y69500000D01*
D10*
X46975000Y66475000D02*
X46975000Y73000000D01*
D11*
X54809524Y64748808D02*
X54809524Y65748808D01*
D11*
X54238096Y64748808D02*
X54809524Y64748808D01*
D11*
X54000000Y64748808D02*
X54000000Y65748808D01*
D11*
X53380952Y65748808D02*
X54000000Y65748808D01*
D11*
X53619048Y65272620D02*
X54000000Y65272620D01*
D11*
X53380952Y64748808D02*
X54000000Y64748808D01*
D11*
X52857144Y64748808D02*
X53238096Y65748808D01*
D11*
X52857144Y64748808D02*
X52476192Y65748808D01*
D11*
X52238096Y64748808D02*
X52238096Y65748808D01*
D11*
X51619048Y65748808D02*
X52238096Y65748808D01*
D11*
X51857144Y65272620D02*
X52238096Y65272620D01*
D11*
X51619048Y64748808D02*
X52238096Y64748808D01*
D11*
X51333332Y64748808D02*
X51333332Y65748808D01*
D11*
X50761904Y64748808D02*
X51333332Y64748808D01*
D10*
X60025000Y40475000D02*
X46975000Y40475000D01*
D10*
X60025000Y47000000D02*
X60025000Y40475000D01*
D10*
X40500000Y43500000D02*
X40500000Y43500000D01*
D10*
X46975000Y40475000D02*
X46975000Y47000000D01*
D11*
X54809524Y38748808D02*
X54809524Y39748808D01*
D11*
X54380952Y39748808D02*
X54809524Y39748808D01*
D11*
X54238096Y39701192D02*
X54380952Y39748808D01*
D11*
X54190476Y39653572D02*
X54238096Y39701192D01*
D11*
X54142856Y39558332D02*
X54190476Y39653572D01*
D11*
X54142856Y39463096D02*
X54142856Y39558332D01*
D11*
X54190476Y39367856D02*
X54142856Y39463096D01*
D11*
X54238096Y39320240D02*
X54190476Y39367856D01*
D11*
X54380952Y39272620D02*
X54238096Y39320240D01*
D11*
X54809524Y39272620D02*
X54380952Y39272620D01*
D11*
X54142856Y38748808D02*
X54476192Y39272620D01*
D11*
X53809524Y38748808D02*
X53809524Y39748808D01*
D11*
X53190476Y39748808D02*
X53809524Y39748808D01*
D11*
X53428572Y39272620D02*
X53809524Y39272620D01*
D11*
X53190476Y38748808D02*
X53809524Y38748808D01*
D11*
X52904760Y38748808D02*
X52904760Y39748808D01*
D11*
X52333332Y38748808D02*
X52904760Y38748808D01*
D11*
X52095240Y38748808D02*
X52095240Y39748808D01*
D11*
X51476192Y39748808D02*
X52095240Y39748808D01*
D11*
X51714284Y39272620D02*
X52095240Y39272620D01*
D11*
X51476192Y38748808D02*
X52095240Y38748808D01*
D11*
X51333332Y38748808D02*
X50952380Y39748808D01*
D11*
X50571428Y38748808D02*
X50952380Y39748808D01*
D11*
X50714288Y39082144D02*
X51190476Y39082144D01*
D11*
X49809524Y39701192D02*
X49714288Y39605952D01*
D11*
X49952380Y39748808D02*
X49809524Y39701192D01*
D11*
X50142856Y39748808D02*
X49952380Y39748808D01*
D11*
X50285716Y39701192D02*
X50142856Y39748808D01*
D11*
X50380952Y39605952D02*
X50285716Y39701192D01*
D11*
X50380952Y39510716D02*
X50380952Y39605952D01*
D11*
X50333332Y39415476D02*
X50380952Y39510716D01*
D11*
X50285716Y39367856D02*
X50333332Y39415476D01*
D11*
X50190476Y39320240D02*
X50285716Y39367856D01*
D11*
X49904760Y39225000D02*
X50190476Y39320240D01*
D11*
X49809524Y39177380D02*
X49904760Y39225000D01*
D11*
X49761904Y39129760D02*
X49809524Y39177380D01*
D11*
X49714288Y39034524D02*
X49761904Y39129760D01*
D11*
X49714288Y38891668D02*
X49714288Y39034524D01*
D11*
X49809524Y38796428D02*
X49714288Y38891668D01*
D11*
X49952380Y38748808D02*
X49809524Y38796428D01*
D11*
X50142856Y38748808D02*
X49952380Y38748808D01*
D11*
X50285716Y38796428D02*
X50142856Y38748808D01*
D11*
X50380952Y38891668D02*
X50285716Y38796428D01*
D11*
X49380952Y38748808D02*
X49380952Y39748808D01*
D11*
X48761904Y39748808D02*
X49380952Y39748808D01*
D11*
X49000000Y39272620D02*
X49380952Y39272620D01*
D11*
X48761904Y38748808D02*
X49380952Y38748808D01*
G75*
D10*
G02*
X975000Y78500000D02*
X18025000Y78500000I8525000J0D01*
D10*
G02*
X18025000Y78500000D02*
X16018276Y73005668I-8525000J1D01*
D10*
G02*
X3000000Y73000000D02*
X985307Y78500000I6500000J5499999D01*
D10*
G02*
X22975000Y52500000D02*
X40025000Y52500000I8525000J0D01*
D10*
G02*
X40025000Y52500000D02*
X38018276Y47005668I-8525000J1D01*
D10*
G02*
X25000000Y47000000D02*
X22985307Y52500000I6500000J5499999D01*
D10*
G02*
X975000Y52500000D02*
X18025000Y52500000I8525000J0D01*
D10*
G02*
X18025000Y52500000D02*
X16018276Y47005668I-8525000J1D01*
D10*
G02*
X3000000Y47000000D02*
X985307Y52500000I6500000J5499999D01*
D10*
G02*
X44975000Y78500000D02*
X62025000Y78500000I8525000J0D01*
D10*
G02*
X62025000Y78500000D02*
X60018276Y73005668I-8525000J1D01*
D10*
G02*
X47000000Y73000000D02*
X44985307Y78500000I6500000J5499999D01*
D10*
G02*
X44975000Y52500000D02*
X62025000Y52500000I8525000J0D01*
D10*
G02*
X62025000Y52500000D02*
X60018276Y47005668I-8525000J1D01*
D10*
G02*
X47000000Y47000000D02*
X44985307Y52500000I6500000J5499999D01*
M02*
