%FSLAX46Y46*%
%MOMM*%
%AMPS11*
1,1,2.100000,0.000000,0.000000*
%
%ADD11PS11*%
%AMPS13*
1,1,1.600000,0.000000,0.000000*
%
%ADD13PS13*%
%AMPS12*
1,1,1.600000,0.000000,0.000000*
%
%ADD12PS12*%
%AMPS10*
1,1,1.400000,0.000000,0.000000*
%
%ADD10PS10*%
%AMPS14*
1,1,1.400000,0.000000,0.000000*
%
%ADD14PS14*%
%AMPS18*
1,1,0.800000,0.000000,0.000000*
%
%ADD18PS18*%
%AMPS16*
1,1,0.700000,0.000000,0.000000*
%
%ADD16PS16*%
%AMPS17*
1,1,1.000000,0.000000,0.000000*
%
%ADD17PS17*%
%AMPS15*
1,1,0.700000,0.000000,0.000000*
%
%ADD15PS15*%
G01*
%LPD*%
G36*
X62640000Y360000D02*
X62640000Y71640000D01*
X360000Y71640000D01*
X360000Y360000D01*
X62640000Y360000D01*
D02*
G37*
%LPC*%
G36*
X21255000Y41095000D02*
X8695000Y41095000D01*
X8695000Y44255000D01*
X16245000Y44255000D01*
X16245000Y66255000D01*
X38505000Y66255000D01*
X38505000Y53755000D01*
X47745000Y53755000D01*
X47745000Y60255000D01*
X56245000Y60255000D01*
X56245000Y64255000D01*
X60755000Y64255000D01*
X60755000Y57745000D01*
X50755000Y57745000D01*
X50755000Y49245000D01*
X34995000Y49245000D01*
X34995000Y58745000D01*
X21255000Y58745000D01*
X21255000Y41095000D01*
D02*
G37*
%LPD*%
G36*
X21000000Y41350000D02*
X21000000Y59000000D01*
X35250000Y59000000D01*
X35250000Y49500000D01*
X50500000Y49500000D01*
X50500000Y58000000D01*
X60500000Y58000000D01*
X60500000Y64000000D01*
X56500000Y64000000D01*
X56500000Y60000000D01*
X48000000Y60000000D01*
X48000000Y53500000D01*
X38250000Y53500000D01*
X38250000Y66000000D01*
X16500000Y66000000D01*
X16500000Y44000000D01*
X8950000Y44000000D01*
X8950000Y41350000D01*
X21000000Y41350000D01*
D02*
G37*
%LPC*%
G36*
X23050000Y63454764D02*
X22952457Y63459558D01*
X22855837Y63473889D01*
X22761100Y63497619D01*
X22669136Y63530525D01*
X22580855Y63572278D01*
X22497079Y63622492D01*
X22418628Y63680675D01*
X22346263Y63746263D01*
X22280675Y63818628D01*
X22222492Y63897079D01*
X22172278Y63980855D01*
X22130525Y64069136D01*
X22097619Y64161100D01*
X22073889Y64255837D01*
X22059558Y64352457D01*
X22054764Y64450000D01*
X22059558Y64547543D01*
X22073889Y64644163D01*
X22097619Y64738900D01*
X22130525Y64830864D01*
X22172278Y64919145D01*
X22222492Y65002921D01*
X22280675Y65081372D01*
X22346263Y65153737D01*
X22418628Y65219325D01*
X22497079Y65277508D01*
X22580855Y65327722D01*
X22669136Y65369475D01*
X22761100Y65402381D01*
X22855837Y65426111D01*
X22952457Y65440442D01*
X23050000Y65445236D01*
X23147543Y65440442D01*
X23244163Y65426111D01*
X23338900Y65402381D01*
X23430864Y65369475D01*
X23519145Y65327722D01*
X23602921Y65277508D01*
X23681372Y65219325D01*
X23753737Y65153737D01*
X23819325Y65081372D01*
X23877508Y65002921D01*
X23927722Y64919145D01*
X23969475Y64830864D01*
X24002381Y64738900D01*
X24026111Y64644163D01*
X24040442Y64547543D01*
X24045236Y64450000D01*
X24040442Y64352457D01*
X24026111Y64255837D01*
X24002381Y64161100D01*
X23969475Y64069136D01*
X23927722Y63980855D01*
X23877508Y63897079D01*
X23819325Y63818628D01*
X23753737Y63746263D01*
X23681372Y63680675D01*
X23602921Y63622492D01*
X23519145Y63572278D01*
X23430864Y63530525D01*
X23338900Y63497619D01*
X23244163Y63473889D01*
X23147543Y63459558D01*
X23050000Y63454764D01*
D02*
G37*
%LPC*%
G36*
X25550000Y63454764D02*
X25452457Y63459558D01*
X25355837Y63473889D01*
X25261100Y63497619D01*
X25169136Y63530525D01*
X25080855Y63572278D01*
X24997079Y63622492D01*
X24918628Y63680675D01*
X24846263Y63746263D01*
X24780675Y63818628D01*
X24722492Y63897079D01*
X24672278Y63980855D01*
X24630525Y64069136D01*
X24597619Y64161100D01*
X24573889Y64255837D01*
X24559558Y64352457D01*
X24554764Y64450000D01*
X24559558Y64547543D01*
X24573889Y64644163D01*
X24597619Y64738900D01*
X24630525Y64830864D01*
X24672278Y64919145D01*
X24722492Y65002921D01*
X24780675Y65081372D01*
X24846263Y65153737D01*
X24918628Y65219325D01*
X24997079Y65277508D01*
X25080855Y65327722D01*
X25169136Y65369475D01*
X25261100Y65402381D01*
X25355837Y65426111D01*
X25452457Y65440442D01*
X25550000Y65445236D01*
X25647543Y65440442D01*
X25744163Y65426111D01*
X25838900Y65402381D01*
X25930864Y65369475D01*
X26019145Y65327722D01*
X26102921Y65277508D01*
X26181372Y65219325D01*
X26253737Y65153737D01*
X26319325Y65081372D01*
X26377508Y65002921D01*
X26427722Y64919145D01*
X26469475Y64830864D01*
X26502381Y64738900D01*
X26526111Y64644163D01*
X26540442Y64547543D01*
X26545236Y64450000D01*
X26540442Y64352457D01*
X26526111Y64255837D01*
X26502381Y64161100D01*
X26469475Y64069136D01*
X26427722Y63980855D01*
X26377508Y63897079D01*
X26319325Y63818628D01*
X26253737Y63746263D01*
X26181372Y63680675D01*
X26102921Y63622492D01*
X26019145Y63572278D01*
X25930864Y63530525D01*
X25838900Y63497619D01*
X25744163Y63473889D01*
X25647543Y63459558D01*
X25550000Y63454764D01*
D02*
G37*
%LPC*%
G36*
X28050000Y63454764D02*
X27952457Y63459558D01*
X27855837Y63473889D01*
X27761100Y63497619D01*
X27669136Y63530525D01*
X27580855Y63572278D01*
X27497079Y63622492D01*
X27418628Y63680675D01*
X27346263Y63746263D01*
X27280675Y63818628D01*
X27222492Y63897079D01*
X27172278Y63980855D01*
X27130525Y64069136D01*
X27097619Y64161100D01*
X27073889Y64255837D01*
X27059558Y64352457D01*
X27054764Y64450000D01*
X27059558Y64547543D01*
X27073889Y64644163D01*
X27097619Y64738900D01*
X27130525Y64830864D01*
X27172278Y64919145D01*
X27222492Y65002921D01*
X27280675Y65081372D01*
X27346263Y65153737D01*
X27418628Y65219325D01*
X27497079Y65277508D01*
X27580855Y65327722D01*
X27669136Y65369475D01*
X27761100Y65402381D01*
X27855837Y65426111D01*
X27952457Y65440442D01*
X28050000Y65445236D01*
X28147543Y65440442D01*
X28244163Y65426111D01*
X28338900Y65402381D01*
X28430864Y65369475D01*
X28519145Y65327722D01*
X28602921Y65277508D01*
X28681372Y65219325D01*
X28753737Y65153737D01*
X28819325Y65081372D01*
X28877508Y65002921D01*
X28927722Y64919145D01*
X28969475Y64830864D01*
X29002381Y64738900D01*
X29026111Y64644163D01*
X29040442Y64547543D01*
X29045236Y64450000D01*
X29040442Y64352457D01*
X29026111Y64255837D01*
X29002381Y64161100D01*
X28969475Y64069136D01*
X28927722Y63980855D01*
X28877508Y63897079D01*
X28819325Y63818628D01*
X28753737Y63746263D01*
X28681372Y63680675D01*
X28602921Y63622492D01*
X28519145Y63572278D01*
X28430864Y63530525D01*
X28338900Y63497619D01*
X28244163Y63473889D01*
X28147543Y63459558D01*
X28050000Y63454764D01*
D02*
G37*
%LPC*%
G36*
X28050000Y60154764D02*
X27952457Y60159558D01*
X27855837Y60173889D01*
X27761100Y60197619D01*
X27669136Y60230525D01*
X27580855Y60272278D01*
X27497079Y60322492D01*
X27418628Y60380675D01*
X27346263Y60446263D01*
X27280675Y60518628D01*
X27222492Y60597079D01*
X27172278Y60680855D01*
X27130525Y60769136D01*
X27097619Y60861100D01*
X27073889Y60955837D01*
X27059558Y61052457D01*
X27054764Y61150000D01*
X27059558Y61247543D01*
X27073889Y61344163D01*
X27097619Y61438900D01*
X27130525Y61530864D01*
X27172278Y61619145D01*
X27222492Y61702921D01*
X27280675Y61781372D01*
X27346263Y61853737D01*
X27418628Y61919325D01*
X27497079Y61977508D01*
X27580855Y62027722D01*
X27669136Y62069475D01*
X27761100Y62102381D01*
X27855837Y62126111D01*
X27952457Y62140442D01*
X28050000Y62145236D01*
X28147543Y62140442D01*
X28244163Y62126111D01*
X28338900Y62102381D01*
X28430864Y62069475D01*
X28519145Y62027722D01*
X28602921Y61977508D01*
X28681372Y61919325D01*
X28753737Y61853737D01*
X28819325Y61781372D01*
X28877508Y61702921D01*
X28927722Y61619145D01*
X28969475Y61530864D01*
X29002381Y61438900D01*
X29026111Y61344163D01*
X29040442Y61247543D01*
X29045236Y61150000D01*
X29040442Y61052457D01*
X29026111Y60955837D01*
X29002381Y60861100D01*
X28969475Y60769136D01*
X28927722Y60680855D01*
X28877508Y60597079D01*
X28819325Y60518628D01*
X28753737Y60446263D01*
X28681372Y60380675D01*
X28602921Y60322492D01*
X28519145Y60272278D01*
X28430864Y60230525D01*
X28338900Y60197619D01*
X28244163Y60173889D01*
X28147543Y60159558D01*
X28050000Y60154764D01*
D02*
G37*
%LPD*%
G36*
X28050000Y60410071D02*
X28122520Y60413636D01*
X28194358Y60424291D01*
X28264789Y60441933D01*
X28333161Y60466398D01*
X28398790Y60497437D01*
X28461080Y60534773D01*
X28519408Y60578032D01*
X28573207Y60626793D01*
X28621968Y60680592D01*
X28665227Y60738920D01*
X28702563Y60801210D01*
X28733602Y60866839D01*
X28758067Y60935211D01*
X28775709Y61005642D01*
X28786364Y61077480D01*
X28789929Y61150000D01*
X28786364Y61222520D01*
X28775709Y61294358D01*
X28758067Y61364789D01*
X28733602Y61433161D01*
X28702563Y61498790D01*
X28665227Y61561080D01*
X28621968Y61619408D01*
X28573207Y61673207D01*
X28519408Y61721968D01*
X28461080Y61765227D01*
X28398790Y61802563D01*
X28333161Y61833602D01*
X28264789Y61858067D01*
X28194358Y61875709D01*
X28122520Y61886364D01*
X28050000Y61889929D01*
X27977480Y61886364D01*
X27905642Y61875709D01*
X27835211Y61858067D01*
X27766839Y61833602D01*
X27701210Y61802563D01*
X27638920Y61765227D01*
X27580592Y61721968D01*
X27526793Y61673207D01*
X27478032Y61619408D01*
X27434773Y61561080D01*
X27397437Y61498790D01*
X27366398Y61433161D01*
X27341933Y61364789D01*
X27324291Y61294358D01*
X27313636Y61222520D01*
X27310071Y61150000D01*
X27313636Y61077480D01*
X27324291Y61005642D01*
X27341933Y60935211D01*
X27366398Y60866839D01*
X27397437Y60801210D01*
X27434773Y60738920D01*
X27478032Y60680592D01*
X27526793Y60626793D01*
X27580592Y60578032D01*
X27638920Y60534773D01*
X27701210Y60497437D01*
X27766839Y60466398D01*
X27835211Y60441933D01*
X27905642Y60424291D01*
X27977480Y60413636D01*
X28050000Y60410071D01*
D02*
G37*
%LPC*%
G36*
X25550000Y60154764D02*
X25452457Y60159558D01*
X25355837Y60173889D01*
X25261100Y60197619D01*
X25169136Y60230525D01*
X25080855Y60272278D01*
X24997079Y60322492D01*
X24918628Y60380675D01*
X24846263Y60446263D01*
X24780675Y60518628D01*
X24722492Y60597079D01*
X24672278Y60680855D01*
X24630525Y60769136D01*
X24597619Y60861100D01*
X24573889Y60955837D01*
X24559558Y61052457D01*
X24554764Y61150000D01*
X24559558Y61247543D01*
X24573889Y61344163D01*
X24597619Y61438900D01*
X24630525Y61530864D01*
X24672278Y61619145D01*
X24722492Y61702921D01*
X24780675Y61781372D01*
X24846263Y61853737D01*
X24918628Y61919325D01*
X24997079Y61977508D01*
X25080855Y62027722D01*
X25169136Y62069475D01*
X25261100Y62102381D01*
X25355837Y62126111D01*
X25452457Y62140442D01*
X25550000Y62145236D01*
X25647543Y62140442D01*
X25744163Y62126111D01*
X25838900Y62102381D01*
X25930864Y62069475D01*
X26019145Y62027722D01*
X26102921Y61977508D01*
X26181372Y61919325D01*
X26253737Y61853737D01*
X26319325Y61781372D01*
X26377508Y61702921D01*
X26427722Y61619145D01*
X26469475Y61530864D01*
X26502381Y61438900D01*
X26526111Y61344163D01*
X26540442Y61247543D01*
X26545236Y61150000D01*
X26540442Y61052457D01*
X26526111Y60955837D01*
X26502381Y60861100D01*
X26469475Y60769136D01*
X26427722Y60680855D01*
X26377508Y60597079D01*
X26319325Y60518628D01*
X26253737Y60446263D01*
X26181372Y60380675D01*
X26102921Y60322492D01*
X26019145Y60272278D01*
X25930864Y60230525D01*
X25838900Y60197619D01*
X25744163Y60173889D01*
X25647543Y60159558D01*
X25550000Y60154764D01*
D02*
G37*
%LPD*%
G36*
X25550000Y60410071D02*
X25622520Y60413636D01*
X25694358Y60424291D01*
X25764789Y60441933D01*
X25833161Y60466398D01*
X25898790Y60497437D01*
X25961080Y60534773D01*
X26019408Y60578032D01*
X26073207Y60626793D01*
X26121968Y60680592D01*
X26165227Y60738920D01*
X26202563Y60801210D01*
X26233602Y60866839D01*
X26258067Y60935211D01*
X26275709Y61005642D01*
X26286364Y61077480D01*
X26289929Y61150000D01*
X26286364Y61222520D01*
X26275709Y61294358D01*
X26258067Y61364789D01*
X26233602Y61433161D01*
X26202563Y61498790D01*
X26165227Y61561080D01*
X26121968Y61619408D01*
X26073207Y61673207D01*
X26019408Y61721968D01*
X25961080Y61765227D01*
X25898790Y61802563D01*
X25833161Y61833602D01*
X25764789Y61858067D01*
X25694358Y61875709D01*
X25622520Y61886364D01*
X25550000Y61889929D01*
X25477480Y61886364D01*
X25405642Y61875709D01*
X25335211Y61858067D01*
X25266839Y61833602D01*
X25201210Y61802563D01*
X25138920Y61765227D01*
X25080592Y61721968D01*
X25026793Y61673207D01*
X24978032Y61619408D01*
X24934773Y61561080D01*
X24897437Y61498790D01*
X24866398Y61433161D01*
X24841933Y61364789D01*
X24824291Y61294358D01*
X24813636Y61222520D01*
X24810071Y61150000D01*
X24813636Y61077480D01*
X24824291Y61005642D01*
X24841933Y60935211D01*
X24866398Y60866839D01*
X24897437Y60801210D01*
X24934773Y60738920D01*
X24978032Y60680592D01*
X25026793Y60626793D01*
X25080592Y60578032D01*
X25138920Y60534773D01*
X25201210Y60497437D01*
X25266839Y60466398D01*
X25335211Y60441933D01*
X25405642Y60424291D01*
X25477480Y60413636D01*
X25550000Y60410071D01*
D02*
G37*
%LPC*%
G36*
X23050000Y60154764D02*
X22952457Y60159558D01*
X22855837Y60173889D01*
X22761100Y60197619D01*
X22669136Y60230525D01*
X22580855Y60272278D01*
X22497079Y60322492D01*
X22418628Y60380675D01*
X22346263Y60446263D01*
X22280675Y60518628D01*
X22222492Y60597079D01*
X22172278Y60680855D01*
X22130525Y60769136D01*
X22097619Y60861100D01*
X22073889Y60955837D01*
X22059558Y61052457D01*
X22054764Y61150000D01*
X22059558Y61247543D01*
X22073889Y61344163D01*
X22097619Y61438900D01*
X22130525Y61530864D01*
X22172278Y61619145D01*
X22222492Y61702921D01*
X22280675Y61781372D01*
X22346263Y61853737D01*
X22418628Y61919325D01*
X22497079Y61977508D01*
X22580855Y62027722D01*
X22669136Y62069475D01*
X22761100Y62102381D01*
X22855837Y62126111D01*
X22952457Y62140442D01*
X23050000Y62145236D01*
X23147543Y62140442D01*
X23244163Y62126111D01*
X23338900Y62102381D01*
X23430864Y62069475D01*
X23519145Y62027722D01*
X23602921Y61977508D01*
X23681372Y61919325D01*
X23753737Y61853737D01*
X23819325Y61781372D01*
X23877508Y61702921D01*
X23927722Y61619145D01*
X23969475Y61530864D01*
X24002381Y61438900D01*
X24026111Y61344163D01*
X24040442Y61247543D01*
X24045236Y61150000D01*
X24040442Y61052457D01*
X24026111Y60955837D01*
X24002381Y60861100D01*
X23969475Y60769136D01*
X23927722Y60680855D01*
X23877508Y60597079D01*
X23819325Y60518628D01*
X23753737Y60446263D01*
X23681372Y60380675D01*
X23602921Y60322492D01*
X23519145Y60272278D01*
X23430864Y60230525D01*
X23338900Y60197619D01*
X23244163Y60173889D01*
X23147543Y60159558D01*
X23050000Y60154764D01*
D02*
G37*
%LPD*%
G36*
X23050000Y60410071D02*
X23122520Y60413636D01*
X23194358Y60424291D01*
X23264789Y60441933D01*
X23333161Y60466398D01*
X23398790Y60497437D01*
X23461080Y60534773D01*
X23519408Y60578032D01*
X23573207Y60626793D01*
X23621968Y60680592D01*
X23665227Y60738920D01*
X23702563Y60801210D01*
X23733602Y60866839D01*
X23758067Y60935211D01*
X23775709Y61005642D01*
X23786364Y61077480D01*
X23789929Y61150000D01*
X23786364Y61222520D01*
X23775709Y61294358D01*
X23758067Y61364789D01*
X23733602Y61433161D01*
X23702563Y61498790D01*
X23665227Y61561080D01*
X23621968Y61619408D01*
X23573207Y61673207D01*
X23519408Y61721968D01*
X23461080Y61765227D01*
X23398790Y61802563D01*
X23333161Y61833602D01*
X23264789Y61858067D01*
X23194358Y61875709D01*
X23122520Y61886364D01*
X23050000Y61889929D01*
X22977480Y61886364D01*
X22905642Y61875709D01*
X22835211Y61858067D01*
X22766839Y61833602D01*
X22701210Y61802563D01*
X22638920Y61765227D01*
X22580592Y61721968D01*
X22526793Y61673207D01*
X22478032Y61619408D01*
X22434773Y61561080D01*
X22397437Y61498790D01*
X22366398Y61433161D01*
X22341933Y61364789D01*
X22324291Y61294358D01*
X22313636Y61222520D01*
X22310071Y61150000D01*
X22313636Y61077480D01*
X22324291Y61005642D01*
X22341933Y60935211D01*
X22366398Y60866839D01*
X22397437Y60801210D01*
X22434773Y60738920D01*
X22478032Y60680592D01*
X22526793Y60626793D01*
X22580592Y60578032D01*
X22638920Y60534773D01*
X22701210Y60497437D01*
X22766839Y60466398D01*
X22835211Y60441933D01*
X22905642Y60424291D01*
X22977480Y60413636D01*
X23050000Y60410071D01*
D02*
G37*
%LPC*%
G36*
X4500000Y61254764D02*
X4377953Y61260762D01*
X4257065Y61278693D01*
X4138526Y61308385D01*
X4023471Y61349552D01*
X3913002Y61401800D01*
X3808185Y61464625D01*
X3710033Y61537421D01*
X3619486Y61619486D01*
X3537421Y61710033D01*
X3464625Y61808185D01*
X3401800Y61913002D01*
X3349552Y62023471D01*
X3308385Y62138526D01*
X3278693Y62257065D01*
X3260762Y62377953D01*
X3254764Y62500000D01*
X3260762Y62622047D01*
X3278693Y62742935D01*
X3308385Y62861474D01*
X3349552Y62976529D01*
X3401800Y63086998D01*
X3464625Y63191815D01*
X3537421Y63289967D01*
X3619486Y63380514D01*
X3710033Y63462579D01*
X3808185Y63535375D01*
X3913002Y63598200D01*
X4023471Y63650448D01*
X4138526Y63691615D01*
X4257065Y63721307D01*
X4377953Y63739238D01*
X4500000Y63745236D01*
X4622047Y63739238D01*
X4742935Y63721307D01*
X4861474Y63691615D01*
X4976529Y63650448D01*
X5086998Y63598200D01*
X5191815Y63535375D01*
X5289967Y63462579D01*
X5380514Y63380514D01*
X5462579Y63289967D01*
X5535375Y63191815D01*
X5598200Y63086998D01*
X5650448Y62976529D01*
X5691615Y62861474D01*
X5721307Y62742935D01*
X5739238Y62622047D01*
X5745236Y62500000D01*
X5739238Y62377953D01*
X5721307Y62257065D01*
X5691615Y62138526D01*
X5650448Y62023471D01*
X5598200Y61913002D01*
X5535375Y61808185D01*
X5462579Y61710033D01*
X5380514Y61619486D01*
X5289967Y61537421D01*
X5191815Y61464625D01*
X5086998Y61401800D01*
X4976529Y61349552D01*
X4861474Y61308385D01*
X4742935Y61278693D01*
X4622047Y61260762D01*
X4500000Y61254764D01*
D02*
G37*
%LPC*%
G36*
X9500000Y61254764D02*
X9377953Y61260762D01*
X9257065Y61278693D01*
X9138526Y61308385D01*
X9023471Y61349552D01*
X8913002Y61401800D01*
X8808185Y61464625D01*
X8710033Y61537421D01*
X8619486Y61619486D01*
X8537421Y61710033D01*
X8464625Y61808185D01*
X8401800Y61913002D01*
X8349552Y62023471D01*
X8308385Y62138526D01*
X8278693Y62257065D01*
X8260762Y62377953D01*
X8254764Y62500000D01*
X8260762Y62622047D01*
X8278693Y62742935D01*
X8308385Y62861474D01*
X8349552Y62976529D01*
X8401800Y63086998D01*
X8464625Y63191815D01*
X8537421Y63289967D01*
X8619486Y63380514D01*
X8710033Y63462579D01*
X8808185Y63535375D01*
X8913002Y63598200D01*
X9023471Y63650448D01*
X9138526Y63691615D01*
X9257065Y63721307D01*
X9377953Y63739238D01*
X9500000Y63745236D01*
X9622047Y63739238D01*
X9742935Y63721307D01*
X9861474Y63691615D01*
X9976529Y63650448D01*
X10086998Y63598200D01*
X10191815Y63535375D01*
X10289967Y63462579D01*
X10380514Y63380514D01*
X10462579Y63289967D01*
X10535375Y63191815D01*
X10598200Y63086998D01*
X10650448Y62976529D01*
X10691615Y62861474D01*
X10721307Y62742935D01*
X10739238Y62622047D01*
X10745236Y62500000D01*
X10739238Y62377953D01*
X10721307Y62257065D01*
X10691615Y62138526D01*
X10650448Y62023471D01*
X10598200Y61913002D01*
X10535375Y61808185D01*
X10462579Y61710033D01*
X10380514Y61619486D01*
X10289967Y61537421D01*
X10191815Y61464625D01*
X10086998Y61401800D01*
X9976529Y61349552D01*
X9861474Y61308385D01*
X9742935Y61278693D01*
X9622047Y61260762D01*
X9500000Y61254764D01*
D02*
G37*
%LPC*%
G36*
X14500000Y61254764D02*
X14377953Y61260762D01*
X14257065Y61278693D01*
X14138526Y61308385D01*
X14023471Y61349552D01*
X13913002Y61401800D01*
X13808185Y61464625D01*
X13710033Y61537421D01*
X13619486Y61619486D01*
X13537421Y61710033D01*
X13464625Y61808185D01*
X13401800Y61913002D01*
X13349552Y62023471D01*
X13308385Y62138526D01*
X13278693Y62257065D01*
X13260762Y62377953D01*
X13254764Y62500000D01*
X13260762Y62622047D01*
X13278693Y62742935D01*
X13308385Y62861474D01*
X13349552Y62976529D01*
X13401800Y63086998D01*
X13464625Y63191815D01*
X13537421Y63289967D01*
X13619486Y63380514D01*
X13710033Y63462579D01*
X13808185Y63535375D01*
X13913002Y63598200D01*
X14023471Y63650448D01*
X14138526Y63691615D01*
X14257065Y63721307D01*
X14377953Y63739238D01*
X14500000Y63745236D01*
X14622047Y63739238D01*
X14742935Y63721307D01*
X14861474Y63691615D01*
X14976529Y63650448D01*
X15086998Y63598200D01*
X15191815Y63535375D01*
X15289967Y63462579D01*
X15380514Y63380514D01*
X15462579Y63289967D01*
X15535375Y63191815D01*
X15598200Y63086998D01*
X15650448Y62976529D01*
X15691615Y62861474D01*
X15721307Y62742935D01*
X15739238Y62622047D01*
X15745236Y62500000D01*
X15739238Y62377953D01*
X15721307Y62257065D01*
X15691615Y62138526D01*
X15650448Y62023471D01*
X15598200Y61913002D01*
X15535375Y61808185D01*
X15462579Y61710033D01*
X15380514Y61619486D01*
X15289967Y61537421D01*
X15191815Y61464625D01*
X15086998Y61401800D01*
X14976529Y61349552D01*
X14861474Y61308385D01*
X14742935Y61278693D01*
X14622047Y61260762D01*
X14500000Y61254764D01*
D02*
G37*
%LPC*%
G36*
X48500000Y61254764D02*
X48377953Y61260762D01*
X48257065Y61278693D01*
X48138526Y61308385D01*
X48023471Y61349552D01*
X47913002Y61401800D01*
X47808185Y61464625D01*
X47710033Y61537421D01*
X47619486Y61619486D01*
X47537421Y61710033D01*
X47464625Y61808185D01*
X47401800Y61913002D01*
X47349552Y62023471D01*
X47308385Y62138526D01*
X47278693Y62257065D01*
X47260762Y62377953D01*
X47254764Y62500000D01*
X47260762Y62622047D01*
X47278693Y62742935D01*
X47308385Y62861474D01*
X47349552Y62976529D01*
X47401800Y63086998D01*
X47464625Y63191815D01*
X47537421Y63289967D01*
X47619486Y63380514D01*
X47710033Y63462579D01*
X47808185Y63535375D01*
X47913002Y63598200D01*
X48023471Y63650448D01*
X48138526Y63691615D01*
X48257065Y63721307D01*
X48377953Y63739238D01*
X48500000Y63745236D01*
X48622047Y63739238D01*
X48742935Y63721307D01*
X48861474Y63691615D01*
X48976529Y63650448D01*
X49086998Y63598200D01*
X49191815Y63535375D01*
X49289967Y63462579D01*
X49380514Y63380514D01*
X49462579Y63289967D01*
X49535375Y63191815D01*
X49598200Y63086998D01*
X49650448Y62976529D01*
X49691615Y62861474D01*
X49721307Y62742935D01*
X49739238Y62622047D01*
X49745236Y62500000D01*
X49739238Y62377953D01*
X49721307Y62257065D01*
X49691615Y62138526D01*
X49650448Y62023471D01*
X49598200Y61913002D01*
X49535375Y61808185D01*
X49462579Y61710033D01*
X49380514Y61619486D01*
X49289967Y61537421D01*
X49191815Y61464625D01*
X49086998Y61401800D01*
X48976529Y61349552D01*
X48861474Y61308385D01*
X48742935Y61278693D01*
X48622047Y61260762D01*
X48500000Y61254764D01*
D02*
G37*
%LPC*%
G36*
X53500000Y61254764D02*
X53377953Y61260762D01*
X53257065Y61278693D01*
X53138526Y61308385D01*
X53023471Y61349552D01*
X52913002Y61401800D01*
X52808185Y61464625D01*
X52710033Y61537421D01*
X52619486Y61619486D01*
X52537421Y61710033D01*
X52464625Y61808185D01*
X52401800Y61913002D01*
X52349552Y62023471D01*
X52308385Y62138526D01*
X52278693Y62257065D01*
X52260762Y62377953D01*
X52254764Y62500000D01*
X52260762Y62622047D01*
X52278693Y62742935D01*
X52308385Y62861474D01*
X52349552Y62976529D01*
X52401800Y63086998D01*
X52464625Y63191815D01*
X52537421Y63289967D01*
X52619486Y63380514D01*
X52710033Y63462579D01*
X52808185Y63535375D01*
X52913002Y63598200D01*
X53023471Y63650448D01*
X53138526Y63691615D01*
X53257065Y63721307D01*
X53377953Y63739238D01*
X53500000Y63745236D01*
X53622047Y63739238D01*
X53742935Y63721307D01*
X53861474Y63691615D01*
X53976529Y63650448D01*
X54086998Y63598200D01*
X54191815Y63535375D01*
X54289967Y63462579D01*
X54380514Y63380514D01*
X54462579Y63289967D01*
X54535375Y63191815D01*
X54598200Y63086998D01*
X54650448Y62976529D01*
X54691615Y62861474D01*
X54721307Y62742935D01*
X54739238Y62622047D01*
X54745236Y62500000D01*
X54739238Y62377953D01*
X54721307Y62257065D01*
X54691615Y62138526D01*
X54650448Y62023471D01*
X54598200Y61913002D01*
X54535375Y61808185D01*
X54462579Y61710033D01*
X54380514Y61619486D01*
X54289967Y61537421D01*
X54191815Y61464625D01*
X54086998Y61401800D01*
X53976529Y61349552D01*
X53861474Y61308385D01*
X53742935Y61278693D01*
X53622047Y61260762D01*
X53500000Y61254764D01*
D02*
G37*
%LPC*%
G36*
X35755000Y17245000D02*
X31245000Y17245000D01*
X31245000Y29245000D01*
X21995000Y29245000D01*
X21995000Y58055000D01*
X25705000Y58055000D01*
X25705000Y50955000D01*
X26455000Y50955000D01*
X26455000Y48695000D01*
X24505000Y48695000D01*
X24505000Y31755000D01*
X40245000Y31755000D01*
X40245000Y47755000D01*
X53595000Y47755000D01*
X53595000Y53845000D01*
X52145000Y53845000D01*
X52145000Y55955000D01*
X56105000Y55955000D01*
X56105000Y45245000D01*
X42755000Y45245000D01*
X42755000Y29245000D01*
X35755000Y29245000D01*
X35755000Y17245000D01*
D02*
G37*
%LPD*%
G36*
X35500000Y17500000D02*
X35500000Y29500000D01*
X42500000Y29500000D01*
X42500000Y45500000D01*
X55850000Y45500000D01*
X55850000Y55700000D01*
X52400000Y55700000D01*
X52400000Y54100000D01*
X53850000Y54100000D01*
X53850000Y47500000D01*
X40500000Y47500000D01*
X40500000Y31500000D01*
X24250000Y31500000D01*
X24250000Y48950000D01*
X26200000Y48950000D01*
X26200000Y50700000D01*
X25450000Y50700000D01*
X25450000Y57800000D01*
X22250000Y57800000D01*
X22250000Y29500000D01*
X31500000Y29500000D01*
X31500000Y17500000D01*
X35500000Y17500000D01*
D02*
G37*
%LPC*%
G36*
X6788845Y53929764D02*
X6691302Y53934558D01*
X6594682Y53948889D01*
X6499945Y53972619D01*
X6407981Y54005525D01*
X6319700Y54047278D01*
X6235924Y54097492D01*
X6157473Y54155675D01*
X6085108Y54221263D01*
X6019520Y54293628D01*
X5961337Y54372079D01*
X5911123Y54455855D01*
X5869370Y54544136D01*
X5836464Y54636100D01*
X5812734Y54730837D01*
X5798403Y54827457D01*
X5793609Y54925000D01*
X5798403Y55022543D01*
X5812734Y55119163D01*
X5836464Y55213900D01*
X5869370Y55305864D01*
X5911123Y55394145D01*
X5961337Y55477921D01*
X6019520Y55556372D01*
X6085108Y55628737D01*
X6157473Y55694325D01*
X6235924Y55752508D01*
X6319700Y55802722D01*
X6407981Y55844475D01*
X6499945Y55877381D01*
X6594682Y55901111D01*
X6691302Y55915442D01*
X6788845Y55920236D01*
X6886388Y55915442D01*
X6983008Y55901111D01*
X7077745Y55877381D01*
X7169709Y55844475D01*
X7257990Y55802722D01*
X7341766Y55752508D01*
X7420217Y55694325D01*
X7492582Y55628737D01*
X7558170Y55556372D01*
X7616353Y55477921D01*
X7666567Y55394145D01*
X7708320Y55305864D01*
X7741226Y55213900D01*
X7764956Y55119163D01*
X7779287Y55022543D01*
X7784081Y54925000D01*
X7779287Y54827457D01*
X7764956Y54730837D01*
X7741226Y54636100D01*
X7708320Y54544136D01*
X7666567Y54455855D01*
X7616353Y54372079D01*
X7558170Y54293628D01*
X7492582Y54221263D01*
X7420217Y54155675D01*
X7341766Y54097492D01*
X7257990Y54047278D01*
X7169709Y54005525D01*
X7077745Y53972619D01*
X6983008Y53948889D01*
X6886388Y53934558D01*
X6788845Y53929764D01*
D02*
G37*
%LPC*%
G36*
X11313845Y53929764D02*
X11216302Y53934558D01*
X11119682Y53948889D01*
X11024945Y53972619D01*
X10932981Y54005525D01*
X10844700Y54047278D01*
X10760924Y54097492D01*
X10682473Y54155675D01*
X10610108Y54221263D01*
X10544520Y54293628D01*
X10486337Y54372079D01*
X10436123Y54455855D01*
X10394370Y54544136D01*
X10361464Y54636100D01*
X10337734Y54730837D01*
X10323403Y54827457D01*
X10318609Y54925000D01*
X10323403Y55022543D01*
X10337734Y55119163D01*
X10361464Y55213900D01*
X10394370Y55305864D01*
X10436123Y55394145D01*
X10486337Y55477921D01*
X10544520Y55556372D01*
X10610108Y55628737D01*
X10682473Y55694325D01*
X10760924Y55752508D01*
X10844700Y55802722D01*
X10932981Y55844475D01*
X11024945Y55877381D01*
X11119682Y55901111D01*
X11216302Y55915442D01*
X11313845Y55920236D01*
X11411388Y55915442D01*
X11508008Y55901111D01*
X11602745Y55877381D01*
X11694709Y55844475D01*
X11782990Y55802722D01*
X11866766Y55752508D01*
X11945217Y55694325D01*
X12017582Y55628737D01*
X12083170Y55556372D01*
X12141353Y55477921D01*
X12191567Y55394145D01*
X12233320Y55305864D01*
X12266226Y55213900D01*
X12289956Y55119163D01*
X12304287Y55022543D01*
X12309081Y54925000D01*
X12304287Y54827457D01*
X12289956Y54730837D01*
X12266226Y54636100D01*
X12233320Y54544136D01*
X12191567Y54455855D01*
X12141353Y54372079D01*
X12083170Y54293628D01*
X12017582Y54221263D01*
X11945217Y54155675D01*
X11866766Y54097492D01*
X11782990Y54047278D01*
X11694709Y54005525D01*
X11602745Y53972619D01*
X11508008Y53948889D01*
X11411388Y53934558D01*
X11313845Y53929764D01*
D02*
G37*
%LPC*%
G36*
X40080000Y54084752D02*
X40020681Y54087668D01*
X39961924Y54096382D01*
X39904308Y54110815D01*
X39848382Y54130826D01*
X39794686Y54156222D01*
X39743741Y54186757D01*
X39696037Y54222136D01*
X39652027Y54262027D01*
X39612136Y54306037D01*
X39576757Y54353741D01*
X39546222Y54404686D01*
X39520826Y54458382D01*
X39500815Y54514308D01*
X39486382Y54571924D01*
X39477668Y54630681D01*
X39474752Y54690000D01*
X39477668Y54749319D01*
X39486382Y54808076D01*
X39500815Y54865692D01*
X39520826Y54921618D01*
X39546222Y54975314D01*
X39576757Y55026259D01*
X39612136Y55073963D01*
X39652027Y55117973D01*
X39696037Y55157864D01*
X39743741Y55193243D01*
X39794686Y55223778D01*
X39848382Y55249174D01*
X39904308Y55269185D01*
X39961924Y55283618D01*
X40020681Y55292332D01*
X40080000Y55295248D01*
X40139319Y55292332D01*
X40198076Y55283618D01*
X40255692Y55269185D01*
X40311618Y55249174D01*
X40365314Y55223778D01*
X40416259Y55193243D01*
X40463963Y55157864D01*
X40507973Y55117973D01*
X40547864Y55073963D01*
X40583243Y55026259D01*
X40613778Y54975314D01*
X40639174Y54921618D01*
X40659185Y54865692D01*
X40673618Y54808076D01*
X40682332Y54749319D01*
X40685248Y54690000D01*
X40682332Y54630681D01*
X40673618Y54571924D01*
X40659185Y54514308D01*
X40639174Y54458382D01*
X40613778Y54404686D01*
X40583243Y54353741D01*
X40547864Y54306037D01*
X40507973Y54262027D01*
X40463963Y54222136D01*
X40416259Y54186757D01*
X40365314Y54156222D01*
X40311618Y54130826D01*
X40255692Y54110815D01*
X40198076Y54096382D01*
X40139319Y54087668D01*
X40080000Y54084752D01*
D02*
G37*
%LPC*%
G36*
X27850000Y46294752D02*
X27790681Y46297668D01*
X27731924Y46306382D01*
X27674308Y46320815D01*
X27618382Y46340826D01*
X27564686Y46366222D01*
X27513741Y46396757D01*
X27466037Y46432136D01*
X27422027Y46472027D01*
X27382136Y46516037D01*
X27346757Y46563741D01*
X27316222Y46614686D01*
X27290826Y46668382D01*
X27270815Y46724308D01*
X27256382Y46781924D01*
X27247668Y46840681D01*
X27244752Y46900000D01*
X27247668Y46959319D01*
X27256382Y47018076D01*
X27270815Y47075692D01*
X27290826Y47131618D01*
X27316222Y47185314D01*
X27346757Y47236259D01*
X27382136Y47283963D01*
X27422027Y47327973D01*
X27466037Y47367864D01*
X27513741Y47403243D01*
X27564686Y47433778D01*
X27618382Y47459174D01*
X27674308Y47479185D01*
X27731924Y47493618D01*
X27790681Y47502332D01*
X27850000Y47505248D01*
X27909319Y47502332D01*
X27968076Y47493618D01*
X28025692Y47479185D01*
X28081618Y47459174D01*
X28135314Y47433778D01*
X28186259Y47403243D01*
X28233963Y47367864D01*
X28277973Y47327973D01*
X28317864Y47283963D01*
X28353243Y47236259D01*
X28383778Y47185314D01*
X28409174Y47131618D01*
X28429185Y47075692D01*
X28443618Y47018076D01*
X28452332Y46959319D01*
X28455248Y46900000D01*
X28452332Y46840681D01*
X28443618Y46781924D01*
X28429185Y46724308D01*
X28409174Y46668382D01*
X28383778Y46614686D01*
X28353243Y46563741D01*
X28317864Y46516037D01*
X28277973Y46472027D01*
X28233963Y46432136D01*
X28186259Y46396757D01*
X28135314Y46366222D01*
X28081618Y46340826D01*
X28025692Y46320815D01*
X27968076Y46306382D01*
X27909319Y46297668D01*
X27850000Y46294752D01*
D02*
G37*
%LPC*%
G36*
X39000000Y44544752D02*
X38940681Y44547668D01*
X38881924Y44556382D01*
X38824308Y44570815D01*
X38768382Y44590826D01*
X38714686Y44616222D01*
X38663741Y44646757D01*
X38616037Y44682136D01*
X38572027Y44722027D01*
X38532136Y44766037D01*
X38496757Y44813741D01*
X38466222Y44864686D01*
X38440826Y44918382D01*
X38420815Y44974308D01*
X38406382Y45031924D01*
X38397668Y45090681D01*
X38394752Y45150000D01*
X38397668Y45209319D01*
X38406382Y45268076D01*
X38420815Y45325692D01*
X38440826Y45381618D01*
X38466222Y45435314D01*
X38496757Y45486259D01*
X38532136Y45533963D01*
X38572027Y45577973D01*
X38616037Y45617864D01*
X38663741Y45653243D01*
X38714686Y45683778D01*
X38768382Y45709174D01*
X38824308Y45729185D01*
X38881924Y45743618D01*
X38940681Y45752332D01*
X39000000Y45755248D01*
X39059319Y45752332D01*
X39118076Y45743618D01*
X39175692Y45729185D01*
X39231618Y45709174D01*
X39285314Y45683778D01*
X39336259Y45653243D01*
X39383963Y45617864D01*
X39427973Y45577973D01*
X39467864Y45533963D01*
X39503243Y45486259D01*
X39533778Y45435314D01*
X39559174Y45381618D01*
X39579185Y45325692D01*
X39593618Y45268076D01*
X39602332Y45209319D01*
X39605248Y45150000D01*
X39602332Y45090681D01*
X39593618Y45031924D01*
X39579185Y44974308D01*
X39559174Y44918382D01*
X39533778Y44864686D01*
X39503243Y44813741D01*
X39467864Y44766037D01*
X39427973Y44722027D01*
X39383963Y44682136D01*
X39336259Y44646757D01*
X39285314Y44616222D01*
X39231618Y44590826D01*
X39175692Y44570815D01*
X39118076Y44556382D01*
X39059319Y44547668D01*
X39000000Y44544752D01*
D02*
G37*
%LPC*%
G36*
X48500000Y39694752D02*
X48445583Y39697426D01*
X48391672Y39705423D01*
X48338825Y39718660D01*
X48287514Y39737020D01*
X48238256Y39760317D01*
X48191520Y39788329D01*
X48147760Y39820784D01*
X48107381Y39857381D01*
X48070784Y39897760D01*
X48038329Y39941520D01*
X48010317Y39988256D01*
X47987020Y40037514D01*
X47968660Y40088825D01*
X47955423Y40141672D01*
X47947426Y40195583D01*
X47944752Y40250000D01*
X47947426Y40304417D01*
X47955423Y40358328D01*
X47968660Y40411175D01*
X47987020Y40462486D01*
X48010317Y40511744D01*
X48038329Y40558480D01*
X48070784Y40602240D01*
X48107381Y40642619D01*
X48147760Y40679216D01*
X48191520Y40711671D01*
X48238256Y40739683D01*
X48287514Y40762980D01*
X48338825Y40781340D01*
X48391672Y40794577D01*
X48445583Y40802574D01*
X48500000Y40805248D01*
X48554417Y40802574D01*
X48608328Y40794577D01*
X48661175Y40781340D01*
X48712486Y40762980D01*
X48761744Y40739683D01*
X48808480Y40711671D01*
X48852240Y40679216D01*
X48892619Y40642619D01*
X48929216Y40602240D01*
X48961671Y40558480D01*
X48989683Y40511744D01*
X49012980Y40462486D01*
X49031340Y40411175D01*
X49044577Y40358328D01*
X49052574Y40304417D01*
X49055248Y40250000D01*
X49052574Y40195583D01*
X49044577Y40141672D01*
X49031340Y40088825D01*
X49012980Y40037514D01*
X48989683Y39988256D01*
X48961671Y39941520D01*
X48929216Y39897760D01*
X48892619Y39857381D01*
X48852240Y39820784D01*
X48808480Y39788329D01*
X48761744Y39760317D01*
X48712486Y39737020D01*
X48661175Y39718660D01*
X48608328Y39705423D01*
X48554417Y39697426D01*
X48500000Y39694752D01*
D02*
G37*
%LPC*%
G36*
X36500000Y35254764D02*
X36377953Y35260762D01*
X36257065Y35278693D01*
X36138526Y35308385D01*
X36023471Y35349552D01*
X35913002Y35401800D01*
X35808185Y35464625D01*
X35710033Y35537421D01*
X35619486Y35619486D01*
X35537421Y35710033D01*
X35464625Y35808185D01*
X35401800Y35913002D01*
X35349552Y36023471D01*
X35308385Y36138526D01*
X35278693Y36257065D01*
X35260762Y36377953D01*
X35254764Y36500000D01*
X35260762Y36622047D01*
X35278693Y36742935D01*
X35308385Y36861474D01*
X35349552Y36976529D01*
X35401800Y37086998D01*
X35464625Y37191815D01*
X35537421Y37289967D01*
X35619486Y37380514D01*
X35710033Y37462579D01*
X35808185Y37535375D01*
X35913002Y37598200D01*
X36023471Y37650448D01*
X36138526Y37691615D01*
X36257065Y37721307D01*
X36377953Y37739238D01*
X36500000Y37745236D01*
X36622047Y37739238D01*
X36742935Y37721307D01*
X36861474Y37691615D01*
X36976529Y37650448D01*
X37086998Y37598200D01*
X37191815Y37535375D01*
X37289967Y37462579D01*
X37380514Y37380514D01*
X37462579Y37289967D01*
X37535375Y37191815D01*
X37598200Y37086998D01*
X37650448Y36976529D01*
X37691615Y36861474D01*
X37721307Y36742935D01*
X37739238Y36622047D01*
X37745236Y36500000D01*
X37739238Y36377953D01*
X37721307Y36257065D01*
X37691615Y36138526D01*
X37650448Y36023471D01*
X37598200Y35913002D01*
X37535375Y35808185D01*
X37462579Y35710033D01*
X37380514Y35619486D01*
X37289967Y35537421D01*
X37191815Y35464625D01*
X37086998Y35401800D01*
X36976529Y35349552D01*
X36861474Y35308385D01*
X36742935Y35278693D01*
X36622047Y35260762D01*
X36500000Y35254764D01*
D02*
G37*
%LPC*%
G36*
X4500000Y35254764D02*
X4377953Y35260762D01*
X4257065Y35278693D01*
X4138526Y35308385D01*
X4023471Y35349552D01*
X3913002Y35401800D01*
X3808185Y35464625D01*
X3710033Y35537421D01*
X3619486Y35619486D01*
X3537421Y35710033D01*
X3464625Y35808185D01*
X3401800Y35913002D01*
X3349552Y36023471D01*
X3308385Y36138526D01*
X3278693Y36257065D01*
X3260762Y36377953D01*
X3254764Y36500000D01*
X3260762Y36622047D01*
X3278693Y36742935D01*
X3308385Y36861474D01*
X3349552Y36976529D01*
X3401800Y37086998D01*
X3464625Y37191815D01*
X3537421Y37289967D01*
X3619486Y37380514D01*
X3710033Y37462579D01*
X3808185Y37535375D01*
X3913002Y37598200D01*
X4023471Y37650448D01*
X4138526Y37691615D01*
X4257065Y37721307D01*
X4377953Y37739238D01*
X4500000Y37745236D01*
X4622047Y37739238D01*
X4742935Y37721307D01*
X4861474Y37691615D01*
X4976529Y37650448D01*
X5086998Y37598200D01*
X5191815Y37535375D01*
X5289967Y37462579D01*
X5380514Y37380514D01*
X5462579Y37289967D01*
X5535375Y37191815D01*
X5598200Y37086998D01*
X5650448Y36976529D01*
X5691615Y36861474D01*
X5721307Y36742935D01*
X5739238Y36622047D01*
X5745236Y36500000D01*
X5739238Y36377953D01*
X5721307Y36257065D01*
X5691615Y36138526D01*
X5650448Y36023471D01*
X5598200Y35913002D01*
X5535375Y35808185D01*
X5462579Y35710033D01*
X5380514Y35619486D01*
X5289967Y35537421D01*
X5191815Y35464625D01*
X5086998Y35401800D01*
X4976529Y35349552D01*
X4861474Y35308385D01*
X4742935Y35278693D01*
X4622047Y35260762D01*
X4500000Y35254764D01*
D02*
G37*
%LPC*%
G36*
X9500000Y35254764D02*
X9377953Y35260762D01*
X9257065Y35278693D01*
X9138526Y35308385D01*
X9023471Y35349552D01*
X8913002Y35401800D01*
X8808185Y35464625D01*
X8710033Y35537421D01*
X8619486Y35619486D01*
X8537421Y35710033D01*
X8464625Y35808185D01*
X8401800Y35913002D01*
X8349552Y36023471D01*
X8308385Y36138526D01*
X8278693Y36257065D01*
X8260762Y36377953D01*
X8254764Y36500000D01*
X8260762Y36622047D01*
X8278693Y36742935D01*
X8308385Y36861474D01*
X8349552Y36976529D01*
X8401800Y37086998D01*
X8464625Y37191815D01*
X8537421Y37289967D01*
X8619486Y37380514D01*
X8710033Y37462579D01*
X8808185Y37535375D01*
X8913002Y37598200D01*
X9023471Y37650448D01*
X9138526Y37691615D01*
X9257065Y37721307D01*
X9377953Y37739238D01*
X9500000Y37745236D01*
X9622047Y37739238D01*
X9742935Y37721307D01*
X9861474Y37691615D01*
X9976529Y37650448D01*
X10086998Y37598200D01*
X10191815Y37535375D01*
X10289967Y37462579D01*
X10380514Y37380514D01*
X10462579Y37289967D01*
X10535375Y37191815D01*
X10598200Y37086998D01*
X10650448Y36976529D01*
X10691615Y36861474D01*
X10721307Y36742935D01*
X10739238Y36622047D01*
X10745236Y36500000D01*
X10739238Y36377953D01*
X10721307Y36257065D01*
X10691615Y36138526D01*
X10650448Y36023471D01*
X10598200Y35913002D01*
X10535375Y35808185D01*
X10462579Y35710033D01*
X10380514Y35619486D01*
X10289967Y35537421D01*
X10191815Y35464625D01*
X10086998Y35401800D01*
X9976529Y35349552D01*
X9861474Y35308385D01*
X9742935Y35278693D01*
X9622047Y35260762D01*
X9500000Y35254764D01*
D02*
G37*
%LPC*%
G36*
X14500000Y35254764D02*
X14377953Y35260762D01*
X14257065Y35278693D01*
X14138526Y35308385D01*
X14023471Y35349552D01*
X13913002Y35401800D01*
X13808185Y35464625D01*
X13710033Y35537421D01*
X13619486Y35619486D01*
X13537421Y35710033D01*
X13464625Y35808185D01*
X13401800Y35913002D01*
X13349552Y36023471D01*
X13308385Y36138526D01*
X13278693Y36257065D01*
X13260762Y36377953D01*
X13254764Y36500000D01*
X13260762Y36622047D01*
X13278693Y36742935D01*
X13308385Y36861474D01*
X13349552Y36976529D01*
X13401800Y37086998D01*
X13464625Y37191815D01*
X13537421Y37289967D01*
X13619486Y37380514D01*
X13710033Y37462579D01*
X13808185Y37535375D01*
X13913002Y37598200D01*
X14023471Y37650448D01*
X14138526Y37691615D01*
X14257065Y37721307D01*
X14377953Y37739238D01*
X14500000Y37745236D01*
X14622047Y37739238D01*
X14742935Y37721307D01*
X14861474Y37691615D01*
X14976529Y37650448D01*
X15086998Y37598200D01*
X15191815Y37535375D01*
X15289967Y37462579D01*
X15380514Y37380514D01*
X15462579Y37289967D01*
X15535375Y37191815D01*
X15598200Y37086998D01*
X15650448Y36976529D01*
X15691615Y36861474D01*
X15721307Y36742935D01*
X15739238Y36622047D01*
X15745236Y36500000D01*
X15739238Y36377953D01*
X15721307Y36257065D01*
X15691615Y36138526D01*
X15650448Y36023471D01*
X15598200Y35913002D01*
X15535375Y35808185D01*
X15462579Y35710033D01*
X15380514Y35619486D01*
X15289967Y35537421D01*
X15191815Y35464625D01*
X15086998Y35401800D01*
X14976529Y35349552D01*
X14861474Y35308385D01*
X14742935Y35278693D01*
X14622047Y35260762D01*
X14500000Y35254764D01*
D02*
G37*
%LPC*%
G36*
X26500000Y35254764D02*
X26377953Y35260762D01*
X26257065Y35278693D01*
X26138526Y35308385D01*
X26023471Y35349552D01*
X25913002Y35401800D01*
X25808185Y35464625D01*
X25710033Y35537421D01*
X25619486Y35619486D01*
X25537421Y35710033D01*
X25464625Y35808185D01*
X25401800Y35913002D01*
X25349552Y36023471D01*
X25308385Y36138526D01*
X25278693Y36257065D01*
X25260762Y36377953D01*
X25254764Y36500000D01*
X25260762Y36622047D01*
X25278693Y36742935D01*
X25308385Y36861474D01*
X25349552Y36976529D01*
X25401800Y37086998D01*
X25464625Y37191815D01*
X25537421Y37289967D01*
X25619486Y37380514D01*
X25710033Y37462579D01*
X25808185Y37535375D01*
X25913002Y37598200D01*
X26023471Y37650448D01*
X26138526Y37691615D01*
X26257065Y37721307D01*
X26377953Y37739238D01*
X26500000Y37745236D01*
X26622047Y37739238D01*
X26742935Y37721307D01*
X26861474Y37691615D01*
X26976529Y37650448D01*
X27086998Y37598200D01*
X27191815Y37535375D01*
X27289967Y37462579D01*
X27380514Y37380514D01*
X27462579Y37289967D01*
X27535375Y37191815D01*
X27598200Y37086998D01*
X27650448Y36976529D01*
X27691615Y36861474D01*
X27721307Y36742935D01*
X27739238Y36622047D01*
X27745236Y36500000D01*
X27739238Y36377953D01*
X27721307Y36257065D01*
X27691615Y36138526D01*
X27650448Y36023471D01*
X27598200Y35913002D01*
X27535375Y35808185D01*
X27462579Y35710033D01*
X27380514Y35619486D01*
X27289967Y35537421D01*
X27191815Y35464625D01*
X27086998Y35401800D01*
X26976529Y35349552D01*
X26861474Y35308385D01*
X26742935Y35278693D01*
X26622047Y35260762D01*
X26500000Y35254764D01*
D02*
G37*
%LPC*%
G36*
X58500000Y35254764D02*
X58377953Y35260762D01*
X58257065Y35278693D01*
X58138526Y35308385D01*
X58023471Y35349552D01*
X57913002Y35401800D01*
X57808185Y35464625D01*
X57710033Y35537421D01*
X57619486Y35619486D01*
X57537421Y35710033D01*
X57464625Y35808185D01*
X57401800Y35913002D01*
X57349552Y36023471D01*
X57308385Y36138526D01*
X57278693Y36257065D01*
X57260762Y36377953D01*
X57254764Y36500000D01*
X57260762Y36622047D01*
X57278693Y36742935D01*
X57308385Y36861474D01*
X57349552Y36976529D01*
X57401800Y37086998D01*
X57464625Y37191815D01*
X57537421Y37289967D01*
X57619486Y37380514D01*
X57710033Y37462579D01*
X57808185Y37535375D01*
X57913002Y37598200D01*
X58023471Y37650448D01*
X58138526Y37691615D01*
X58257065Y37721307D01*
X58377953Y37739238D01*
X58500000Y37745236D01*
X58622047Y37739238D01*
X58742935Y37721307D01*
X58861474Y37691615D01*
X58976529Y37650448D01*
X59086998Y37598200D01*
X59191815Y37535375D01*
X59289967Y37462579D01*
X59380514Y37380514D01*
X59462579Y37289967D01*
X59535375Y37191815D01*
X59598200Y37086998D01*
X59650448Y36976529D01*
X59691615Y36861474D01*
X59721307Y36742935D01*
X59739238Y36622047D01*
X59745236Y36500000D01*
X59739238Y36377953D01*
X59721307Y36257065D01*
X59691615Y36138526D01*
X59650448Y36023471D01*
X59598200Y35913002D01*
X59535375Y35808185D01*
X59462579Y35710033D01*
X59380514Y35619486D01*
X59289967Y35537421D01*
X59191815Y35464625D01*
X59086998Y35401800D01*
X58976529Y35349552D01*
X58861474Y35308385D01*
X58742935Y35278693D01*
X58622047Y35260762D01*
X58500000Y35254764D01*
D02*
G37*
%LPC*%
G36*
X53500000Y35254764D02*
X53377953Y35260762D01*
X53257065Y35278693D01*
X53138526Y35308385D01*
X53023471Y35349552D01*
X52913002Y35401800D01*
X52808185Y35464625D01*
X52710033Y35537421D01*
X52619486Y35619486D01*
X52537421Y35710033D01*
X52464625Y35808185D01*
X52401800Y35913002D01*
X52349552Y36023471D01*
X52308385Y36138526D01*
X52278693Y36257065D01*
X52260762Y36377953D01*
X52254764Y36500000D01*
X52260762Y36622047D01*
X52278693Y36742935D01*
X52308385Y36861474D01*
X52349552Y36976529D01*
X52401800Y37086998D01*
X52464625Y37191815D01*
X52537421Y37289967D01*
X52619486Y37380514D01*
X52710033Y37462579D01*
X52808185Y37535375D01*
X52913002Y37598200D01*
X53023471Y37650448D01*
X53138526Y37691615D01*
X53257065Y37721307D01*
X53377953Y37739238D01*
X53500000Y37745236D01*
X53622047Y37739238D01*
X53742935Y37721307D01*
X53861474Y37691615D01*
X53976529Y37650448D01*
X54086998Y37598200D01*
X54191815Y37535375D01*
X54289967Y37462579D01*
X54380514Y37380514D01*
X54462579Y37289967D01*
X54535375Y37191815D01*
X54598200Y37086998D01*
X54650448Y36976529D01*
X54691615Y36861474D01*
X54721307Y36742935D01*
X54739238Y36622047D01*
X54745236Y36500000D01*
X54739238Y36377953D01*
X54721307Y36257065D01*
X54691615Y36138526D01*
X54650448Y36023471D01*
X54598200Y35913002D01*
X54535375Y35808185D01*
X54462579Y35710033D01*
X54380514Y35619486D01*
X54289967Y35537421D01*
X54191815Y35464625D01*
X54086998Y35401800D01*
X53976529Y35349552D01*
X53861474Y35308385D01*
X53742935Y35278693D01*
X53622047Y35260762D01*
X53500000Y35254764D01*
D02*
G37*
%LPC*%
G36*
X48500000Y35254764D02*
X48377953Y35260762D01*
X48257065Y35278693D01*
X48138526Y35308385D01*
X48023471Y35349552D01*
X47913002Y35401800D01*
X47808185Y35464625D01*
X47710033Y35537421D01*
X47619486Y35619486D01*
X47537421Y35710033D01*
X47464625Y35808185D01*
X47401800Y35913002D01*
X47349552Y36023471D01*
X47308385Y36138526D01*
X47278693Y36257065D01*
X47260762Y36377953D01*
X47254764Y36500000D01*
X47260762Y36622047D01*
X47278693Y36742935D01*
X47308385Y36861474D01*
X47349552Y36976529D01*
X47401800Y37086998D01*
X47464625Y37191815D01*
X47537421Y37289967D01*
X47619486Y37380514D01*
X47710033Y37462579D01*
X47808185Y37535375D01*
X47913002Y37598200D01*
X48023471Y37650448D01*
X48138526Y37691615D01*
X48257065Y37721307D01*
X48377953Y37739238D01*
X48500000Y37745236D01*
X48622047Y37739238D01*
X48742935Y37721307D01*
X48861474Y37691615D01*
X48976529Y37650448D01*
X49086998Y37598200D01*
X49191815Y37535375D01*
X49289967Y37462579D01*
X49380514Y37380514D01*
X49462579Y37289967D01*
X49535375Y37191815D01*
X49598200Y37086998D01*
X49650448Y36976529D01*
X49691615Y36861474D01*
X49721307Y36742935D01*
X49739238Y36622047D01*
X49745236Y36500000D01*
X49739238Y36377953D01*
X49721307Y36257065D01*
X49691615Y36138526D01*
X49650448Y36023471D01*
X49598200Y35913002D01*
X49535375Y35808185D01*
X49462579Y35710033D01*
X49380514Y35619486D01*
X49289967Y35537421D01*
X49191815Y35464625D01*
X49086998Y35401800D01*
X48976529Y35349552D01*
X48861474Y35308385D01*
X48742935Y35278693D01*
X48622047Y35260762D01*
X48500000Y35254764D01*
D02*
G37*
%LPC*%
G36*
X31500000Y35254764D02*
X31377953Y35260762D01*
X31257065Y35278693D01*
X31138526Y35308385D01*
X31023471Y35349552D01*
X30913002Y35401800D01*
X30808185Y35464625D01*
X30710033Y35537421D01*
X30619486Y35619486D01*
X30537421Y35710033D01*
X30464625Y35808185D01*
X30401800Y35913002D01*
X30349552Y36023471D01*
X30308385Y36138526D01*
X30278693Y36257065D01*
X30260762Y36377953D01*
X30254764Y36500000D01*
X30260762Y36622047D01*
X30278693Y36742935D01*
X30308385Y36861474D01*
X30349552Y36976529D01*
X30401800Y37086998D01*
X30464625Y37191815D01*
X30537421Y37289967D01*
X30619486Y37380514D01*
X30710033Y37462579D01*
X30808185Y37535375D01*
X30913002Y37598200D01*
X31023471Y37650448D01*
X31138526Y37691615D01*
X31257065Y37721307D01*
X31377953Y37739238D01*
X31500000Y37745236D01*
X31622047Y37739238D01*
X31742935Y37721307D01*
X31861474Y37691615D01*
X31976529Y37650448D01*
X32086998Y37598200D01*
X32191815Y37535375D01*
X32289967Y37462579D01*
X32380514Y37380514D01*
X32462579Y37289967D01*
X32535375Y37191815D01*
X32598200Y37086998D01*
X32650448Y36976529D01*
X32691615Y36861474D01*
X32721307Y36742935D01*
X32739238Y36622047D01*
X32745236Y36500000D01*
X32739238Y36377953D01*
X32721307Y36257065D01*
X32691615Y36138526D01*
X32650448Y36023471D01*
X32598200Y35913002D01*
X32535375Y35808185D01*
X32462579Y35710033D01*
X32380514Y35619486D01*
X32289967Y35537421D01*
X32191815Y35464625D01*
X32086998Y35401800D01*
X31976529Y35349552D01*
X31861474Y35308385D01*
X31742935Y35278693D01*
X31622047Y35260762D01*
X31500000Y35254764D01*
D02*
G37*
%LPC*%
G36*
X54477083Y5646027D02*
X54389343Y5650339D01*
X54302427Y5663231D01*
X54217212Y5684576D01*
X54134490Y5714176D01*
X54055073Y5751736D01*
X53979720Y5796901D01*
X53909156Y5849235D01*
X53844057Y5908237D01*
X53785055Y5973336D01*
X53732721Y6043900D01*
X53687556Y6119253D01*
X53649996Y6198670D01*
X53620396Y6281392D01*
X53599051Y6366607D01*
X53586159Y6453523D01*
X53581847Y6541263D01*
X53586159Y6629003D01*
X53599051Y6715919D01*
X53620396Y6801134D01*
X53649996Y6883856D01*
X53687556Y6963273D01*
X53732721Y7038626D01*
X53785055Y7109190D01*
X53844057Y7174289D01*
X53909156Y7233291D01*
X53979720Y7285625D01*
X54055073Y7330790D01*
X54134490Y7368350D01*
X54217212Y7397950D01*
X54302427Y7419295D01*
X54389343Y7432187D01*
X54477083Y7436499D01*
X54564823Y7432187D01*
X54651739Y7419295D01*
X54736954Y7397950D01*
X54819676Y7368350D01*
X54899093Y7330790D01*
X54974446Y7285625D01*
X55045010Y7233291D01*
X55110109Y7174289D01*
X55169111Y7109190D01*
X55221445Y7038626D01*
X55266610Y6963273D01*
X55304170Y6883856D01*
X55333770Y6801134D01*
X55355115Y6715919D01*
X55368007Y6629003D01*
X55372319Y6541263D01*
X55368007Y6453523D01*
X55355115Y6366607D01*
X55333770Y6281392D01*
X55304170Y6198670D01*
X55266610Y6119253D01*
X55221445Y6043900D01*
X55169111Y5973336D01*
X55110109Y5908237D01*
X55045010Y5849235D01*
X54974446Y5796901D01*
X54899093Y5751736D01*
X54819676Y5714176D01*
X54736954Y5684576D01*
X54651739Y5663231D01*
X54564823Y5650339D01*
X54477083Y5646027D01*
D02*
G37*
%LPC*%
G36*
X10477083Y5646027D02*
X10389343Y5650339D01*
X10302427Y5663231D01*
X10217212Y5684576D01*
X10134490Y5714176D01*
X10055073Y5751736D01*
X9979720Y5796901D01*
X9909156Y5849235D01*
X9844057Y5908237D01*
X9785055Y5973336D01*
X9732721Y6043900D01*
X9687556Y6119253D01*
X9649996Y6198670D01*
X9620396Y6281392D01*
X9599051Y6366607D01*
X9586159Y6453523D01*
X9581847Y6541263D01*
X9586159Y6629003D01*
X9599051Y6715919D01*
X9620396Y6801134D01*
X9649996Y6883856D01*
X9687556Y6963273D01*
X9732721Y7038626D01*
X9785055Y7109190D01*
X9844057Y7174289D01*
X9909156Y7233291D01*
X9979720Y7285625D01*
X10055073Y7330790D01*
X10134490Y7368350D01*
X10217212Y7397950D01*
X10302427Y7419295D01*
X10389343Y7432187D01*
X10477083Y7436499D01*
X10564823Y7432187D01*
X10651739Y7419295D01*
X10736954Y7397950D01*
X10819676Y7368350D01*
X10899093Y7330790D01*
X10974446Y7285625D01*
X11045010Y7233291D01*
X11110109Y7174289D01*
X11169111Y7109190D01*
X11221445Y7038626D01*
X11266610Y6963273D01*
X11304170Y6883856D01*
X11333770Y6801134D01*
X11355115Y6715919D01*
X11368007Y6629003D01*
X11372319Y6541263D01*
X11368007Y6453523D01*
X11355115Y6366607D01*
X11333770Y6281392D01*
X11304170Y6198670D01*
X11266610Y6119253D01*
X11221445Y6043900D01*
X11169111Y5973336D01*
X11110109Y5908237D01*
X11045010Y5849235D01*
X10974446Y5796901D01*
X10899093Y5751736D01*
X10819676Y5714176D01*
X10736954Y5684576D01*
X10651739Y5663231D01*
X10564823Y5650339D01*
X10477083Y5646027D01*
D02*
G37*
%LPC*%
G36*
X22502917Y2194501D02*
X22415177Y2198813D01*
X22328261Y2211705D01*
X22243046Y2233050D01*
X22160324Y2262650D01*
X22080907Y2300210D01*
X22005554Y2345375D01*
X21934990Y2397709D01*
X21869891Y2456711D01*
X21810889Y2521810D01*
X21758555Y2592374D01*
X21713390Y2667727D01*
X21675830Y2747144D01*
X21646230Y2829866D01*
X21624885Y2915081D01*
X21611993Y3001997D01*
X21607681Y3089737D01*
X21611993Y3177477D01*
X21624885Y3264393D01*
X21646230Y3349608D01*
X21675830Y3432330D01*
X21713390Y3511747D01*
X21758555Y3587100D01*
X21810889Y3657664D01*
X21869891Y3722763D01*
X21934990Y3781765D01*
X22005554Y3834099D01*
X22080907Y3879264D01*
X22160324Y3916824D01*
X22243046Y3946424D01*
X22328261Y3967769D01*
X22415177Y3980661D01*
X22502917Y3984973D01*
X22590657Y3980661D01*
X22677573Y3967769D01*
X22762788Y3946424D01*
X22845510Y3916824D01*
X22924927Y3879264D01*
X23000280Y3834099D01*
X23070844Y3781765D01*
X23135943Y3722763D01*
X23194945Y3657664D01*
X23247279Y3587100D01*
X23292444Y3511747D01*
X23330004Y3432330D01*
X23359604Y3349608D01*
X23380949Y3264393D01*
X23393841Y3177477D01*
X23398153Y3089737D01*
X23393841Y3001997D01*
X23380949Y2915081D01*
X23359604Y2829866D01*
X23330004Y2747144D01*
X23292444Y2667727D01*
X23247279Y2592374D01*
X23194945Y2521810D01*
X23135943Y2456711D01*
X23070844Y2397709D01*
X23000280Y2345375D01*
X22924927Y2300210D01*
X22845510Y2262650D01*
X22762788Y2233050D01*
X22677573Y2211705D01*
X22590657Y2198813D01*
X22502917Y2194501D01*
D02*
G37*
%LPC*%
G36*
X26502917Y2194501D02*
X26415177Y2198813D01*
X26328261Y2211705D01*
X26243046Y2233050D01*
X26160324Y2262650D01*
X26080907Y2300210D01*
X26005554Y2345375D01*
X25934990Y2397709D01*
X25869891Y2456711D01*
X25810889Y2521810D01*
X25758555Y2592374D01*
X25713390Y2667727D01*
X25675830Y2747144D01*
X25646230Y2829866D01*
X25624885Y2915081D01*
X25611993Y3001997D01*
X25607681Y3089737D01*
X25611993Y3177477D01*
X25624885Y3264393D01*
X25646230Y3349608D01*
X25675830Y3432330D01*
X25713390Y3511747D01*
X25758555Y3587100D01*
X25810889Y3657664D01*
X25869891Y3722763D01*
X25934990Y3781765D01*
X26005554Y3834099D01*
X26080907Y3879264D01*
X26160324Y3916824D01*
X26243046Y3946424D01*
X26328261Y3967769D01*
X26415177Y3980661D01*
X26502917Y3984973D01*
X26590657Y3980661D01*
X26677573Y3967769D01*
X26762788Y3946424D01*
X26845510Y3916824D01*
X26924927Y3879264D01*
X27000280Y3834099D01*
X27070844Y3781765D01*
X27135943Y3722763D01*
X27194945Y3657664D01*
X27247279Y3587100D01*
X27292444Y3511747D01*
X27330004Y3432330D01*
X27359604Y3349608D01*
X27380949Y3264393D01*
X27393841Y3177477D01*
X27398153Y3089737D01*
X27393841Y3001997D01*
X27380949Y2915081D01*
X27359604Y2829866D01*
X27330004Y2747144D01*
X27292444Y2667727D01*
X27247279Y2592374D01*
X27194945Y2521810D01*
X27135943Y2456711D01*
X27070844Y2397709D01*
X27000280Y2345375D01*
X26924927Y2300210D01*
X26845510Y2262650D01*
X26762788Y2233050D01*
X26677573Y2211705D01*
X26590657Y2198813D01*
X26502917Y2194501D01*
D02*
G37*
%LPC*%
G36*
X30502917Y2194501D02*
X30415177Y2198813D01*
X30328261Y2211705D01*
X30243046Y2233050D01*
X30160324Y2262650D01*
X30080907Y2300210D01*
X30005554Y2345375D01*
X29934990Y2397709D01*
X29869891Y2456711D01*
X29810889Y2521810D01*
X29758555Y2592374D01*
X29713390Y2667727D01*
X29675830Y2747144D01*
X29646230Y2829866D01*
X29624885Y2915081D01*
X29611993Y3001997D01*
X29607681Y3089737D01*
X29611993Y3177477D01*
X29624885Y3264393D01*
X29646230Y3349608D01*
X29675830Y3432330D01*
X29713390Y3511747D01*
X29758555Y3587100D01*
X29810889Y3657664D01*
X29869891Y3722763D01*
X29934990Y3781765D01*
X30005554Y3834099D01*
X30080907Y3879264D01*
X30160324Y3916824D01*
X30243046Y3946424D01*
X30328261Y3967769D01*
X30415177Y3980661D01*
X30502917Y3984973D01*
X30590657Y3980661D01*
X30677573Y3967769D01*
X30762788Y3946424D01*
X30845510Y3916824D01*
X30924927Y3879264D01*
X31000280Y3834099D01*
X31070844Y3781765D01*
X31135943Y3722763D01*
X31194945Y3657664D01*
X31247279Y3587100D01*
X31292444Y3511747D01*
X31330004Y3432330D01*
X31359604Y3349608D01*
X31380949Y3264393D01*
X31393841Y3177477D01*
X31398153Y3089737D01*
X31393841Y3001997D01*
X31380949Y2915081D01*
X31359604Y2829866D01*
X31330004Y2747144D01*
X31292444Y2667727D01*
X31247279Y2592374D01*
X31194945Y2521810D01*
X31135943Y2456711D01*
X31070844Y2397709D01*
X31000280Y2345375D01*
X30924927Y2300210D01*
X30845510Y2262650D01*
X30762788Y2233050D01*
X30677573Y2211705D01*
X30590657Y2198813D01*
X30502917Y2194501D01*
D02*
G37*
%LPC*%
G36*
X32502917Y2194501D02*
X32415177Y2198813D01*
X32328261Y2211705D01*
X32243046Y2233050D01*
X32160324Y2262650D01*
X32080907Y2300210D01*
X32005554Y2345375D01*
X31934990Y2397709D01*
X31869891Y2456711D01*
X31810889Y2521810D01*
X31758555Y2592374D01*
X31713390Y2667727D01*
X31675830Y2747144D01*
X31646230Y2829866D01*
X31624885Y2915081D01*
X31611993Y3001997D01*
X31607681Y3089737D01*
X31611993Y3177477D01*
X31624885Y3264393D01*
X31646230Y3349608D01*
X31675830Y3432330D01*
X31713390Y3511747D01*
X31758555Y3587100D01*
X31810889Y3657664D01*
X31869891Y3722763D01*
X31934990Y3781765D01*
X32005554Y3834099D01*
X32080907Y3879264D01*
X32160324Y3916824D01*
X32243046Y3946424D01*
X32328261Y3967769D01*
X32415177Y3980661D01*
X32502917Y3984973D01*
X32590657Y3980661D01*
X32677573Y3967769D01*
X32762788Y3946424D01*
X32845510Y3916824D01*
X32924927Y3879264D01*
X33000280Y3834099D01*
X33070844Y3781765D01*
X33135943Y3722763D01*
X33194945Y3657664D01*
X33247279Y3587100D01*
X33292444Y3511747D01*
X33330004Y3432330D01*
X33359604Y3349608D01*
X33380949Y3264393D01*
X33393841Y3177477D01*
X33398153Y3089737D01*
X33393841Y3001997D01*
X33380949Y2915081D01*
X33359604Y2829866D01*
X33330004Y2747144D01*
X33292444Y2667727D01*
X33247279Y2592374D01*
X33194945Y2521810D01*
X33135943Y2456711D01*
X33070844Y2397709D01*
X33000280Y2345375D01*
X32924927Y2300210D01*
X32845510Y2262650D01*
X32762788Y2233050D01*
X32677573Y2211705D01*
X32590657Y2198813D01*
X32502917Y2194501D01*
D02*
G37*
%LPC*%
G36*
X34502917Y2194501D02*
X34415177Y2198813D01*
X34328261Y2211705D01*
X34243046Y2233050D01*
X34160324Y2262650D01*
X34080907Y2300210D01*
X34005554Y2345375D01*
X33934990Y2397709D01*
X33869891Y2456711D01*
X33810889Y2521810D01*
X33758555Y2592374D01*
X33713390Y2667727D01*
X33675830Y2747144D01*
X33646230Y2829866D01*
X33624885Y2915081D01*
X33611993Y3001997D01*
X33607681Y3089737D01*
X33611993Y3177477D01*
X33624885Y3264393D01*
X33646230Y3349608D01*
X33675830Y3432330D01*
X33713390Y3511747D01*
X33758555Y3587100D01*
X33810889Y3657664D01*
X33869891Y3722763D01*
X33934990Y3781765D01*
X34005554Y3834099D01*
X34080907Y3879264D01*
X34160324Y3916824D01*
X34243046Y3946424D01*
X34328261Y3967769D01*
X34415177Y3980661D01*
X34502917Y3984973D01*
X34590657Y3980661D01*
X34677573Y3967769D01*
X34762788Y3946424D01*
X34845510Y3916824D01*
X34924927Y3879264D01*
X35000280Y3834099D01*
X35070844Y3781765D01*
X35135943Y3722763D01*
X35194945Y3657664D01*
X35247279Y3587100D01*
X35292444Y3511747D01*
X35330004Y3432330D01*
X35359604Y3349608D01*
X35380949Y3264393D01*
X35393841Y3177477D01*
X35398153Y3089737D01*
X35393841Y3001997D01*
X35380949Y2915081D01*
X35359604Y2829866D01*
X35330004Y2747144D01*
X35292444Y2667727D01*
X35247279Y2592374D01*
X35194945Y2521810D01*
X35135943Y2456711D01*
X35070844Y2397709D01*
X35000280Y2345375D01*
X34924927Y2300210D01*
X34845510Y2262650D01*
X34762788Y2233050D01*
X34677573Y2211705D01*
X34590657Y2198813D01*
X34502917Y2194501D01*
D02*
G37*
%LPC*%
G36*
X36502917Y2194501D02*
X36415177Y2198813D01*
X36328261Y2211705D01*
X36243046Y2233050D01*
X36160324Y2262650D01*
X36080907Y2300210D01*
X36005554Y2345375D01*
X35934990Y2397709D01*
X35869891Y2456711D01*
X35810889Y2521810D01*
X35758555Y2592374D01*
X35713390Y2667727D01*
X35675830Y2747144D01*
X35646230Y2829866D01*
X35624885Y2915081D01*
X35611993Y3001997D01*
X35607681Y3089737D01*
X35611993Y3177477D01*
X35624885Y3264393D01*
X35646230Y3349608D01*
X35675830Y3432330D01*
X35713390Y3511747D01*
X35758555Y3587100D01*
X35810889Y3657664D01*
X35869891Y3722763D01*
X35934990Y3781765D01*
X36005554Y3834099D01*
X36080907Y3879264D01*
X36160324Y3916824D01*
X36243046Y3946424D01*
X36328261Y3967769D01*
X36415177Y3980661D01*
X36502917Y3984973D01*
X36590657Y3980661D01*
X36677573Y3967769D01*
X36762788Y3946424D01*
X36845510Y3916824D01*
X36924927Y3879264D01*
X37000280Y3834099D01*
X37070844Y3781765D01*
X37135943Y3722763D01*
X37194945Y3657664D01*
X37247279Y3587100D01*
X37292444Y3511747D01*
X37330004Y3432330D01*
X37359604Y3349608D01*
X37380949Y3264393D01*
X37393841Y3177477D01*
X37398153Y3089737D01*
X37393841Y3001997D01*
X37380949Y2915081D01*
X37359604Y2829866D01*
X37330004Y2747144D01*
X37292444Y2667727D01*
X37247279Y2592374D01*
X37194945Y2521810D01*
X37135943Y2456711D01*
X37070844Y2397709D01*
X37000280Y2345375D01*
X36924927Y2300210D01*
X36845510Y2262650D01*
X36762788Y2233050D01*
X36677573Y2211705D01*
X36590657Y2198813D01*
X36502917Y2194501D01*
D02*
G37*
%LPC*%
G36*
X40502917Y2194501D02*
X40415177Y2198813D01*
X40328261Y2211705D01*
X40243046Y2233050D01*
X40160324Y2262650D01*
X40080907Y2300210D01*
X40005554Y2345375D01*
X39934990Y2397709D01*
X39869891Y2456711D01*
X39810889Y2521810D01*
X39758555Y2592374D01*
X39713390Y2667727D01*
X39675830Y2747144D01*
X39646230Y2829866D01*
X39624885Y2915081D01*
X39611993Y3001997D01*
X39607681Y3089737D01*
X39611993Y3177477D01*
X39624885Y3264393D01*
X39646230Y3349608D01*
X39675830Y3432330D01*
X39713390Y3511747D01*
X39758555Y3587100D01*
X39810889Y3657664D01*
X39869891Y3722763D01*
X39934990Y3781765D01*
X40005554Y3834099D01*
X40080907Y3879264D01*
X40160324Y3916824D01*
X40243046Y3946424D01*
X40328261Y3967769D01*
X40415177Y3980661D01*
X40502917Y3984973D01*
X40590657Y3980661D01*
X40677573Y3967769D01*
X40762788Y3946424D01*
X40845510Y3916824D01*
X40924927Y3879264D01*
X41000280Y3834099D01*
X41070844Y3781765D01*
X41135943Y3722763D01*
X41194945Y3657664D01*
X41247279Y3587100D01*
X41292444Y3511747D01*
X41330004Y3432330D01*
X41359604Y3349608D01*
X41380949Y3264393D01*
X41393841Y3177477D01*
X41398153Y3089737D01*
X41393841Y3001997D01*
X41380949Y2915081D01*
X41359604Y2829866D01*
X41330004Y2747144D01*
X41292444Y2667727D01*
X41247279Y2592374D01*
X41194945Y2521810D01*
X41135943Y2456711D01*
X41070844Y2397709D01*
X41000280Y2345375D01*
X40924927Y2300210D01*
X40845510Y2262650D01*
X40762788Y2233050D01*
X40677573Y2211705D01*
X40590657Y2198813D01*
X40502917Y2194501D01*
D02*
G37*
%LPD*%
G01*
%LPD*%
G75*
D10*
X10477083Y6541263D03*
D10*
X8477083Y6541263D03*
D11*
X4500000Y62500000D03*
D11*
X14500000Y62500000D03*
D11*
X9500000Y62500000D03*
D10*
X54477083Y6541263D03*
D10*
X52477083Y6541263D03*
D11*
X26500000Y36500000D03*
D11*
X36500000Y36500000D03*
D11*
X31500000Y36500000D03*
D11*
X4500000Y36500000D03*
D11*
X14500000Y36500000D03*
D11*
X9500000Y36500000D03*
D12*
X6788845Y57465000D03*
D12*
X6788845Y54925000D03*
D13*
X11313845Y54925000D03*
D13*
X11313845Y57465000D03*
D11*
X48500000Y62500000D03*
D11*
X58500000Y62500000D03*
D11*
X53500000Y62500000D03*
D13*
X23050000Y61150000D03*
D13*
X25550000Y64450000D03*
D13*
X28050000Y64450000D03*
D13*
X23050000Y64450000D03*
D13*
X25550000Y61150000D03*
D13*
X28050000Y61150000D03*
D11*
X48500000Y36500000D03*
D11*
X58500000Y36500000D03*
D11*
X53500000Y36500000D03*
D14*
X24502917Y3089737D03*
D14*
X38502917Y3089737D03*
D14*
X30502917Y3089737D03*
D14*
X28502917Y3089737D03*
D14*
X22502917Y3089737D03*
D14*
X36502917Y3089737D03*
D14*
X26502917Y3089737D03*
D14*
X32502917Y3089737D03*
D14*
X34502917Y3089737D03*
D14*
X40502917Y3089737D03*
D15*
X8625000Y39000000D03*
D15*
X39125000Y7000000D03*
D16*
X1000000Y26200000D03*
D16*
X62000000Y64600000D03*
D16*
X54375000Y71000000D03*
D16*
X46750000Y1000000D03*
D15*
X54375000Y13400000D03*
D15*
X26059000Y16165000D03*
D17*
X24285000Y56700000D03*
D15*
X23875000Y13400000D03*
D15*
X27700000Y45450000D03*
D16*
X1000000Y51800000D03*
D15*
X8000000Y48200000D03*
D16*
X1000000Y32600000D03*
D15*
X39125000Y32600000D03*
D15*
X16250000Y32600000D03*
D15*
X8625000Y13400000D03*
D16*
X62000000Y13400000D03*
D15*
X15950000Y39000000D03*
D15*
X32785000Y46160000D03*
D15*
X23875000Y26200000D03*
D15*
X27210000Y56250000D03*
D16*
X46750000Y71000000D03*
D15*
X28499000Y17805000D03*
D16*
X62000000Y51800000D03*
D15*
X54375000Y32600000D03*
D15*
X34000000Y36400000D03*
D15*
X39125000Y64600000D03*
D16*
X62000000Y1000000D03*
D16*
X8625000Y71000000D03*
D15*
X16250000Y13400000D03*
D16*
X48500000Y40250000D03*
D15*
X15500000Y44900000D03*
D15*
X8625000Y58200000D03*
D17*
X46486155Y52350000D03*
D15*
X54375000Y26200000D03*
D16*
X1000000Y19800000D03*
D16*
X62000000Y7000000D03*
D15*
X45050000Y36100000D03*
D16*
X16250000Y1000000D03*
D15*
X23875000Y7000000D03*
D16*
X62000000Y32600000D03*
D16*
X31500000Y1000000D03*
D16*
X62000000Y45400000D03*
D16*
X1000000Y71000000D03*
D15*
X46750000Y7000000D03*
D15*
X46750000Y26200000D03*
D16*
X39125000Y71000000D03*
D16*
X62000000Y19800000D03*
D16*
X31500000Y71000000D03*
D15*
X14563845Y49850000D03*
D15*
X8625000Y19800000D03*
D16*
X62000000Y26200000D03*
D15*
X46750000Y32600000D03*
D15*
X50950000Y37700000D03*
D15*
X23875000Y19800000D03*
D15*
X39125000Y19800000D03*
D16*
X62000000Y39000000D03*
D15*
X34435000Y48600000D03*
D17*
X19786155Y52390000D03*
D17*
X19786155Y42400000D03*
D16*
X62000000Y58200000D03*
D15*
X52941155Y53290000D03*
D16*
X1000000Y1000000D03*
D16*
X8625000Y1000000D03*
D16*
X1000000Y7000000D03*
D16*
X1000000Y45400000D03*
D15*
X11300000Y45000000D03*
D17*
X33499000Y18765000D03*
D15*
X46750000Y13400000D03*
D18*
X40080000Y54690000D03*
D16*
X1000000Y58200000D03*
D16*
X23875000Y71000000D03*
D15*
X31145000Y48600000D03*
D15*
X37050000Y38650000D03*
D15*
X16250000Y19800000D03*
D15*
X45713845Y54890000D03*
D15*
X28850000Y37550000D03*
D15*
X59305000Y54005000D03*
D15*
X25041155Y48150000D03*
D15*
X34800000Y44200000D03*
D16*
X54375000Y1000000D03*
D16*
X23875000Y1000000D03*
D15*
X38100000Y47550000D03*
D15*
X54375000Y64600000D03*
D15*
X8625000Y32600000D03*
D15*
X16250000Y26200000D03*
D17*
X25341155Y49750000D03*
D15*
X39125000Y13400000D03*
D16*
X1000000Y39000000D03*
D15*
X46650000Y58200000D03*
D15*
X46750000Y64600000D03*
D15*
X28499000Y14515000D03*
D16*
X1000000Y13400000D03*
D15*
X16250000Y7000000D03*
D15*
X9600000Y46700000D03*
D17*
X17800000Y59195000D03*
D15*
X46750000Y19800000D03*
D15*
X8088845Y52720000D03*
D16*
X16250000Y71000000D03*
D18*
X39000000Y45150000D03*
D17*
X38465000Y50900000D03*
D17*
X9938845Y42735000D03*
D15*
X31500000Y32600000D03*
D15*
X39125000Y26200000D03*
D15*
X8625000Y64600000D03*
D16*
X39125000Y1000000D03*
D15*
X59305000Y55830000D03*
D15*
X3200000Y39000000D03*
D15*
X8625000Y26200000D03*
D16*
X62000000Y71000000D03*
D18*
X27850000Y46900000D03*
D15*
X54375000Y19800000D03*
D17*
X53241155Y54890000D03*
D17*
X35025000Y64965000D03*
D16*
X1000000Y64600000D03*
M02*
