%FSLAX46Y46*%
%MOMM*%
%ADD10C,0.300000*%
%ADD12C,0.500000*%
%ADD11C,0.530000*%
%ADD13C,0.800000*%
%AMPS22*
1,1,2.100000,0.000000,0.000000*
%
%ADD22PS22*%
%AMPS38*
1,1,1.600000,0.000000,0.000000*
%
%ADD38PS38*%
%AMPS37*
1,1,1.600000,0.000000,0.000000*
%
%ADD37PS37*%
%AMPS34*
1,1,1.700000,0.000000,0.000000*
%
%ADD34PS34*%
%AMPS31*
1,1,1.700000,0.000000,0.000000*
%
%ADD31PS31*%
%AMPS23*
21,1,0.550000,1.500000,0.000000,0.000000,90.000000*
%
%ADD23PS23*%
%AMPS24*
21,1,0.550000,1.500000,0.000000,0.000000,270.000000*
%
%ADD24PS24*%
%AMPS36*
21,1,1.600000,2.500000,0.000000,0.000000,90.000000*
%
%ADD36PS36*%
%AMPS35*
21,1,1.600000,2.500000,0.000000,0.000000,270.000000*
%
%ADD35PS35*%
%AMPS26*
21,1,0.900000,1.000000,0.000000,0.000000,0.000000*
%
%ADD26PS26*%
%AMPS25*
21,1,0.900000,1.000000,0.000000,0.000000,180.000000*
%
%ADD25PS25*%
%AMPS39*
21,1,1.600000,3.200000,0.000000,0.000000,0.000000*
%
%ADD39PS39*%
%AMPS14*
21,1,1.600000,3.200000,0.000000,0.000000,90.000000*
%
%ADD14PS14*%
%AMPS40*
21,1,1.600000,3.200000,0.000000,0.000000,180.000000*
%
%ADD40PS40*%
%AMPS15*
21,1,1.600000,3.200000,0.000000,0.000000,270.000000*
%
%ADD15PS15*%
%AMPS28*
21,1,0.400000,0.900000,0.000000,0.000000,0.000000*
%
%ADD28PS28*%
%AMPS27*
21,1,0.400000,0.900000,0.000000,0.000000,180.000000*
%
%ADD27PS27*%
%AMPS33*
21,1,1.500000,2.800000,0.000000,0.000000,0.000000*
%
%ADD33PS33*%
%AMPS32*
21,1,1.500000,2.800000,0.000000,0.000000,180.000000*
%
%ADD32PS32*%
%AMPS29*
21,1,1.800000,1.100000,0.000000,0.000000,0.000000*
%
%ADD29PS29*%
%AMPS21*
21,1,1.800000,1.100000,0.000000,0.000000,90.000000*
%
%ADD21PS21*%
%AMPS30*
21,1,1.800000,1.100000,0.000000,0.000000,180.000000*
%
%ADD30PS30*%
%AMPS20*
21,1,1.800000,1.100000,0.000000,0.000000,270.000000*
%
%ADD20PS20*%
%AMPS16*
21,1,1.000000,0.900000,0.000000,0.000000,0.000000*
%
%ADD16PS16*%
%AMPS19*
21,1,1.000000,0.900000,0.000000,0.000000,90.000000*
%
%ADD19PS19*%
%AMPS17*
21,1,1.000000,0.900000,0.000000,0.000000,180.000000*
%
%ADD17PS17*%
%AMPS18*
21,1,1.000000,0.900000,0.000000,0.000000,270.000000*
%
%ADD18PS18*%
%AMPS44*
1,1,1.400000,0.000000,0.000000*
%
%ADD44PS44*%
%AMPS42*
1,1,0.700000,0.000000,0.000000*
%
%ADD42PS42*%
%AMPS43*
1,1,0.900000,0.000000,0.000000*
%
%ADD43PS43*%
%AMPS45*
1,1,1.000000,0.000000,0.000000*
%
%ADD45PS45*%
%AMPS41*
1,1,0.700000,0.000000,0.000000*
%
%ADD41PS41*%
G01*
%LPD*%
G36*
X62640000Y360000D02*
X62640000Y71640000D01*
X360000Y71640000D01*
X360000Y360000D01*
X62640000Y360000D01*
D02*
G37*
%LPC*%
G36*
X17168845Y51910000D02*
X15258845Y51910000D01*
X15258845Y52030748D01*
X15158770Y52061106D01*
X15097223Y52094003D01*
X15043157Y52138371D01*
X15036740Y52146214D01*
X14256214Y52926740D01*
X14248371Y52933157D01*
X14204003Y52987223D01*
X14171106Y53048770D01*
X14150849Y53115548D01*
X14145000Y53174935D01*
X14145000Y54150066D01*
X14150849Y54209451D01*
X14171106Y54276229D01*
X14204003Y54337777D01*
X14247779Y54391122D01*
X14255551Y54397598D01*
X15545000Y55687047D01*
X15545000Y56410000D01*
X15845000Y56410000D01*
X15845000Y56890000D01*
X15545000Y56890000D01*
X15545000Y57747953D01*
X13947953Y59345000D01*
X12289935Y59345000D01*
X12230548Y59350849D01*
X12163770Y59371106D01*
X12102223Y59404003D01*
X12048157Y59448371D01*
X12041740Y59456214D01*
X10100724Y61397229D01*
X9980360Y61340302D01*
X9864378Y61298803D01*
X9744892Y61268874D01*
X9623027Y61250798D01*
X9500000Y61244752D01*
X9376973Y61250798D01*
X9255108Y61268874D01*
X9135622Y61298803D01*
X9019640Y61340302D01*
X8908282Y61392970D01*
X8802623Y61456300D01*
X8703681Y61529681D01*
X8612406Y61612406D01*
X8529681Y61703681D01*
X8456300Y61802623D01*
X8392970Y61908282D01*
X8340302Y62019640D01*
X8295448Y62145000D01*
X5704552Y62145000D01*
X5659698Y62019640D01*
X5607030Y61908282D01*
X5543700Y61802623D01*
X5470319Y61703681D01*
X5387594Y61612406D01*
X5296319Y61529681D01*
X5197377Y61456300D01*
X5091718Y61392970D01*
X4980360Y61340302D01*
X4864378Y61298803D01*
X4744892Y61268874D01*
X4623027Y61250798D01*
X4500000Y61244752D01*
X4376973Y61250798D01*
X4255108Y61268874D01*
X4135622Y61298803D01*
X4019640Y61340302D01*
X3908282Y61392970D01*
X3802623Y61456300D01*
X3703681Y61529681D01*
X3612406Y61612406D01*
X3529681Y61703681D01*
X3456300Y61802623D01*
X3392970Y61908282D01*
X3340302Y62019640D01*
X3298803Y62135622D01*
X3268874Y62255108D01*
X3250798Y62376973D01*
X3244752Y62500000D01*
X3250798Y62623027D01*
X3268874Y62744892D01*
X3298803Y62864378D01*
X3340302Y62980360D01*
X3392970Y63091718D01*
X3456300Y63197377D01*
X3529681Y63296319D01*
X3612406Y63387594D01*
X3703681Y63470319D01*
X3802623Y63543700D01*
X3908282Y63607030D01*
X4019640Y63659698D01*
X4135622Y63701197D01*
X4255108Y63731126D01*
X4376973Y63749202D01*
X4500000Y63755248D01*
X4623027Y63749202D01*
X4744892Y63731126D01*
X4864378Y63701197D01*
X4980360Y63659698D01*
X5091718Y63607030D01*
X5197377Y63543700D01*
X5296319Y63470319D01*
X5387594Y63387594D01*
X5470319Y63296319D01*
X5543700Y63197377D01*
X5607030Y63091718D01*
X5659698Y62980360D01*
X5704552Y62855000D01*
X8295448Y62855000D01*
X8340302Y62980360D01*
X8392970Y63091718D01*
X8456300Y63197377D01*
X8529681Y63296319D01*
X8612406Y63387594D01*
X8703681Y63470319D01*
X8802623Y63543700D01*
X8908282Y63607030D01*
X9019640Y63659698D01*
X9135622Y63701197D01*
X9255108Y63731126D01*
X9376973Y63749202D01*
X9500000Y63755248D01*
X9623027Y63749202D01*
X9744892Y63731126D01*
X9864378Y63701197D01*
X9980360Y63659698D01*
X10100724Y63602771D01*
X13142401Y66644448D01*
X13148877Y66652220D01*
X13202222Y66695996D01*
X13263770Y66728893D01*
X13330548Y66749151D01*
X13389923Y66755000D01*
X23610077Y66755000D01*
X23669451Y66749151D01*
X23736229Y66728893D01*
X23797776Y66695996D01*
X23843897Y66658148D01*
X25134385Y65367662D01*
X25258189Y65411961D01*
X25353884Y65435931D01*
X25451475Y65450406D01*
X25550000Y65455248D01*
X25648525Y65450406D01*
X25746116Y65435931D01*
X25841807Y65411962D01*
X25934696Y65378725D01*
X26023860Y65336555D01*
X26108488Y65285830D01*
X26187723Y65227065D01*
X26260817Y65160817D01*
X26327065Y65087723D01*
X26385830Y65008488D01*
X26436555Y64923860D01*
X26478725Y64834696D01*
X26511962Y64741807D01*
X26535931Y64646116D01*
X26550406Y64548525D01*
X26555248Y64450000D01*
X26550406Y64351475D01*
X26535931Y64253884D01*
X26511961Y64158189D01*
X26467662Y64034385D01*
X27347047Y63155000D01*
X29360077Y63155000D01*
X29419451Y63149151D01*
X29486229Y63128893D01*
X29547776Y63095996D01*
X29593897Y63058148D01*
X31597047Y61055000D01*
X36010077Y61055000D01*
X36069451Y61049151D01*
X36136229Y61028893D01*
X36197776Y60995996D01*
X36243897Y60958148D01*
X39586707Y57615338D01*
X42990382Y54211665D01*
X43102047Y54100000D01*
X45018845Y54100000D01*
X45018845Y53975000D01*
X48281155Y53975000D01*
X48281155Y54100000D01*
X50191155Y54100000D01*
X50191155Y53140000D01*
X48281155Y53140000D01*
X48281155Y53265000D01*
X45018845Y53265000D01*
X45018845Y53140000D01*
X43108845Y53140000D01*
X43108845Y53261166D01*
X43010552Y53270847D01*
X42943770Y53291106D01*
X42882223Y53324003D01*
X42828155Y53368372D01*
X42821738Y53376215D01*
X35852953Y60345000D01*
X31439935Y60345000D01*
X31380548Y60350849D01*
X31313770Y60371106D01*
X31252223Y60404003D01*
X31198157Y60448371D01*
X31191740Y60456214D01*
X29202953Y62445000D01*
X27189935Y62445000D01*
X27130548Y62450849D01*
X27063770Y62471106D01*
X27002223Y62504003D01*
X26948158Y62548370D01*
X26941741Y62556213D01*
X25965615Y63532340D01*
X25841804Y63488037D01*
X25746116Y63464069D01*
X25648525Y63449594D01*
X25550000Y63444752D01*
X25451475Y63449594D01*
X25353884Y63464069D01*
X25258193Y63488038D01*
X25165304Y63521275D01*
X25076140Y63563445D01*
X24991512Y63614170D01*
X24912277Y63672935D01*
X24839183Y63739183D01*
X24772935Y63812277D01*
X24714170Y63891512D01*
X24663445Y63976140D01*
X24621275Y64065304D01*
X24588038Y64158193D01*
X24564069Y64253884D01*
X24549594Y64351475D01*
X24544752Y64450000D01*
X24549594Y64548525D01*
X24564069Y64646116D01*
X24588039Y64741811D01*
X24632338Y64865615D01*
X23452953Y66045000D01*
X13547047Y66045000D01*
X10602771Y63100724D01*
X10659698Y62980360D01*
X10701197Y62864378D01*
X10731126Y62744892D01*
X10749202Y62623027D01*
X10755248Y62500000D01*
X10749202Y62376973D01*
X10731126Y62255108D01*
X10701197Y62135622D01*
X10659698Y62019640D01*
X10602771Y61899276D01*
X12447047Y60055000D01*
X14105077Y60055000D01*
X14164451Y60049151D01*
X14231229Y60028893D01*
X14292776Y59995996D01*
X14338897Y59958148D01*
X15997046Y58300000D01*
X16855000Y58300000D01*
X16855000Y56890000D01*
X16555000Y56890000D01*
X16555000Y56410000D01*
X16855000Y56410000D01*
X16855000Y55000000D01*
X15862047Y55000000D01*
X14855000Y53992953D01*
X14855000Y53332047D01*
X15317047Y52870000D01*
X17168845Y52870000D01*
X17168845Y51910000D01*
D02*
G37*
%LPC*%
G36*
X35375000Y64059753D02*
X35286268Y64064113D01*
X35198388Y64077149D01*
X35112224Y64098731D01*
X35028579Y64128661D01*
X34948263Y64166648D01*
X34872079Y64212310D01*
X34800715Y64265237D01*
X34734896Y64324892D01*
X34703077Y64360000D01*
X34130000Y64360000D01*
X34130000Y64310000D01*
X32720000Y64310000D01*
X32720000Y65620000D01*
X34130000Y65620000D01*
X34130000Y65570000D01*
X34703077Y65570000D01*
X34734896Y65605108D01*
X34800715Y65664763D01*
X34872079Y65717690D01*
X34948263Y65763352D01*
X35028579Y65801339D01*
X35112224Y65831269D01*
X35198388Y65852851D01*
X35286268Y65865887D01*
X35375000Y65870247D01*
X35463732Y65865887D01*
X35551612Y65852851D01*
X35637776Y65831269D01*
X35721421Y65801339D01*
X35801737Y65763352D01*
X35877921Y65717690D01*
X35949285Y65664763D01*
X36015106Y65605106D01*
X36074763Y65539285D01*
X36127690Y65467921D01*
X36173352Y65391737D01*
X36211339Y65311421D01*
X36241269Y65227776D01*
X36262851Y65141612D01*
X36275887Y65053732D01*
X36280247Y64965000D01*
X36275887Y64876268D01*
X36262851Y64788388D01*
X36241269Y64702224D01*
X36211339Y64618579D01*
X36173352Y64538263D01*
X36127690Y64462079D01*
X36074763Y64390715D01*
X36015106Y64324894D01*
X35949285Y64265237D01*
X35877921Y64212310D01*
X35801737Y64166648D01*
X35721421Y64128661D01*
X35637776Y64098731D01*
X35551612Y64077149D01*
X35463732Y64064113D01*
X35375000Y64059753D01*
D02*
G37*
%LPC*%
G36*
X28050000Y63444752D02*
X27951475Y63449594D01*
X27853884Y63464069D01*
X27758193Y63488038D01*
X27665304Y63521275D01*
X27576140Y63563445D01*
X27491512Y63614170D01*
X27412277Y63672935D01*
X27339183Y63739183D01*
X27272935Y63812277D01*
X27214170Y63891512D01*
X27163445Y63976140D01*
X27121275Y64065304D01*
X27088038Y64158193D01*
X27064069Y64253884D01*
X27049594Y64351475D01*
X27044752Y64450000D01*
X27049594Y64548525D01*
X27064069Y64646116D01*
X27088038Y64741807D01*
X27121275Y64834696D01*
X27163445Y64923860D01*
X27214170Y65008488D01*
X27272935Y65087723D01*
X27339183Y65160817D01*
X27412277Y65227065D01*
X27491512Y65285830D01*
X27576140Y65336555D01*
X27665304Y65378725D01*
X27758193Y65411962D01*
X27853884Y65435931D01*
X27951475Y65450406D01*
X28050000Y65455248D01*
X28148525Y65450406D01*
X28246116Y65435931D01*
X28341807Y65411962D01*
X28434696Y65378725D01*
X28523863Y65336553D01*
X28551479Y65320000D01*
X30820000Y65320000D01*
X30820000Y65620000D01*
X32230000Y65620000D01*
X32230000Y64310000D01*
X30820000Y64310000D01*
X30820000Y64610000D01*
X29047386Y64610000D01*
X29055247Y64449991D01*
X29050406Y64351475D01*
X29035931Y64253884D01*
X29011962Y64158193D01*
X28978725Y64065304D01*
X28936555Y63976140D01*
X28885830Y63891512D01*
X28827065Y63812277D01*
X28760817Y63739183D01*
X28687723Y63672935D01*
X28608488Y63614170D01*
X28523860Y63563445D01*
X28434696Y63521275D01*
X28341807Y63488038D01*
X28246116Y63464069D01*
X28148525Y63449594D01*
X28050000Y63444752D01*
D02*
G37*
%LPC*%
G36*
X23050000Y63444752D02*
X22951475Y63449594D01*
X22853884Y63464069D01*
X22758193Y63488038D01*
X22665304Y63521275D01*
X22576140Y63563445D01*
X22491512Y63614170D01*
X22412277Y63672935D01*
X22339183Y63739183D01*
X22272935Y63812277D01*
X22214170Y63891512D01*
X22163445Y63976140D01*
X22121275Y64065304D01*
X22088038Y64158193D01*
X22064069Y64253884D01*
X22049594Y64351475D01*
X22044752Y64450000D01*
X22049594Y64548525D01*
X22064069Y64646116D01*
X22088038Y64741807D01*
X22121275Y64834696D01*
X22163445Y64923860D01*
X22214170Y65008488D01*
X22272935Y65087723D01*
X22339183Y65160817D01*
X22412277Y65227065D01*
X22491512Y65285830D01*
X22576140Y65336555D01*
X22665304Y65378725D01*
X22758193Y65411962D01*
X22853884Y65435931D01*
X22951475Y65450406D01*
X23050000Y65455248D01*
X23148525Y65450406D01*
X23246116Y65435931D01*
X23341807Y65411962D01*
X23434696Y65378725D01*
X23523860Y65336555D01*
X23608488Y65285830D01*
X23687723Y65227065D01*
X23760817Y65160817D01*
X23827065Y65087723D01*
X23885830Y65008488D01*
X23936555Y64923860D01*
X23978725Y64834696D01*
X24011962Y64741807D01*
X24035931Y64646116D01*
X24050406Y64548525D01*
X24055248Y64450000D01*
X24050406Y64351475D01*
X24035931Y64253884D01*
X24011962Y64158193D01*
X23978725Y64065304D01*
X23936555Y63976140D01*
X23885830Y63891512D01*
X23827065Y63812277D01*
X23760817Y63739183D01*
X23687723Y63672935D01*
X23608488Y63614170D01*
X23523860Y63563445D01*
X23434696Y63521275D01*
X23341807Y63488038D01*
X23246116Y63464069D01*
X23148525Y63449594D01*
X23050000Y63444752D01*
D02*
G37*
%LPC*%
G36*
X32230000Y62710000D02*
X30820000Y62710000D01*
X30820000Y64020000D01*
X32230000Y64020000D01*
X32230000Y63720000D01*
X32720000Y63720000D01*
X32720000Y64020000D01*
X34130000Y64020000D01*
X34130000Y62710000D01*
X32720000Y62710000D01*
X32720000Y63010000D01*
X32230000Y63010000D01*
X32230000Y62710000D01*
D02*
G37*
%LPC*%
G36*
X20365000Y56650000D02*
X18955000Y56650000D01*
X18955000Y57960000D01*
X19305000Y57960000D01*
X19305000Y60142953D01*
X17302953Y62145000D01*
X15704552Y62145000D01*
X15659698Y62019640D01*
X15607030Y61908282D01*
X15543700Y61802623D01*
X15470319Y61703681D01*
X15387594Y61612406D01*
X15296319Y61529681D01*
X15197377Y61456300D01*
X15091718Y61392970D01*
X14980360Y61340302D01*
X14864378Y61298803D01*
X14744892Y61268874D01*
X14623027Y61250798D01*
X14500000Y61244752D01*
X14376973Y61250798D01*
X14255108Y61268874D01*
X14135622Y61298803D01*
X14019640Y61340302D01*
X13908282Y61392970D01*
X13802623Y61456300D01*
X13703681Y61529681D01*
X13612406Y61612406D01*
X13529681Y61703681D01*
X13456300Y61802623D01*
X13392970Y61908282D01*
X13340302Y62019640D01*
X13298803Y62135622D01*
X13268874Y62255108D01*
X13250798Y62376973D01*
X13244752Y62500000D01*
X13250798Y62623027D01*
X13268874Y62744892D01*
X13298803Y62864378D01*
X13340302Y62980360D01*
X13392970Y63091718D01*
X13456300Y63197377D01*
X13529681Y63296319D01*
X13612406Y63387594D01*
X13703681Y63470319D01*
X13802623Y63543700D01*
X13908282Y63607030D01*
X14019640Y63659698D01*
X14135622Y63701197D01*
X14255108Y63731126D01*
X14376973Y63749202D01*
X14500000Y63755248D01*
X14623027Y63749202D01*
X14744892Y63731126D01*
X14864378Y63701197D01*
X14980360Y63659698D01*
X15091718Y63607030D01*
X15197377Y63543700D01*
X15296319Y63470319D01*
X15387594Y63387594D01*
X15470319Y63296319D01*
X15543700Y63197377D01*
X15607030Y63091718D01*
X15659698Y62980360D01*
X15704552Y62855000D01*
X17460077Y62855000D01*
X17519451Y62849151D01*
X17586229Y62828893D01*
X17647776Y62795996D01*
X17693897Y62758148D01*
X19918148Y60533897D01*
X19955996Y60487776D01*
X19988893Y60426229D01*
X20009151Y60359451D01*
X20015000Y60300077D01*
X20015000Y57960000D01*
X20365000Y57960000D01*
X20365000Y56650000D01*
D02*
G37*
%LPC*%
G36*
X48500000Y61244752D02*
X48376973Y61250798D01*
X48255108Y61268874D01*
X48135622Y61298803D01*
X48019640Y61340302D01*
X47908282Y61392970D01*
X47802623Y61456300D01*
X47703681Y61529681D01*
X47612406Y61612406D01*
X47529681Y61703681D01*
X47456300Y61802623D01*
X47392970Y61908282D01*
X47340302Y62019640D01*
X47298803Y62135622D01*
X47268874Y62255108D01*
X47250798Y62376973D01*
X47244752Y62500000D01*
X47250798Y62623027D01*
X47268874Y62744892D01*
X47298803Y62864378D01*
X47340302Y62980360D01*
X47392970Y63091718D01*
X47456300Y63197377D01*
X47529681Y63296319D01*
X47612406Y63387594D01*
X47703681Y63470319D01*
X47802623Y63543700D01*
X47908282Y63607030D01*
X48019640Y63659698D01*
X48135622Y63701197D01*
X48255108Y63731126D01*
X48376973Y63749202D01*
X48500000Y63755248D01*
X48623027Y63749202D01*
X48744892Y63731126D01*
X48864378Y63701197D01*
X48980360Y63659698D01*
X49091718Y63607030D01*
X49197377Y63543700D01*
X49296319Y63470319D01*
X49387594Y63387594D01*
X49470319Y63296319D01*
X49543700Y63197377D01*
X49607030Y63091718D01*
X49659698Y62980360D01*
X49701197Y62864378D01*
X49731126Y62744892D01*
X49749202Y62623027D01*
X49755248Y62500000D01*
X49749202Y62376973D01*
X49731126Y62255108D01*
X49701197Y62135622D01*
X49659698Y62019640D01*
X49607030Y61908282D01*
X49543700Y61802623D01*
X49470319Y61703681D01*
X49387594Y61612406D01*
X49296319Y61529681D01*
X49197377Y61456300D01*
X49091718Y61392970D01*
X48980360Y61340302D01*
X48864378Y61298803D01*
X48744892Y61268874D01*
X48623027Y61250798D01*
X48500000Y61244752D01*
D02*
G37*
%LPC*%
G36*
X50191155Y55680000D02*
X48281155Y55680000D01*
X48281155Y55800446D01*
X48175552Y55810847D01*
X48108770Y55831106D01*
X48047223Y55864003D01*
X47993155Y55908372D01*
X47986738Y55916215D01*
X47331214Y56571740D01*
X47323371Y56578157D01*
X47279003Y56632223D01*
X47246106Y56693770D01*
X47225849Y56760548D01*
X47220000Y56819935D01*
X47220000Y58135066D01*
X47225849Y58194451D01*
X47246106Y58261229D01*
X47279003Y58322777D01*
X47322779Y58376122D01*
X47330551Y58382598D01*
X48542401Y59594448D01*
X48548877Y59602220D01*
X48602222Y59645996D01*
X48663770Y59678893D01*
X48730548Y59699151D01*
X48789923Y59705000D01*
X50202953Y59705000D01*
X52397229Y61899276D01*
X52340302Y62019640D01*
X52298803Y62135622D01*
X52268874Y62255108D01*
X52250798Y62376973D01*
X52244752Y62500000D01*
X52250798Y62623027D01*
X52268874Y62744892D01*
X52298803Y62864378D01*
X52340302Y62980360D01*
X52392970Y63091718D01*
X52456300Y63197377D01*
X52529681Y63296319D01*
X52612406Y63387594D01*
X52703681Y63470319D01*
X52802623Y63543700D01*
X52908282Y63607030D01*
X53019640Y63659698D01*
X53135622Y63701197D01*
X53255108Y63731126D01*
X53376973Y63749202D01*
X53500000Y63755248D01*
X53623027Y63749202D01*
X53744892Y63731126D01*
X53864378Y63701197D01*
X53980360Y63659698D01*
X54091718Y63607030D01*
X54197377Y63543700D01*
X54296319Y63470319D01*
X54387594Y63387594D01*
X54470319Y63296319D01*
X54543700Y63197377D01*
X54607030Y63091718D01*
X54659698Y62980360D01*
X54701197Y62864378D01*
X54731126Y62744892D01*
X54749202Y62623027D01*
X54755248Y62500000D01*
X54749202Y62376973D01*
X54731126Y62255108D01*
X54701197Y62135622D01*
X54659698Y62019640D01*
X54607030Y61908282D01*
X54543700Y61802623D01*
X54470319Y61703681D01*
X54387594Y61612406D01*
X54296319Y61529681D01*
X54197377Y61456300D01*
X54091718Y61392970D01*
X53980360Y61340302D01*
X53864378Y61298803D01*
X53744892Y61268874D01*
X53623027Y61250798D01*
X53500000Y61244752D01*
X53376973Y61250798D01*
X53255108Y61268874D01*
X53135622Y61298803D01*
X53019640Y61340302D01*
X52899276Y61397229D01*
X50607598Y59105551D01*
X50601122Y59097779D01*
X50547777Y59054003D01*
X50486229Y59021106D01*
X50419451Y59000849D01*
X50360066Y58995000D01*
X48947047Y58995000D01*
X47930000Y57977953D01*
X47930000Y56977047D01*
X48267047Y56640000D01*
X50191155Y56640000D01*
X50191155Y55680000D01*
D02*
G37*
%LPC*%
G36*
X58500000Y61244752D02*
X58376973Y61250798D01*
X58255108Y61268874D01*
X58135622Y61298803D01*
X58019640Y61340302D01*
X57908282Y61392970D01*
X57802623Y61456300D01*
X57703681Y61529681D01*
X57612406Y61612406D01*
X57529681Y61703681D01*
X57456300Y61802623D01*
X57392970Y61908282D01*
X57340302Y62019640D01*
X57298803Y62135622D01*
X57268874Y62255108D01*
X57250798Y62376973D01*
X57244752Y62500000D01*
X57250798Y62623027D01*
X57268874Y62744892D01*
X57298803Y62864378D01*
X57340302Y62980360D01*
X57392970Y63091718D01*
X57456300Y63197377D01*
X57529681Y63296319D01*
X57612406Y63387594D01*
X57703681Y63470319D01*
X57802623Y63543700D01*
X57908282Y63607030D01*
X58019640Y63659698D01*
X58135622Y63701197D01*
X58255108Y63731126D01*
X58376973Y63749202D01*
X58500000Y63755248D01*
X58623027Y63749202D01*
X58744892Y63731126D01*
X58864378Y63701197D01*
X58980360Y63659698D01*
X59091718Y63607030D01*
X59197377Y63543700D01*
X59296319Y63470319D01*
X59387594Y63387594D01*
X59470319Y63296319D01*
X59543700Y63197377D01*
X59607030Y63091718D01*
X59659698Y62980360D01*
X59701197Y62864378D01*
X59731126Y62744892D01*
X59749202Y62623027D01*
X59755248Y62500000D01*
X59749202Y62376973D01*
X59731126Y62255108D01*
X59701197Y62135622D01*
X59659698Y62019640D01*
X59607030Y61908282D01*
X59543700Y61802623D01*
X59470319Y61703681D01*
X59387594Y61612406D01*
X59296319Y61529681D01*
X59197377Y61456300D01*
X59091718Y61392970D01*
X58980360Y61340302D01*
X58864378Y61298803D01*
X58744892Y61268874D01*
X58623027Y61250798D01*
X58500000Y61244752D01*
D02*
G37*
%LPC*%
G36*
X22900000Y61300000D02*
X22062283Y61300000D01*
X22068978Y61345137D01*
X22092831Y61440359D01*
X22125899Y61532777D01*
X22167864Y61621508D01*
X22218328Y61705700D01*
X22276805Y61784547D01*
X22342723Y61857277D01*
X22415453Y61923195D01*
X22494300Y61981672D01*
X22578492Y62032136D01*
X22667223Y62074101D01*
X22759641Y62107169D01*
X22854863Y62131022D01*
X22900000Y62137717D01*
X22900000Y61300000D01*
D02*
G37*
%LPC*%
G36*
X24037717Y61300000D02*
X23200000Y61300000D01*
X23200000Y62137717D01*
X23245137Y62131022D01*
X23340359Y62107169D01*
X23432777Y62074101D01*
X23521508Y62032136D01*
X23605700Y61981672D01*
X23684547Y61923195D01*
X23757277Y61857277D01*
X23823195Y61784547D01*
X23881672Y61705700D01*
X23932136Y61621508D01*
X23974101Y61532777D01*
X24007169Y61440359D01*
X24031022Y61345137D01*
X24037717Y61300000D01*
D02*
G37*
%LPC*%
G36*
X25400000Y61300000D02*
X24562283Y61300000D01*
X24568978Y61345137D01*
X24592831Y61440359D01*
X24625899Y61532777D01*
X24667864Y61621508D01*
X24718328Y61705700D01*
X24776805Y61784547D01*
X24842723Y61857277D01*
X24915453Y61923195D01*
X24994300Y61981672D01*
X25078492Y62032136D01*
X25167223Y62074101D01*
X25259641Y62107169D01*
X25354863Y62131022D01*
X25400000Y62137717D01*
X25400000Y61300000D01*
D02*
G37*
%LPC*%
G36*
X26537717Y61300000D02*
X25700000Y61300000D01*
X25700000Y62137717D01*
X25745137Y62131022D01*
X25840359Y62107169D01*
X25932777Y62074101D01*
X26021508Y62032136D01*
X26105700Y61981672D01*
X26184547Y61923195D01*
X26257277Y61857277D01*
X26323195Y61784547D01*
X26381672Y61705700D01*
X26432136Y61621508D01*
X26474101Y61532777D01*
X26507169Y61440359D01*
X26531022Y61345137D01*
X26537717Y61300000D01*
D02*
G37*
%LPC*%
G36*
X27900000Y61300000D02*
X27062283Y61300000D01*
X27068978Y61345137D01*
X27092831Y61440359D01*
X27125899Y61532777D01*
X27167864Y61621508D01*
X27218328Y61705700D01*
X27276805Y61784547D01*
X27342723Y61857277D01*
X27415453Y61923195D01*
X27494300Y61981672D01*
X27578492Y62032136D01*
X27667223Y62074101D01*
X27759641Y62107169D01*
X27854863Y62131022D01*
X27900000Y62137717D01*
X27900000Y61300000D01*
D02*
G37*
%LPC*%
G36*
X29037717Y61300000D02*
X28200000Y61300000D01*
X28200000Y62137717D01*
X28245137Y62131022D01*
X28340359Y62107169D01*
X28432777Y62074101D01*
X28521508Y62032136D01*
X28605700Y61981672D01*
X28684547Y61923195D01*
X28757277Y61857277D01*
X28823195Y61784547D01*
X28881672Y61705700D01*
X28932136Y61621508D01*
X28974101Y61532777D01*
X29007169Y61440359D01*
X29031022Y61345137D01*
X29037717Y61300000D01*
D02*
G37*
%LPC*%
G36*
X28200000Y60162283D02*
X28200000Y61000000D01*
X29037717Y61000000D01*
X29031022Y60954863D01*
X29007169Y60859641D01*
X28974101Y60767223D01*
X28932136Y60678492D01*
X28881672Y60594300D01*
X28823195Y60515453D01*
X28757277Y60442723D01*
X28684547Y60376805D01*
X28605700Y60318328D01*
X28521508Y60267864D01*
X28432777Y60225899D01*
X28340359Y60192831D01*
X28245137Y60168978D01*
X28200000Y60162283D01*
D02*
G37*
%LPC*%
G36*
X22900000Y60162283D02*
X22854863Y60168978D01*
X22759641Y60192831D01*
X22667223Y60225899D01*
X22578492Y60267864D01*
X22494300Y60318328D01*
X22415453Y60376805D01*
X22342723Y60442723D01*
X22276805Y60515453D01*
X22218328Y60594300D01*
X22167864Y60678492D01*
X22125899Y60767223D01*
X22092831Y60859641D01*
X22068978Y60954863D01*
X22062283Y61000000D01*
X22900000Y61000000D01*
X22900000Y60162283D01*
D02*
G37*
%LPC*%
G36*
X23200000Y60162283D02*
X23200000Y61000000D01*
X24037717Y61000000D01*
X24031022Y60954863D01*
X24007169Y60859641D01*
X23974101Y60767223D01*
X23932136Y60678492D01*
X23881672Y60594300D01*
X23823195Y60515453D01*
X23757277Y60442723D01*
X23684547Y60376805D01*
X23605700Y60318328D01*
X23521508Y60267864D01*
X23432777Y60225899D01*
X23340359Y60192831D01*
X23245137Y60168978D01*
X23200000Y60162283D01*
D02*
G37*
%LPC*%
G36*
X25400000Y60162283D02*
X25354863Y60168978D01*
X25259641Y60192831D01*
X25167223Y60225899D01*
X25078492Y60267864D01*
X24994300Y60318328D01*
X24915453Y60376805D01*
X24842723Y60442723D01*
X24776805Y60515453D01*
X24718328Y60594300D01*
X24667864Y60678492D01*
X24625899Y60767223D01*
X24592831Y60859641D01*
X24568978Y60954863D01*
X24562283Y61000000D01*
X25400000Y61000000D01*
X25400000Y60162283D01*
D02*
G37*
%LPC*%
G36*
X25700000Y60162283D02*
X25700000Y61000000D01*
X26537717Y61000000D01*
X26531022Y60954863D01*
X26507169Y60859641D01*
X26474101Y60767223D01*
X26432136Y60678492D01*
X26381672Y60594300D01*
X26323195Y60515453D01*
X26257277Y60442723D01*
X26184547Y60376805D01*
X26105700Y60318328D01*
X26021508Y60267864D01*
X25932777Y60225899D01*
X25840359Y60192831D01*
X25745137Y60168978D01*
X25700000Y60162283D01*
D02*
G37*
%LPC*%
G36*
X27900000Y60162283D02*
X27854863Y60168978D01*
X27759641Y60192831D01*
X27667223Y60225899D01*
X27578492Y60267864D01*
X27494300Y60318328D01*
X27415453Y60376805D01*
X27342723Y60442723D01*
X27276805Y60515453D01*
X27218328Y60594300D01*
X27167864Y60678492D01*
X27125899Y60767223D01*
X27092831Y60859641D01*
X27068978Y60954863D01*
X27062283Y61000000D01*
X27900000Y61000000D01*
X27900000Y60162283D01*
D02*
G37*
%LPC*%
G36*
X18455000Y56890000D02*
X17145000Y56890000D01*
X17145000Y58300000D01*
X17195000Y58300000D01*
X17195000Y58873077D01*
X17159892Y58904896D01*
X17100237Y58970715D01*
X17047310Y59042079D01*
X17001648Y59118263D01*
X16963661Y59198579D01*
X16933731Y59282224D01*
X16912149Y59368388D01*
X16899113Y59456268D01*
X16894753Y59545000D01*
X16899113Y59633732D01*
X16912149Y59721612D01*
X16933731Y59807776D01*
X16963661Y59891421D01*
X17001648Y59971737D01*
X17047310Y60047921D01*
X17100237Y60119285D01*
X17159894Y60185106D01*
X17225715Y60244763D01*
X17297079Y60297690D01*
X17373263Y60343352D01*
X17453579Y60381339D01*
X17537224Y60411269D01*
X17623388Y60432851D01*
X17711268Y60445887D01*
X17800000Y60450247D01*
X17888732Y60445887D01*
X17976612Y60432851D01*
X18062776Y60411269D01*
X18146421Y60381339D01*
X18226737Y60343352D01*
X18302921Y60297690D01*
X18374285Y60244763D01*
X18440106Y60185106D01*
X18499763Y60119285D01*
X18552690Y60047921D01*
X18598352Y59971737D01*
X18636339Y59891421D01*
X18666269Y59807776D01*
X18687851Y59721612D01*
X18700887Y59633732D01*
X18705247Y59545000D01*
X18700887Y59456268D01*
X18687851Y59368388D01*
X18666269Y59282224D01*
X18636339Y59198579D01*
X18598352Y59118263D01*
X18552690Y59042079D01*
X18499763Y58970715D01*
X18440108Y58904896D01*
X18405000Y58873077D01*
X18405000Y58300000D01*
X18455000Y58300000D01*
X18455000Y56890000D01*
D02*
G37*
%LPC*%
G36*
X57135000Y55825000D02*
X55225000Y55825000D01*
X55225000Y57075000D01*
X50145000Y57075000D01*
X50145000Y56950000D01*
X48235000Y56950000D01*
X48235000Y57910000D01*
X50145000Y57910000D01*
X50145000Y57785000D01*
X55225000Y57785000D01*
X55225000Y59035000D01*
X57135000Y59035000D01*
X57135000Y57785000D01*
X59900000Y57785000D01*
X59900000Y58085000D01*
X61310000Y58085000D01*
X61310000Y56775000D01*
X59900000Y56775000D01*
X59900000Y57075000D01*
X57135000Y57075000D01*
X57135000Y55825000D01*
D02*
G37*
%LPC*%
G36*
X40735000Y52120000D02*
X39425000Y52120000D01*
X39425000Y52470000D01*
X37564935Y52470000D01*
X37505548Y52475849D01*
X37438770Y52496106D01*
X37377223Y52529003D01*
X37323157Y52573371D01*
X37316740Y52581214D01*
X31752953Y58145000D01*
X23147047Y58145000D01*
X20462598Y55460551D01*
X20456122Y55452780D01*
X20365000Y55378003D01*
X20365000Y55050000D01*
X18955000Y55050000D01*
X18955000Y55350000D01*
X18455000Y55350000D01*
X18455000Y55000000D01*
X18165670Y55000000D01*
X18128893Y54878769D01*
X18095996Y54817222D01*
X18052220Y54763877D01*
X18044448Y54757401D01*
X17168845Y53881798D01*
X17168845Y53180000D01*
X15258845Y53180000D01*
X15258845Y54140000D01*
X16422953Y54140000D01*
X17145000Y54862047D01*
X17145000Y56410000D01*
X18455000Y56410000D01*
X18455000Y56060000D01*
X18955000Y56060000D01*
X18955000Y56360000D01*
X20357953Y56360000D01*
X22742401Y58744448D01*
X22748877Y58752220D01*
X22802222Y58795996D01*
X22863770Y58828893D01*
X22930548Y58849151D01*
X22989923Y58855000D01*
X31910077Y58855000D01*
X31969451Y58849151D01*
X32036229Y58828893D01*
X32097776Y58795996D01*
X32143897Y58758148D01*
X37722047Y53180000D01*
X39425000Y53180000D01*
X39425000Y53530000D01*
X39725000Y53530000D01*
X39725000Y54138483D01*
X39664319Y54183485D01*
X39616670Y54226670D01*
X39573488Y54274316D01*
X39535182Y54325966D01*
X39502123Y54381122D01*
X39474634Y54439243D01*
X39452968Y54499790D01*
X39437345Y54562167D01*
X39427909Y54625774D01*
X39424753Y54690000D01*
X39427909Y54754226D01*
X39437345Y54817833D01*
X39452968Y54880210D01*
X39474634Y54940757D01*
X39502123Y54998878D01*
X39535182Y55054034D01*
X39573488Y55105684D01*
X39616670Y55153330D01*
X39664316Y55196512D01*
X39715966Y55234818D01*
X39771122Y55267877D01*
X39829243Y55295366D01*
X39889790Y55317032D01*
X39952167Y55332655D01*
X40015774Y55342091D01*
X40080000Y55345247D01*
X40144226Y55342091D01*
X40207833Y55332655D01*
X40270210Y55317032D01*
X40330757Y55295366D01*
X40388878Y55267877D01*
X40444034Y55234818D01*
X40495684Y55196512D01*
X40543330Y55153330D01*
X40586512Y55105684D01*
X40624818Y55054034D01*
X40657877Y54998878D01*
X40685366Y54940757D01*
X40707032Y54880210D01*
X40722655Y54817833D01*
X40732091Y54754226D01*
X40735247Y54690000D01*
X40732091Y54625774D01*
X40722655Y54562167D01*
X40707032Y54499790D01*
X40685366Y54439243D01*
X40657877Y54381122D01*
X40624818Y54325966D01*
X40586512Y54274316D01*
X40543330Y54226670D01*
X40495681Y54183485D01*
X40435000Y54138483D01*
X40435000Y53530000D01*
X40735000Y53530000D01*
X40735000Y52120000D01*
D02*
G37*
%LPC*%
G36*
X12301562Y57615000D02*
X11463845Y57615000D01*
X11463845Y58452717D01*
X11508982Y58446022D01*
X11604204Y58422169D01*
X11696622Y58389101D01*
X11785353Y58347136D01*
X11869545Y58296672D01*
X11948392Y58238195D01*
X12021122Y58172277D01*
X12087040Y58099547D01*
X12145517Y58020700D01*
X12195981Y57936508D01*
X12237946Y57847777D01*
X12271014Y57755359D01*
X12294867Y57660137D01*
X12301562Y57615000D01*
D02*
G37*
%LPC*%
G36*
X11163845Y57615000D02*
X10326128Y57615000D01*
X10332823Y57660137D01*
X10356676Y57755359D01*
X10389744Y57847777D01*
X10431709Y57936508D01*
X10482173Y58020700D01*
X10540650Y58099547D01*
X10606568Y58172277D01*
X10679298Y58238195D01*
X10758145Y58296672D01*
X10842337Y58347136D01*
X10931068Y58389101D01*
X11023486Y58422169D01*
X11118708Y58446022D01*
X11163845Y58452717D01*
X11163845Y57615000D01*
D02*
G37*
%LPC*%
G36*
X7776562Y57615000D02*
X6938845Y57615000D01*
X6938845Y58452717D01*
X6983982Y58446022D01*
X7079204Y58422169D01*
X7171622Y58389101D01*
X7260353Y58347136D01*
X7344545Y58296672D01*
X7423392Y58238195D01*
X7496122Y58172277D01*
X7562040Y58099547D01*
X7620517Y58020700D01*
X7670981Y57936508D01*
X7712946Y57847777D01*
X7746014Y57755359D01*
X7769867Y57660137D01*
X7776562Y57615000D01*
D02*
G37*
%LPC*%
G36*
X6638845Y57615000D02*
X5801128Y57615000D01*
X5807823Y57660137D01*
X5831676Y57755359D01*
X5864744Y57847777D01*
X5906709Y57936508D01*
X5957173Y58020700D01*
X6015650Y58099547D01*
X6081568Y58172277D01*
X6154298Y58238195D01*
X6233145Y58296672D01*
X6317337Y58347136D01*
X6406068Y58389101D01*
X6498486Y58422169D01*
X6593708Y58446022D01*
X6638845Y58452717D01*
X6638845Y57615000D01*
D02*
G37*
%LPC*%
G36*
X45018845Y55680000D02*
X43108845Y55680000D01*
X43108845Y56640000D01*
X43708845Y56640000D01*
X43708845Y56950000D01*
X43108845Y56950000D01*
X43108845Y57910000D01*
X45018845Y57910000D01*
X45018845Y56950000D01*
X44418845Y56950000D01*
X44418845Y56640000D01*
X45018845Y56640000D01*
X45018845Y55680000D01*
D02*
G37*
%LPC*%
G36*
X25390000Y54045000D02*
X23180000Y54045000D01*
X23180000Y55555000D01*
X23680000Y55555000D01*
X23680000Y56028077D01*
X23644892Y56059896D01*
X23585237Y56125715D01*
X23532310Y56197079D01*
X23486648Y56273263D01*
X23448661Y56353579D01*
X23418731Y56437224D01*
X23397149Y56523388D01*
X23384113Y56611268D01*
X23379753Y56700000D01*
X23384113Y56788732D01*
X23397149Y56876612D01*
X23418731Y56962776D01*
X23448661Y57046421D01*
X23486648Y57126737D01*
X23532310Y57202921D01*
X23585237Y57274285D01*
X23644894Y57340106D01*
X23710715Y57399763D01*
X23782079Y57452690D01*
X23858263Y57498352D01*
X23938579Y57536339D01*
X24022224Y57566269D01*
X24108388Y57587851D01*
X24196268Y57600887D01*
X24285000Y57605247D01*
X24373732Y57600887D01*
X24461612Y57587851D01*
X24547776Y57566269D01*
X24631421Y57536339D01*
X24711737Y57498352D01*
X24787921Y57452690D01*
X24859285Y57399763D01*
X24925106Y57340106D01*
X24984763Y57274285D01*
X25037690Y57202921D01*
X25083352Y57126737D01*
X25121339Y57046421D01*
X25151269Y56962776D01*
X25172851Y56876612D01*
X25185887Y56788732D01*
X25190247Y56700000D01*
X25185887Y56611268D01*
X25172851Y56523388D01*
X25151269Y56437224D01*
X25121339Y56353579D01*
X25083352Y56273263D01*
X25037690Y56197079D01*
X24984763Y56125715D01*
X24925108Y56059896D01*
X24890000Y56028077D01*
X24890000Y55555000D01*
X25390000Y55555000D01*
X25390000Y54045000D01*
D02*
G37*
%LPC*%
G36*
X6638845Y56477283D02*
X6593708Y56483978D01*
X6498486Y56507831D01*
X6406068Y56540899D01*
X6317337Y56582864D01*
X6233145Y56633328D01*
X6154298Y56691805D01*
X6081568Y56757723D01*
X6015650Y56830453D01*
X5957173Y56909300D01*
X5906709Y56993492D01*
X5864744Y57082223D01*
X5831676Y57174641D01*
X5807823Y57269863D01*
X5801128Y57315000D01*
X6638845Y57315000D01*
X6638845Y56477283D01*
D02*
G37*
%LPC*%
G36*
X6938845Y56477283D02*
X6938845Y57315000D01*
X7776562Y57315000D01*
X7769867Y57269863D01*
X7746014Y57174641D01*
X7712946Y57082223D01*
X7670981Y56993492D01*
X7620517Y56909300D01*
X7562040Y56830453D01*
X7496122Y56757723D01*
X7423392Y56691805D01*
X7344545Y56633328D01*
X7260353Y56582864D01*
X7171622Y56540899D01*
X7079204Y56507831D01*
X6983982Y56483978D01*
X6938845Y56477283D01*
D02*
G37*
%LPC*%
G36*
X11163845Y56477283D02*
X11118708Y56483978D01*
X11023486Y56507831D01*
X10931068Y56540899D01*
X10842337Y56582864D01*
X10758145Y56633328D01*
X10679298Y56691805D01*
X10606568Y56757723D01*
X10540650Y56830453D01*
X10482173Y56909300D01*
X10431709Y56993492D01*
X10389744Y57082223D01*
X10356676Y57174641D01*
X10332823Y57269863D01*
X10326128Y57315000D01*
X11163845Y57315000D01*
X11163845Y56477283D01*
D02*
G37*
%LPC*%
G36*
X11463845Y56477283D02*
X11463845Y57315000D01*
X12301562Y57315000D01*
X12294867Y57269863D01*
X12271014Y57174641D01*
X12237946Y57082223D01*
X12195981Y56993492D01*
X12145517Y56909300D01*
X12087040Y56830453D01*
X12021122Y56757723D01*
X11948392Y56691805D01*
X11869545Y56633328D01*
X11785353Y56582864D01*
X11696622Y56540899D01*
X11604204Y56507831D01*
X11508982Y56483978D01*
X11463845Y56477283D01*
D02*
G37*
%LPC*%
G36*
X61305000Y55980000D02*
X60755000Y55980000D01*
X60755000Y56480000D01*
X61305000Y56480000D01*
X61305000Y55980000D01*
D02*
G37*
%LPC*%
G36*
X60455000Y55980000D02*
X59905000Y55980000D01*
X59905000Y56480000D01*
X60455000Y56480000D01*
X60455000Y55980000D01*
D02*
G37*
%LPC*%
G36*
X12018845Y52065000D02*
X10608845Y52065000D01*
X10608845Y53375000D01*
X10958845Y53375000D01*
X10958845Y53982231D01*
X10839981Y54038448D01*
X10755357Y54089170D01*
X10676122Y54147935D01*
X10603028Y54214183D01*
X10536780Y54287277D01*
X10478015Y54366512D01*
X10427293Y54451136D01*
X10371076Y54570000D01*
X7731614Y54570000D01*
X7675397Y54451136D01*
X7624675Y54366512D01*
X7565910Y54287277D01*
X7499662Y54214183D01*
X7426568Y54147935D01*
X7347333Y54089170D01*
X7262705Y54038445D01*
X7173541Y53996275D01*
X7080652Y53963038D01*
X6984961Y53939069D01*
X6887370Y53924594D01*
X6788845Y53919752D01*
X6690320Y53924594D01*
X6592729Y53939069D01*
X6497038Y53963038D01*
X6404149Y53996275D01*
X6314985Y54038445D01*
X6230357Y54089170D01*
X6151122Y54147935D01*
X6078028Y54214183D01*
X6011780Y54287277D01*
X5953015Y54366512D01*
X5902290Y54451140D01*
X5860120Y54540304D01*
X5826883Y54633193D01*
X5802914Y54728884D01*
X5788439Y54826475D01*
X5783597Y54925000D01*
X5788439Y55023525D01*
X5802914Y55121116D01*
X5826883Y55216807D01*
X5860120Y55309696D01*
X5902290Y55398860D01*
X5953015Y55483488D01*
X6011780Y55562723D01*
X6078028Y55635817D01*
X6151122Y55702065D01*
X6230357Y55760830D01*
X6314985Y55811555D01*
X6404149Y55853725D01*
X6497038Y55886962D01*
X6592729Y55910931D01*
X6690320Y55925406D01*
X6788845Y55930248D01*
X6887370Y55925406D01*
X6984961Y55910931D01*
X7080652Y55886962D01*
X7173541Y55853725D01*
X7262705Y55811555D01*
X7347333Y55760830D01*
X7426568Y55702065D01*
X7499662Y55635817D01*
X7565910Y55562723D01*
X7624675Y55483488D01*
X7675397Y55398864D01*
X7731614Y55280000D01*
X10371076Y55280000D01*
X10427293Y55398864D01*
X10478015Y55483488D01*
X10536780Y55562723D01*
X10603028Y55635817D01*
X10676122Y55702065D01*
X10755357Y55760830D01*
X10839985Y55811555D01*
X10929149Y55853725D01*
X11022038Y55886962D01*
X11117729Y55910931D01*
X11215320Y55925406D01*
X11313845Y55930248D01*
X11412370Y55925406D01*
X11509961Y55910931D01*
X11605652Y55886962D01*
X11698541Y55853725D01*
X11787705Y55811555D01*
X11872333Y55760830D01*
X11951568Y55702065D01*
X12024662Y55635817D01*
X12090910Y55562723D01*
X12149675Y55483488D01*
X12200400Y55398860D01*
X12242570Y55309696D01*
X12275807Y55216807D01*
X12299776Y55121116D01*
X12314251Y55023525D01*
X12319093Y54925000D01*
X12314251Y54826475D01*
X12299776Y54728884D01*
X12275807Y54633193D01*
X12242570Y54540304D01*
X12200400Y54451140D01*
X12149675Y54366512D01*
X12090910Y54287277D01*
X12024662Y54214183D01*
X11951568Y54147935D01*
X11872333Y54089170D01*
X11787709Y54038448D01*
X11668845Y53982231D01*
X11668845Y53375000D01*
X12018845Y53375000D01*
X12018845Y53075000D01*
X12488845Y53075000D01*
X12488845Y53375000D01*
X13898845Y53375000D01*
X13898845Y52065000D01*
X12488845Y52065000D01*
X12488845Y52365000D01*
X12018845Y52365000D01*
X12018845Y52065000D01*
D02*
G37*
%LPC*%
G36*
X53591155Y53984753D02*
X53502423Y53989113D01*
X53414543Y54002149D01*
X53328379Y54023731D01*
X53244734Y54053661D01*
X53164418Y54091648D01*
X53088234Y54137310D01*
X53016870Y54190237D01*
X52951051Y54249892D01*
X52919232Y54285000D01*
X52346155Y54285000D01*
X52346155Y54235000D01*
X50936155Y54235000D01*
X50936155Y54420000D01*
X50191155Y54420000D01*
X50191155Y54410000D01*
X48281155Y54410000D01*
X48281155Y55370000D01*
X50191155Y55370000D01*
X50191155Y55360000D01*
X50936155Y55360000D01*
X50936155Y55545000D01*
X52346155Y55545000D01*
X52346155Y55495000D01*
X52919232Y55495000D01*
X52951051Y55530108D01*
X53016870Y55589763D01*
X53088234Y55642690D01*
X53164418Y55688352D01*
X53244734Y55726339D01*
X53328379Y55756269D01*
X53414543Y55777851D01*
X53502423Y55790887D01*
X53591155Y55795247D01*
X53679887Y55790887D01*
X53767767Y55777851D01*
X53853931Y55756269D01*
X53937576Y55726339D01*
X54017892Y55688352D01*
X54094076Y55642690D01*
X54165440Y55589763D01*
X54231261Y55530106D01*
X54290918Y55464285D01*
X54343845Y55392921D01*
X54389507Y55316737D01*
X54427494Y55236421D01*
X54457424Y55152776D01*
X54479006Y55066612D01*
X54492042Y54978732D01*
X54496402Y54890000D01*
X54492042Y54801268D01*
X54479006Y54713388D01*
X54457424Y54627224D01*
X54427494Y54543579D01*
X54389507Y54463263D01*
X54343845Y54387079D01*
X54290918Y54315715D01*
X54231261Y54249894D01*
X54165440Y54190237D01*
X54094076Y54137310D01*
X54017892Y54091648D01*
X53937576Y54053661D01*
X53853931Y54023731D01*
X53767767Y54002149D01*
X53679887Y53989113D01*
X53591155Y53984753D01*
D02*
G37*
%LPC*%
G36*
X61305000Y55180000D02*
X60755000Y55180000D01*
X60755000Y55680000D01*
X61305000Y55680000D01*
X61305000Y55180000D01*
D02*
G37*
%LPC*%
G36*
X60455000Y55180000D02*
X59905000Y55180000D01*
X59905000Y55680000D01*
X60455000Y55680000D01*
X60455000Y55180000D01*
D02*
G37*
%LPC*%
G36*
X28310000Y54950000D02*
X27360000Y54950000D01*
X27360000Y55550000D01*
X28310000Y55550000D01*
X28310000Y54950000D01*
D02*
G37*
%LPC*%
G36*
X27060000Y54950000D02*
X26110000Y54950000D01*
X26110000Y55550000D01*
X27060000Y55550000D01*
X27060000Y54950000D01*
D02*
G37*
%LPC*%
G36*
X22341155Y50640000D02*
X20431155Y50640000D01*
X20431155Y51600000D01*
X22345319Y51600000D01*
X22871086Y52125767D01*
X22877558Y52133533D01*
X22948331Y52191616D01*
X23029759Y52235140D01*
X23180000Y52280715D01*
X23180000Y52555000D01*
X25390000Y52555000D01*
X25390000Y52405000D01*
X26105000Y52405000D01*
X26105000Y52555000D01*
X28315000Y52555000D01*
X28315000Y52405000D01*
X30734401Y52405000D01*
X31780000Y53450598D01*
X31780000Y55405000D01*
X33790000Y55405000D01*
X33790000Y51795000D01*
X31835599Y51795000D01*
X31419371Y51378772D01*
X31412902Y51371009D01*
X31321669Y51296135D01*
X31216904Y51240137D01*
X31103224Y51205652D01*
X30995065Y51195000D01*
X28315000Y51195000D01*
X28315000Y51045000D01*
X26105000Y51045000D01*
X26105000Y51195000D01*
X25390000Y51195000D01*
X25390000Y51045000D01*
X23119681Y51045000D01*
X22868913Y50794232D01*
X22862441Y50786466D01*
X22791668Y50728383D01*
X22710240Y50684859D01*
X22621885Y50658057D01*
X22540066Y50650000D01*
X22341155Y50650000D01*
X22341155Y50640000D01*
D02*
G37*
%LPC*%
G36*
X45013845Y55040000D02*
X44213845Y55040000D01*
X44213845Y55365000D01*
X45013845Y55365000D01*
X45013845Y55040000D01*
D02*
G37*
%LPC*%
G36*
X43913845Y55040000D02*
X43113845Y55040000D01*
X43113845Y55365000D01*
X43913845Y55365000D01*
X43913845Y55040000D01*
D02*
G37*
%LPC*%
G36*
X43913845Y54415000D02*
X43113845Y54415000D01*
X43113845Y54740000D01*
X43913845Y54740000D01*
X43913845Y54415000D01*
D02*
G37*
%LPC*%
G36*
X45013845Y54415000D02*
X44213845Y54415000D01*
X44213845Y54740000D01*
X45013845Y54740000D01*
X45013845Y54415000D01*
D02*
G37*
%LPC*%
G36*
X60455000Y54155000D02*
X59905000Y54155000D01*
X59905000Y54655000D01*
X60455000Y54655000D01*
X60455000Y54155000D01*
D02*
G37*
%LPC*%
G36*
X61305000Y54155000D02*
X60755000Y54155000D01*
X60755000Y54655000D01*
X61305000Y54655000D01*
X61305000Y54155000D01*
D02*
G37*
%LPC*%
G36*
X27060000Y54050000D02*
X26110000Y54050000D01*
X26110000Y54650000D01*
X27060000Y54650000D01*
X27060000Y54050000D01*
D02*
G37*
%LPC*%
G36*
X28310000Y54050000D02*
X27360000Y54050000D01*
X27360000Y54650000D01*
X28310000Y54650000D01*
X28310000Y54050000D01*
D02*
G37*
%LPC*%
G36*
X61310000Y49955000D02*
X59900000Y49955000D01*
X59900000Y51265000D01*
X60250000Y51265000D01*
X60250000Y51750000D01*
X59900000Y51750000D01*
X59900000Y52050000D01*
X57135000Y52050000D01*
X57135000Y51125002D01*
X55225000Y51125002D01*
X55225000Y54335002D01*
X57135000Y54335002D01*
X57135000Y52760000D01*
X59900000Y52760000D01*
X59900000Y53060000D01*
X61310000Y53060000D01*
X61310000Y51750000D01*
X60960000Y51750000D01*
X60960000Y51265000D01*
X61310000Y51265000D01*
X61310000Y49955000D01*
D02*
G37*
%LPC*%
G36*
X19236155Y51484753D02*
X19147423Y51489113D01*
X19059543Y51502149D01*
X18973379Y51523731D01*
X18889734Y51553661D01*
X18809418Y51591648D01*
X18733234Y51637310D01*
X18661870Y51690237D01*
X18596049Y51749894D01*
X18536392Y51815715D01*
X18483465Y51887079D01*
X18437803Y51963263D01*
X18399816Y52043579D01*
X18369886Y52127224D01*
X18348304Y52213388D01*
X18335268Y52301268D01*
X18330908Y52390000D01*
X18335268Y52478732D01*
X18348304Y52566612D01*
X18369886Y52652776D01*
X18399816Y52736421D01*
X18437803Y52816737D01*
X18483465Y52892921D01*
X18536392Y52964285D01*
X18596049Y53030106D01*
X18661870Y53089763D01*
X18733234Y53142690D01*
X18809418Y53188352D01*
X18889734Y53226339D01*
X18973379Y53256269D01*
X19059543Y53277851D01*
X19147423Y53290887D01*
X19236155Y53295247D01*
X19324887Y53290887D01*
X19412767Y53277851D01*
X19498931Y53256269D01*
X19582576Y53226339D01*
X19662892Y53188352D01*
X19739076Y53142690D01*
X19810440Y53089763D01*
X19876261Y53030106D01*
X19935918Y52964285D01*
X20013261Y52860000D01*
X20431155Y52860000D01*
X20431155Y52870000D01*
X20931155Y52870000D01*
X20931155Y53180000D01*
X20431155Y53180000D01*
X20431155Y54140000D01*
X22341155Y54140000D01*
X22341155Y53180000D01*
X21841155Y53180000D01*
X21841155Y52870000D01*
X22341155Y52870000D01*
X22341155Y51910000D01*
X20431155Y51910000D01*
X20431155Y51920000D01*
X20013261Y51920000D01*
X19935918Y51815715D01*
X19876261Y51749894D01*
X19810440Y51690237D01*
X19739076Y51637310D01*
X19662892Y51591648D01*
X19582576Y51553661D01*
X19498931Y51523731D01*
X19412767Y51502149D01*
X19324887Y51489113D01*
X19236155Y51484753D01*
D02*
G37*
%LPC*%
G36*
X52341155Y53440000D02*
X51791155Y53440000D01*
X51791155Y53940000D01*
X52341155Y53940000D01*
X52341155Y53440000D01*
D02*
G37*
%LPC*%
G36*
X51491155Y53440000D02*
X50941155Y53440000D01*
X50941155Y53940000D01*
X51491155Y53940000D01*
X51491155Y53440000D01*
D02*
G37*
%LPC*%
G36*
X60455000Y53355000D02*
X59905000Y53355000D01*
X59905000Y53855000D01*
X60455000Y53855000D01*
X60455000Y53355000D01*
D02*
G37*
%LPC*%
G36*
X61305000Y53355000D02*
X60755000Y53355000D01*
X60755000Y53855000D01*
X61305000Y53855000D01*
X61305000Y53355000D01*
D02*
G37*
%LPC*%
G36*
X42320000Y50195000D02*
X41010000Y50195000D01*
X41010000Y51605000D01*
X41325000Y51605000D01*
X41325000Y52120000D01*
X41025000Y52120000D01*
X41025000Y53530000D01*
X42335000Y53530000D01*
X42335000Y52120000D01*
X42035000Y52120000D01*
X42035000Y51605000D01*
X42320000Y51605000D01*
X42320000Y51435000D01*
X43108845Y51435000D01*
X43108845Y51560000D01*
X45018845Y51560000D01*
X45018845Y51435000D01*
X48281155Y51435000D01*
X48281155Y51560000D01*
X50191155Y51560000D01*
X50191155Y50600000D01*
X48281155Y50600000D01*
X48281155Y50725000D01*
X45018845Y50725000D01*
X45018845Y50600000D01*
X43108845Y50600000D01*
X43108845Y50725000D01*
X42320000Y50725000D01*
X42320000Y50195000D01*
D02*
G37*
%LPC*%
G36*
X9238845Y52870000D02*
X8688845Y52870000D01*
X8688845Y53370000D01*
X9238845Y53370000D01*
X9238845Y52870000D01*
D02*
G37*
%LPC*%
G36*
X10088845Y52870000D02*
X9538845Y52870000D01*
X9538845Y53370000D01*
X10088845Y53370000D01*
X10088845Y52870000D01*
D02*
G37*
%LPC*%
G36*
X51491155Y52640000D02*
X50941155Y52640000D01*
X50941155Y53140000D01*
X51491155Y53140000D01*
X51491155Y52640000D01*
D02*
G37*
%LPC*%
G36*
X52341155Y52640000D02*
X51791155Y52640000D01*
X51791155Y53140000D01*
X52341155Y53140000D01*
X52341155Y52640000D01*
D02*
G37*
%LPC*%
G36*
X46486155Y51644752D02*
X46417038Y51648148D01*
X46348560Y51658307D01*
X46281439Y51675118D01*
X46216269Y51698438D01*
X46153706Y51728027D01*
X46094334Y51763614D01*
X46038754Y51804834D01*
X45955821Y51880000D01*
X45018845Y51880000D01*
X45018845Y51870000D01*
X43108845Y51870000D01*
X43108845Y52830000D01*
X45018845Y52830000D01*
X45018845Y52820000D01*
X45955821Y52820000D01*
X46038754Y52895166D01*
X46094334Y52936386D01*
X46153706Y52971973D01*
X46216269Y53001562D01*
X46281439Y53024882D01*
X46348560Y53041693D01*
X46417038Y53051852D01*
X46486155Y53055248D01*
X46555272Y53051852D01*
X46623750Y53041693D01*
X46690871Y53024882D01*
X46756041Y53001562D01*
X46818604Y52971973D01*
X46877976Y52936386D01*
X46933556Y52895166D01*
X47016489Y52820000D01*
X48281155Y52820000D01*
X48281155Y52830000D01*
X50191155Y52830000D01*
X50191155Y51870000D01*
X48281155Y51870000D01*
X48281155Y51880000D01*
X47016489Y51880000D01*
X46933556Y51804834D01*
X46877976Y51763614D01*
X46818604Y51728027D01*
X46756041Y51698438D01*
X46690871Y51675118D01*
X46623750Y51658307D01*
X46555272Y51648148D01*
X46486155Y51644752D01*
D02*
G37*
%LPC*%
G36*
X10088845Y52070000D02*
X9538845Y52070000D01*
X9538845Y52570000D01*
X10088845Y52570000D01*
X10088845Y52070000D01*
D02*
G37*
%LPC*%
G36*
X9238845Y52070000D02*
X8688845Y52070000D01*
X8688845Y52570000D01*
X9238845Y52570000D01*
X9238845Y52070000D01*
D02*
G37*
%LPC*%
G36*
X38115000Y49994753D02*
X38026268Y49999113D01*
X37938388Y50012149D01*
X37852224Y50033731D01*
X37768579Y50063661D01*
X37688263Y50101648D01*
X37612079Y50147310D01*
X37540715Y50200237D01*
X37474894Y50259894D01*
X37415237Y50325715D01*
X37362310Y50397079D01*
X37316648Y50473263D01*
X37278661Y50553579D01*
X37248731Y50637224D01*
X37227149Y50723388D01*
X37214113Y50811268D01*
X37209753Y50900000D01*
X37214113Y50988732D01*
X37227149Y51076612D01*
X37248731Y51162776D01*
X37278661Y51246421D01*
X37316648Y51326737D01*
X37362310Y51402921D01*
X37415237Y51474285D01*
X37474894Y51540106D01*
X37540715Y51599763D01*
X37612079Y51652690D01*
X37688263Y51698352D01*
X37768579Y51736339D01*
X37852224Y51766269D01*
X37938388Y51787851D01*
X38026268Y51800887D01*
X38115000Y51805247D01*
X38203732Y51800887D01*
X38291612Y51787851D01*
X38377776Y51766269D01*
X38461421Y51736339D01*
X38541737Y51698352D01*
X38617921Y51652690D01*
X38689285Y51599763D01*
X38755104Y51540108D01*
X38786923Y51505000D01*
X39410000Y51505000D01*
X39410000Y51605000D01*
X40720000Y51605000D01*
X40720000Y50195000D01*
X39410000Y50195000D01*
X39410000Y50295000D01*
X38786923Y50295000D01*
X38755104Y50259892D01*
X38689285Y50200237D01*
X38617921Y50147310D01*
X38541737Y50101648D01*
X38461421Y50063661D01*
X38377776Y50033731D01*
X38291612Y50012149D01*
X38203732Y49999113D01*
X38115000Y49994753D01*
D02*
G37*
%LPC*%
G36*
X20249000Y2184753D02*
X20145567Y2189835D01*
X20043127Y2205031D01*
X19942680Y2230191D01*
X19845180Y2265078D01*
X19751554Y2309358D01*
X19662742Y2362591D01*
X19579556Y2424286D01*
X19502828Y2493828D01*
X19433286Y2570556D01*
X19371591Y2653742D01*
X19318358Y2742554D01*
X19274078Y2836180D01*
X19239191Y2933680D01*
X19214031Y3034127D01*
X19198835Y3136567D01*
X19193753Y3240000D01*
X19198835Y3343433D01*
X19214031Y3445873D01*
X19239191Y3546320D01*
X19274078Y3643820D01*
X19318358Y3737446D01*
X19371591Y3826258D01*
X19433286Y3909444D01*
X19502828Y3986172D01*
X19579556Y4055714D01*
X19662742Y4117409D01*
X19751554Y4170642D01*
X19894000Y4238012D01*
X19894000Y17403953D01*
X1756215Y35541738D01*
X1748372Y35548155D01*
X1704003Y35602223D01*
X1671106Y35663770D01*
X1650849Y35730548D01*
X1645000Y35789935D01*
X1645000Y43741221D01*
X1650849Y43800606D01*
X1671106Y43867384D01*
X1704003Y43928932D01*
X1747779Y43982277D01*
X1755551Y43988753D01*
X8683845Y50917047D01*
X8683845Y51775000D01*
X10093845Y51775000D01*
X10093845Y51475000D01*
X10608845Y51475000D01*
X10608845Y51775000D01*
X12018845Y51775000D01*
X12018845Y50465000D01*
X10608845Y50465000D01*
X10608845Y50765000D01*
X10093845Y50765000D01*
X10093845Y50465000D01*
X9235892Y50465000D01*
X2355000Y43584108D01*
X2355000Y35947047D01*
X20507148Y17794897D01*
X20544996Y17748776D01*
X20577893Y17687229D01*
X20598151Y17620451D01*
X20604000Y17561077D01*
X20604000Y4238012D01*
X20746446Y4170642D01*
X20835258Y4117409D01*
X20918444Y4055714D01*
X20995172Y3986172D01*
X21064714Y3909444D01*
X21126409Y3826258D01*
X21179642Y3737446D01*
X21223922Y3643820D01*
X21258809Y3546320D01*
X21283969Y3445873D01*
X21299165Y3343433D01*
X21304247Y3240000D01*
X21299165Y3136567D01*
X21283969Y3034127D01*
X21258809Y2933680D01*
X21223922Y2836180D01*
X21179642Y2742554D01*
X21126409Y2653742D01*
X21064714Y2570556D01*
X20995172Y2493828D01*
X20918444Y2424286D01*
X20835258Y2362591D01*
X20746446Y2309358D01*
X20652820Y2265078D01*
X20555320Y2230191D01*
X20454873Y2205031D01*
X20352433Y2189835D01*
X20249000Y2184753D01*
D02*
G37*
%LPC*%
G36*
X4500000Y35244752D02*
X4376973Y35250798D01*
X4255108Y35268874D01*
X4135622Y35298803D01*
X4019640Y35340302D01*
X3908282Y35392970D01*
X3802623Y35456300D01*
X3703681Y35529681D01*
X3612406Y35612406D01*
X3529681Y35703681D01*
X3456300Y35802623D01*
X3392970Y35908282D01*
X3340302Y36019640D01*
X3298803Y36135622D01*
X3268874Y36255108D01*
X3250798Y36376973D01*
X3244752Y36500000D01*
X3250798Y36623027D01*
X3268874Y36744892D01*
X3298803Y36864378D01*
X3340302Y36980360D01*
X3392970Y37091718D01*
X3456300Y37197377D01*
X3529681Y37296319D01*
X3612406Y37387594D01*
X3703681Y37470319D01*
X3802623Y37543700D01*
X3908282Y37607030D01*
X4019640Y37659698D01*
X4145000Y37704552D01*
X4145000Y43010066D01*
X4150849Y43069451D01*
X4171106Y43136229D01*
X4204003Y43197777D01*
X4247779Y43251122D01*
X4255551Y43257598D01*
X10742401Y49744448D01*
X10748877Y49752220D01*
X10802222Y49795996D01*
X10863770Y49828893D01*
X10930548Y49849151D01*
X10989923Y49855000D01*
X11777953Y49855000D01*
X12488845Y50565892D01*
X12488845Y51775000D01*
X13898845Y51775000D01*
X13898845Y51475000D01*
X15258845Y51475000D01*
X15258845Y51600000D01*
X17168845Y51600000D01*
X17168845Y50640000D01*
X15258845Y50640000D01*
X15258845Y50765000D01*
X13898845Y50765000D01*
X13898845Y50465000D01*
X13392047Y50465000D01*
X12182598Y49255551D01*
X12176122Y49247779D01*
X12122777Y49204003D01*
X12061229Y49171106D01*
X11994451Y49150849D01*
X11935066Y49145000D01*
X11147047Y49145000D01*
X4855000Y42852953D01*
X4855000Y37704552D01*
X4980360Y37659698D01*
X5091718Y37607030D01*
X5197377Y37543700D01*
X5296319Y37470319D01*
X5387594Y37387594D01*
X5470319Y37296319D01*
X5543700Y37197377D01*
X5607030Y37091718D01*
X5659698Y36980360D01*
X5701197Y36864378D01*
X5731126Y36744892D01*
X5749202Y36623027D01*
X5755248Y36500000D01*
X5749202Y36376973D01*
X5731126Y36255108D01*
X5701197Y36135622D01*
X5659698Y36019640D01*
X5607030Y35908282D01*
X5543700Y35802623D01*
X5470319Y35703681D01*
X5387594Y35612406D01*
X5296319Y35529681D01*
X5197377Y35456300D01*
X5091718Y35392970D01*
X4980360Y35340302D01*
X4864378Y35298803D01*
X4744892Y35268874D01*
X4623027Y35250798D01*
X4500000Y35244752D01*
D02*
G37*
%LPC*%
G36*
X25541155Y48844753D02*
X25452423Y48849113D01*
X25364543Y48862149D01*
X25278379Y48883731D01*
X25194734Y48913661D01*
X25114418Y48951648D01*
X25038234Y48997310D01*
X24966870Y49050237D01*
X24901051Y49109892D01*
X24869232Y49145000D01*
X24446155Y49145000D01*
X24446155Y49095000D01*
X23036155Y49095000D01*
X23036155Y49380000D01*
X22341155Y49380000D01*
X22341155Y49370000D01*
X20431155Y49370000D01*
X20431155Y50330000D01*
X22341155Y50330000D01*
X22341155Y50320000D01*
X23036155Y50320000D01*
X23036155Y50405000D01*
X24446155Y50405000D01*
X24446155Y50355000D01*
X24869232Y50355000D01*
X24901051Y50390108D01*
X24966870Y50449763D01*
X25038234Y50502690D01*
X25114418Y50548352D01*
X25194734Y50586339D01*
X25278379Y50616269D01*
X25364543Y50637851D01*
X25452423Y50650887D01*
X25541155Y50655247D01*
X25629887Y50650887D01*
X25717767Y50637851D01*
X25803931Y50616269D01*
X25887576Y50586339D01*
X25967892Y50548352D01*
X26044076Y50502690D01*
X26115440Y50449763D01*
X26181261Y50390106D01*
X26240918Y50324285D01*
X26293845Y50252921D01*
X26339507Y50176737D01*
X26377494Y50096421D01*
X26407424Y50012776D01*
X26429006Y49926612D01*
X26442042Y49838732D01*
X26446402Y49750000D01*
X26442042Y49661268D01*
X26429006Y49573388D01*
X26407424Y49487224D01*
X26377494Y49403579D01*
X26339507Y49323263D01*
X26293845Y49247079D01*
X26240918Y49175715D01*
X26181261Y49109894D01*
X26115440Y49050237D01*
X26044076Y48997310D01*
X25967892Y48951648D01*
X25887576Y48913661D01*
X25803931Y48883731D01*
X25717767Y48862149D01*
X25629887Y48849113D01*
X25541155Y48844753D01*
D02*
G37*
%LPC*%
G36*
X32635000Y48750000D02*
X31785000Y48750000D01*
X31785000Y50400000D01*
X32635000Y50400000D01*
X32635000Y48750000D01*
D02*
G37*
%LPC*%
G36*
X33785000Y48750000D02*
X32935000Y48750000D01*
X32935000Y50400000D01*
X33785000Y50400000D01*
X33785000Y48750000D01*
D02*
G37*
%LPC*%
G36*
X17163845Y50000000D02*
X16363845Y50000000D01*
X16363845Y50325000D01*
X17163845Y50325000D01*
X17163845Y50000000D01*
D02*
G37*
%LPC*%
G36*
X16063845Y50000000D02*
X15263845Y50000000D01*
X15263845Y50325000D01*
X16063845Y50325000D01*
X16063845Y50000000D01*
D02*
G37*
%LPC*%
G36*
X50191155Y49330000D02*
X48281155Y49330000D01*
X48281155Y50290000D01*
X50191155Y50290000D01*
X50191155Y49330000D01*
D02*
G37*
%LPC*%
G36*
X45018845Y49330000D02*
X43108845Y49330000D01*
X43108845Y50290000D01*
X45018845Y50290000D01*
X45018845Y49330000D01*
D02*
G37*
%LPC*%
G36*
X17163845Y49375000D02*
X16363845Y49375000D01*
X16363845Y49700000D01*
X17163845Y49700000D01*
X17163845Y49375000D01*
D02*
G37*
%LPC*%
G36*
X16063845Y49375000D02*
X15263845Y49375000D01*
X15263845Y49700000D01*
X16063845Y49700000D01*
X16063845Y49375000D01*
D02*
G37*
%LPC*%
G36*
X42749000Y2184753D02*
X42645567Y2189835D01*
X42543127Y2205031D01*
X42442680Y2230191D01*
X42345180Y2265078D01*
X42251554Y2309358D01*
X42162742Y2362591D01*
X42079556Y2424286D01*
X42002828Y2493828D01*
X41933286Y2570556D01*
X41871591Y2653742D01*
X41818358Y2742554D01*
X41774078Y2836180D01*
X41739191Y2933680D01*
X41714031Y3034127D01*
X41698835Y3136567D01*
X41693753Y3240000D01*
X41698835Y3343433D01*
X41714031Y3445873D01*
X41739191Y3546320D01*
X41774078Y3643820D01*
X41818358Y3737446D01*
X41871591Y3826258D01*
X41933286Y3909444D01*
X42002828Y3986172D01*
X42079556Y4055714D01*
X42162742Y4117409D01*
X42251554Y4170642D01*
X42394000Y4238012D01*
X42394000Y17559066D01*
X42399849Y17618451D01*
X42420106Y17685229D01*
X42453003Y17746777D01*
X42496779Y17800122D01*
X42504551Y17806598D01*
X60595000Y35897047D01*
X60595000Y48355000D01*
X59900000Y48355000D01*
X59900000Y49665000D01*
X61310000Y49665000D01*
X61310000Y48355000D01*
X61305000Y48355000D01*
X61305000Y35739923D01*
X61299151Y35680548D01*
X61278893Y35613770D01*
X61245996Y35552222D01*
X61202220Y35498877D01*
X61194448Y35492401D01*
X43104000Y17401953D01*
X43104000Y4238012D01*
X43246446Y4170642D01*
X43335258Y4117409D01*
X43418444Y4055714D01*
X43495172Y3986172D01*
X43564714Y3909444D01*
X43626409Y3826258D01*
X43679642Y3737446D01*
X43723922Y3643820D01*
X43758809Y3546320D01*
X43783969Y3445873D01*
X43799165Y3343433D01*
X43804247Y3240000D01*
X43799165Y3136567D01*
X43783969Y3034127D01*
X43758809Y2933680D01*
X43723922Y2836180D01*
X43679642Y2742554D01*
X43626409Y2653742D01*
X43564714Y2570556D01*
X43495172Y2493828D01*
X43418444Y2424286D01*
X43335258Y2362591D01*
X43246446Y2309358D01*
X43152820Y2265078D01*
X43055320Y2230191D01*
X42954873Y2205031D01*
X42852433Y2189835D01*
X42749000Y2184753D01*
D02*
G37*
%LPC*%
G36*
X25891155Y43295000D02*
X24581155Y43295000D01*
X24581155Y43645000D01*
X24016155Y43645000D01*
X24016155Y43345000D01*
X22606155Y43345000D01*
X22606155Y43645000D01*
X22091155Y43645000D01*
X22091155Y43345000D01*
X20681155Y43345000D01*
X20681155Y43916798D01*
X19426215Y45171738D01*
X19418372Y45178155D01*
X19374003Y45232223D01*
X19341106Y45293770D01*
X19320849Y45360548D01*
X19315000Y45419935D01*
X19315000Y47775066D01*
X19320849Y47834451D01*
X19341106Y47901229D01*
X19374003Y47962777D01*
X19417779Y48016122D01*
X19425551Y48022598D01*
X20227401Y48824448D01*
X20233877Y48832220D01*
X20287222Y48875996D01*
X20348769Y48908893D01*
X20431155Y48933886D01*
X20431155Y49060000D01*
X22341155Y49060000D01*
X22341155Y48100000D01*
X20507047Y48100000D01*
X20320510Y47913463D01*
X20329574Y47891581D01*
X20307692Y47900645D01*
X20025000Y47617953D01*
X20025000Y45577047D01*
X20947047Y44655000D01*
X22091155Y44655000D01*
X22091155Y44355000D01*
X22606155Y44355000D01*
X22606155Y44655000D01*
X24016155Y44655000D01*
X24016155Y44355000D01*
X24581155Y44355000D01*
X24581155Y44705000D01*
X25891155Y44705000D01*
X25891155Y43295000D01*
D02*
G37*
%LPC*%
G36*
X9500000Y35244752D02*
X9376973Y35250798D01*
X9255108Y35268874D01*
X9135622Y35298803D01*
X9019640Y35340302D01*
X8908282Y35392970D01*
X8802623Y35456300D01*
X8703681Y35529681D01*
X8612406Y35612406D01*
X8529681Y35703681D01*
X8456300Y35802623D01*
X8392970Y35908282D01*
X8340302Y36019640D01*
X8298803Y36135622D01*
X8268874Y36255108D01*
X8250798Y36376973D01*
X8244752Y36500000D01*
X8250798Y36623027D01*
X8268874Y36744892D01*
X8298803Y36864378D01*
X8340302Y36980360D01*
X8392970Y37091718D01*
X8456300Y37197377D01*
X8529681Y37296319D01*
X8612406Y37387594D01*
X8703681Y37470319D01*
X8802623Y37543700D01*
X8908282Y37607030D01*
X9019640Y37659698D01*
X9145000Y37704552D01*
X9145000Y39352953D01*
X7506215Y40991738D01*
X7498372Y40998155D01*
X7454003Y41052223D01*
X7421106Y41113770D01*
X7400849Y41180548D01*
X7395000Y41239935D01*
X7395000Y43325066D01*
X7400849Y43384451D01*
X7421106Y43451229D01*
X7454003Y43512777D01*
X7497779Y43566122D01*
X7505551Y43572598D01*
X12757401Y48824448D01*
X12763877Y48832220D01*
X12817222Y48875996D01*
X12878770Y48908893D01*
X12945548Y48929151D01*
X13004923Y48935000D01*
X15258845Y48935000D01*
X15258845Y49060000D01*
X17168845Y49060000D01*
X17168845Y48100000D01*
X15258845Y48100000D01*
X15258845Y48225000D01*
X13162047Y48225000D01*
X8105000Y43167953D01*
X8105000Y41397047D01*
X9758148Y39743897D01*
X9795996Y39697776D01*
X9828893Y39636229D01*
X9849151Y39569451D01*
X9855000Y39510077D01*
X9855000Y37704552D01*
X9980360Y37659698D01*
X10091718Y37607030D01*
X10197377Y37543700D01*
X10296319Y37470319D01*
X10387594Y37387594D01*
X10470319Y37296319D01*
X10543700Y37197377D01*
X10607030Y37091718D01*
X10659698Y36980360D01*
X10701197Y36864378D01*
X10731126Y36744892D01*
X10749202Y36623027D01*
X10755248Y36500000D01*
X10749202Y36376973D01*
X10731126Y36255108D01*
X10701197Y36135622D01*
X10659698Y36019640D01*
X10607030Y35908282D01*
X10543700Y35802623D01*
X10470319Y35703681D01*
X10387594Y35612406D01*
X10296319Y35529681D01*
X10197377Y35456300D01*
X10091718Y35392970D01*
X9980360Y35340302D01*
X9864378Y35298803D01*
X9744892Y35268874D01*
X9623027Y35250798D01*
X9500000Y35244752D01*
D02*
G37*
%LPC*%
G36*
X31251155Y41095000D02*
X29941155Y41095000D01*
X29941155Y42505000D01*
X31251155Y42505000D01*
X31251155Y42155000D01*
X33602953Y42155000D01*
X38592401Y47144448D01*
X38598877Y47152220D01*
X38652222Y47195996D01*
X38713770Y47228893D01*
X38780548Y47249151D01*
X38839923Y47255000D01*
X47449108Y47255000D01*
X48281155Y48087046D01*
X48281155Y49020000D01*
X50191155Y49020000D01*
X50191155Y48060000D01*
X49258201Y48060000D01*
X47853753Y46655551D01*
X47847277Y46647779D01*
X47793932Y46604003D01*
X47732384Y46571106D01*
X47665606Y46550849D01*
X47606221Y46545000D01*
X38997047Y46545000D01*
X34007598Y41555551D01*
X34001122Y41547779D01*
X33947777Y41504003D01*
X33886229Y41471106D01*
X33819451Y41450849D01*
X33760066Y41445000D01*
X31251155Y41445000D01*
X31251155Y41095000D01*
D02*
G37*
%LPC*%
G36*
X31251155Y43020000D02*
X29941155Y43020000D01*
X29941155Y44430000D01*
X31251155Y44430000D01*
X31251155Y44080000D01*
X32727953Y44080000D01*
X37432401Y48784448D01*
X37438877Y48792220D01*
X37492222Y48835996D01*
X37553770Y48868893D01*
X37620548Y48889151D01*
X37679923Y48895000D01*
X43108845Y48895000D01*
X43108845Y49020000D01*
X45018845Y49020000D01*
X45018845Y48060000D01*
X43108845Y48060000D01*
X43108845Y48185000D01*
X37837047Y48185000D01*
X33132598Y43480551D01*
X33126122Y43472779D01*
X33072777Y43429003D01*
X33011229Y43396106D01*
X32944451Y43375849D01*
X32885066Y43370000D01*
X31251155Y43370000D01*
X31251155Y43020000D01*
D02*
G37*
%LPC*%
G36*
X24441155Y48300000D02*
X23891155Y48300000D01*
X23891155Y48800000D01*
X24441155Y48800000D01*
X24441155Y48300000D01*
D02*
G37*
%LPC*%
G36*
X23591155Y48300000D02*
X23041155Y48300000D01*
X23041155Y48800000D01*
X23591155Y48800000D01*
X23591155Y48300000D01*
D02*
G37*
%LPC*%
G36*
X33785000Y46800000D02*
X32935000Y46800000D01*
X32935000Y48450000D01*
X33785000Y48450000D01*
X33785000Y46800000D01*
D02*
G37*
%LPC*%
G36*
X32635000Y46800000D02*
X31785000Y46800000D01*
X31785000Y48450000D01*
X32635000Y48450000D01*
X32635000Y46800000D01*
D02*
G37*
%LPC*%
G36*
X18318845Y42080000D02*
X16908845Y42080000D01*
X16908845Y43390000D01*
X17595000Y43390000D01*
X17595000Y46362953D01*
X17127953Y46830000D01*
X15258845Y46830000D01*
X15258845Y46955000D01*
X14018845Y46955000D01*
X14018845Y46705000D01*
X13208845Y46705000D01*
X13208845Y48015000D01*
X14018845Y48015000D01*
X14018845Y47665000D01*
X15258845Y47665000D01*
X15258845Y47790000D01*
X17168845Y47790000D01*
X17168845Y47674502D01*
X17286229Y47638893D01*
X17347776Y47605996D01*
X17393897Y47568148D01*
X18208148Y46753897D01*
X18245996Y46707776D01*
X18278893Y46646229D01*
X18299151Y46579451D01*
X18305000Y46520077D01*
X18305000Y43390000D01*
X18318845Y43390000D01*
X18318845Y42080000D01*
D02*
G37*
%LPC*%
G36*
X23591155Y47500000D02*
X23041155Y47500000D01*
X23041155Y48000000D01*
X23591155Y48000000D01*
X23591155Y47500000D01*
D02*
G37*
%LPC*%
G36*
X24441155Y47500000D02*
X23891155Y47500000D01*
X23891155Y48000000D01*
X24441155Y48000000D01*
X24441155Y47500000D01*
D02*
G37*
%LPC*%
G36*
X27850000Y46244753D02*
X27785774Y46247909D01*
X27722167Y46257345D01*
X27659790Y46272968D01*
X27599243Y46294634D01*
X27541122Y46322123D01*
X27485966Y46355182D01*
X27434316Y46393488D01*
X27386670Y46436670D01*
X27343485Y46484319D01*
X27298483Y46545000D01*
X22689935Y46545000D01*
X22630548Y46550849D01*
X22563770Y46571106D01*
X22502219Y46604004D01*
X22455639Y46642228D01*
X22453574Y46641251D01*
X22454490Y46643463D01*
X22267953Y46830000D01*
X20431155Y46830000D01*
X20431155Y47790000D01*
X22341155Y47790000D01*
X22341155Y47664703D01*
X22426227Y47638895D01*
X22487776Y47605996D01*
X22533897Y47568148D01*
X22847047Y47255000D01*
X27298483Y47255000D01*
X27343485Y47315681D01*
X27386670Y47363330D01*
X27434316Y47406512D01*
X27485966Y47444818D01*
X27541122Y47477877D01*
X27599243Y47505366D01*
X27659790Y47527032D01*
X27722167Y47542655D01*
X27785774Y47552091D01*
X27850000Y47555247D01*
X27914226Y47552091D01*
X27977833Y47542655D01*
X28040210Y47527032D01*
X28100757Y47505366D01*
X28158878Y47477877D01*
X28214034Y47444818D01*
X28265684Y47406512D01*
X28313330Y47363330D01*
X28356512Y47315684D01*
X28394818Y47264034D01*
X28427877Y47208878D01*
X28455366Y47150757D01*
X28477032Y47090210D01*
X28492655Y47027833D01*
X28502091Y46964226D01*
X28505247Y46900000D01*
X28502091Y46835774D01*
X28492655Y46772167D01*
X28477032Y46709790D01*
X28455366Y46649243D01*
X28427877Y46591122D01*
X28394818Y46535966D01*
X28356512Y46484316D01*
X28313330Y46436670D01*
X28265684Y46393488D01*
X28214034Y46355182D01*
X28158878Y46322123D01*
X28100757Y46294634D01*
X28040210Y46272968D01*
X27977833Y46257345D01*
X27914226Y46247909D01*
X27850000Y46244753D01*
D02*
G37*
%LPC*%
G36*
X27791155Y43295000D02*
X26481155Y43295000D01*
X26481155Y44421798D01*
X25812953Y45090000D01*
X22494935Y45090000D01*
X22435548Y45095849D01*
X22368770Y45116106D01*
X22307223Y45149003D01*
X22253157Y45193371D01*
X22246740Y45201214D01*
X21887953Y45560000D01*
X20431155Y45560000D01*
X20431155Y46520000D01*
X22341155Y46520000D01*
X22341155Y46110891D01*
X22652047Y45800000D01*
X25970077Y45800000D01*
X26029451Y45794151D01*
X26096229Y45773893D01*
X26157776Y45740996D01*
X26203897Y45703148D01*
X27202046Y44705000D01*
X27791155Y44705000D01*
X27791155Y43295000D01*
D02*
G37*
%LPC*%
G36*
X14018845Y42680000D02*
X13208845Y42680000D01*
X13208845Y43990000D01*
X13258845Y43990000D01*
X13258845Y44505000D01*
X13208845Y44505000D01*
X13208845Y45815000D01*
X13766798Y45815000D01*
X14236246Y46284448D01*
X14242722Y46292220D01*
X14296067Y46335996D01*
X14357615Y46368893D01*
X14424393Y46389151D01*
X14483768Y46395000D01*
X15258845Y46395000D01*
X15258845Y46520000D01*
X17168845Y46520000D01*
X17168845Y45560000D01*
X15258845Y45560000D01*
X15258845Y45685000D01*
X14640892Y45685000D01*
X14018845Y45062953D01*
X14018845Y44505000D01*
X13968845Y44505000D01*
X13968845Y43990000D01*
X14018845Y43990000D01*
X14018845Y42680000D01*
D02*
G37*
%LPC*%
G36*
X55955000Y41395000D02*
X53045000Y41395000D01*
X53045000Y42502953D01*
X52202953Y43345000D01*
X50795000Y43345000D01*
X50795000Y44202953D01*
X50202953Y44795000D01*
X39551517Y44795000D01*
X39506515Y44734319D01*
X39463330Y44686670D01*
X39415684Y44643488D01*
X39364034Y44605182D01*
X39308878Y44572123D01*
X39250757Y44544634D01*
X39190210Y44522968D01*
X39127833Y44507345D01*
X39064226Y44497909D01*
X39000000Y44494753D01*
X38935774Y44497909D01*
X38872167Y44507345D01*
X38809790Y44522968D01*
X38749243Y44544634D01*
X38691122Y44572123D01*
X38635966Y44605182D01*
X38584316Y44643488D01*
X38536670Y44686670D01*
X38493488Y44734316D01*
X38455182Y44785966D01*
X38422123Y44841122D01*
X38394634Y44899243D01*
X38372968Y44959790D01*
X38357345Y45022167D01*
X38347909Y45085774D01*
X38344753Y45150000D01*
X38347909Y45214226D01*
X38357345Y45277833D01*
X38372968Y45340210D01*
X38394634Y45400757D01*
X38422123Y45458878D01*
X38455182Y45514034D01*
X38493488Y45565684D01*
X38536670Y45613330D01*
X38584316Y45656512D01*
X38635966Y45694818D01*
X38691122Y45727877D01*
X38749243Y45755366D01*
X38809790Y45777032D01*
X38872167Y45792655D01*
X38935774Y45802091D01*
X39000000Y45805247D01*
X39064226Y45802091D01*
X39127833Y45792655D01*
X39190210Y45777032D01*
X39250757Y45755366D01*
X39308878Y45727877D01*
X39364034Y45694818D01*
X39415684Y45656512D01*
X39463330Y45613330D01*
X39506515Y45565681D01*
X39551517Y45505000D01*
X50360077Y45505000D01*
X50419451Y45499151D01*
X50486229Y45478893D01*
X50547776Y45445996D01*
X50593897Y45408148D01*
X51347047Y44655000D01*
X52205000Y44655000D01*
X52205000Y44331100D01*
X52293897Y44258148D01*
X53147047Y43405000D01*
X55955000Y43405000D01*
X55955000Y41395000D01*
D02*
G37*
%LPC*%
G36*
X26841155Y41095000D02*
X25531155Y41095000D01*
X25531155Y41770000D01*
X24016155Y41770000D01*
X24016155Y41745000D01*
X22606155Y41745000D01*
X22606155Y43055000D01*
X24016155Y43055000D01*
X24016155Y42480000D01*
X25531155Y42480000D01*
X25531155Y42505000D01*
X26841155Y42505000D01*
X26841155Y42155000D01*
X28341155Y42155000D01*
X28341155Y42505000D01*
X28641155Y42505000D01*
X28641155Y43020000D01*
X28341155Y43020000D01*
X28341155Y44430000D01*
X29651155Y44430000D01*
X29651155Y43020000D01*
X29351155Y43020000D01*
X29351155Y42505000D01*
X29651155Y42505000D01*
X29651155Y41095000D01*
X28341155Y41095000D01*
X28341155Y41445000D01*
X26841155Y41445000D01*
X26841155Y41095000D01*
D02*
G37*
%LPC*%
G36*
X9588845Y41829753D02*
X9500113Y41834113D01*
X9412233Y41847149D01*
X9326069Y41868731D01*
X9242424Y41898661D01*
X9162108Y41936648D01*
X9085924Y41982310D01*
X9014560Y42035237D01*
X8948739Y42094894D01*
X8889082Y42160715D01*
X8836155Y42232079D01*
X8790493Y42308263D01*
X8752506Y42388579D01*
X8722576Y42472224D01*
X8700994Y42558388D01*
X8687958Y42646268D01*
X8683598Y42735000D01*
X8687958Y42823732D01*
X8700994Y42911612D01*
X8722576Y42997776D01*
X8752506Y43081421D01*
X8790493Y43161737D01*
X8836155Y43237921D01*
X8889082Y43309285D01*
X8948739Y43375106D01*
X9014560Y43434763D01*
X9085924Y43487690D01*
X9162108Y43533352D01*
X9242424Y43571339D01*
X9326069Y43601269D01*
X9412233Y43622851D01*
X9500113Y43635887D01*
X9588845Y43640247D01*
X9677577Y43635887D01*
X9765457Y43622851D01*
X9851621Y43601269D01*
X9935266Y43571339D01*
X10015582Y43533352D01*
X10091766Y43487690D01*
X10163130Y43434763D01*
X10228949Y43375108D01*
X10260768Y43340000D01*
X10833845Y43340000D01*
X10833845Y43390000D01*
X12243845Y43390000D01*
X12243845Y42080000D01*
X10833845Y42080000D01*
X10833845Y42130000D01*
X10260768Y42130000D01*
X10228949Y42094892D01*
X10163130Y42035237D01*
X10091766Y41982310D01*
X10015582Y41936648D01*
X9935266Y41898661D01*
X9851621Y41868731D01*
X9765457Y41847149D01*
X9677577Y41834113D01*
X9588845Y41829753D01*
D02*
G37*
%LPC*%
G36*
X48500000Y39644753D02*
X48435774Y39647909D01*
X48372167Y39657345D01*
X48309790Y39672968D01*
X48249243Y39694634D01*
X48191122Y39722123D01*
X48135966Y39755182D01*
X48084316Y39793488D01*
X48036670Y39836670D01*
X47993488Y39884316D01*
X47955182Y39935966D01*
X47922123Y39991122D01*
X47894634Y40049243D01*
X47872968Y40109790D01*
X47857345Y40172167D01*
X47847909Y40235774D01*
X47844753Y40300000D01*
X47847909Y40364226D01*
X47857345Y40427833D01*
X47872968Y40490210D01*
X47894634Y40550757D01*
X47922123Y40608878D01*
X47955182Y40664034D01*
X47993488Y40715684D01*
X48036670Y40763330D01*
X48084319Y40806515D01*
X48145000Y40851517D01*
X48145000Y41395000D01*
X47045000Y41395000D01*
X47045000Y43405000D01*
X49955000Y43405000D01*
X49955000Y42755000D01*
X50795000Y42755000D01*
X50795000Y43055000D01*
X52205000Y43055000D01*
X52205000Y41745000D01*
X50795000Y41745000D01*
X50795000Y42045000D01*
X49955000Y42045000D01*
X49955000Y41395000D01*
X48855000Y41395000D01*
X48855000Y40851517D01*
X48915681Y40806515D01*
X48963330Y40763330D01*
X49006512Y40715684D01*
X49044818Y40664034D01*
X49077877Y40608878D01*
X49105366Y40550757D01*
X49127032Y40490210D01*
X49142655Y40427833D01*
X49152091Y40364226D01*
X49155247Y40300000D01*
X49152091Y40235774D01*
X49142655Y40172167D01*
X49127032Y40109790D01*
X49105366Y40049243D01*
X49077877Y39991122D01*
X49044818Y39935966D01*
X49006512Y39884316D01*
X48963330Y39836670D01*
X48915684Y39793488D01*
X48864034Y39755182D01*
X48808878Y39722123D01*
X48750757Y39694634D01*
X48690210Y39672968D01*
X48627833Y39657345D01*
X48564226Y39647909D01*
X48500000Y39644753D01*
D02*
G37*
%LPC*%
G36*
X57850000Y42550000D02*
X56550000Y42550000D01*
X56550000Y43400000D01*
X57850000Y43400000D01*
X57850000Y42550000D01*
D02*
G37*
%LPC*%
G36*
X44850000Y42550000D02*
X43550000Y42550000D01*
X43550000Y43400000D01*
X44850000Y43400000D01*
X44850000Y42550000D01*
D02*
G37*
%LPC*%
G36*
X46450000Y42550000D02*
X45150000Y42550000D01*
X45150000Y43400000D01*
X46450000Y43400000D01*
X46450000Y42550000D01*
D02*
G37*
%LPC*%
G36*
X59450000Y42550000D02*
X58150000Y42550000D01*
X58150000Y43400000D01*
X59450000Y43400000D01*
X59450000Y42550000D01*
D02*
G37*
%LPC*%
G36*
X14018845Y40480000D02*
X13208845Y40480000D01*
X13208845Y41790000D01*
X13722953Y41790000D01*
X14912401Y42979448D01*
X14918875Y42987218D01*
X14983845Y43040535D01*
X14983845Y43390000D01*
X16393845Y43390000D01*
X16393845Y42080000D01*
X15017047Y42080000D01*
X14018845Y41081798D01*
X14018845Y40480000D01*
D02*
G37*
%LPC*%
G36*
X19536155Y41494753D02*
X19447423Y41499113D01*
X19359543Y41512149D01*
X19273379Y41533731D01*
X19189734Y41563661D01*
X19109418Y41601648D01*
X19033234Y41647310D01*
X18961870Y41700237D01*
X18896049Y41759894D01*
X18836392Y41825715D01*
X18783465Y41897079D01*
X18737803Y41973263D01*
X18699816Y42053579D01*
X18669886Y42137224D01*
X18648304Y42223388D01*
X18635268Y42311268D01*
X18630908Y42400000D01*
X18635268Y42488732D01*
X18648304Y42576612D01*
X18669886Y42662776D01*
X18699816Y42746421D01*
X18737803Y42826737D01*
X18783465Y42902921D01*
X18836392Y42974285D01*
X18896049Y43040106D01*
X18961870Y43099763D01*
X19033234Y43152690D01*
X19109418Y43198352D01*
X19189734Y43236339D01*
X19273379Y43266269D01*
X19359543Y43287851D01*
X19447423Y43300887D01*
X19536155Y43305247D01*
X19624887Y43300887D01*
X19712767Y43287851D01*
X19798931Y43266269D01*
X19882576Y43236339D01*
X19962892Y43198352D01*
X20039076Y43152690D01*
X20110440Y43099763D01*
X20176259Y43040108D01*
X20208078Y43005000D01*
X20681155Y43005000D01*
X20681155Y43055000D01*
X22091155Y43055000D01*
X22091155Y41745000D01*
X20681155Y41745000D01*
X20681155Y41795000D01*
X20208078Y41795000D01*
X20176259Y41759892D01*
X20110440Y41700237D01*
X20039076Y41647310D01*
X19962892Y41601648D01*
X19882576Y41563661D01*
X19798931Y41533731D01*
X19712767Y41512149D01*
X19624887Y41499113D01*
X19536155Y41494753D01*
D02*
G37*
%LPC*%
G36*
X44850000Y41400000D02*
X43550000Y41400000D01*
X43550000Y42250000D01*
X44850000Y42250000D01*
X44850000Y41400000D01*
D02*
G37*
%LPC*%
G36*
X46450000Y41400000D02*
X45150000Y41400000D01*
X45150000Y42250000D01*
X46450000Y42250000D01*
X46450000Y41400000D01*
D02*
G37*
%LPC*%
G36*
X57850000Y41400000D02*
X56550000Y41400000D01*
X56550000Y42250000D01*
X57850000Y42250000D01*
X57850000Y41400000D01*
D02*
G37*
%LPC*%
G36*
X59450000Y41400000D02*
X58150000Y41400000D01*
X58150000Y42250000D01*
X59450000Y42250000D01*
X59450000Y41400000D01*
D02*
G37*
%LPC*%
G36*
X14500000Y35244752D02*
X14376973Y35250798D01*
X14255108Y35268874D01*
X14135622Y35298803D01*
X14019640Y35340302D01*
X13908282Y35392970D01*
X13802623Y35456300D01*
X13703681Y35529681D01*
X13612406Y35612406D01*
X13529681Y35703681D01*
X13456300Y35802623D01*
X13392970Y35908282D01*
X13340302Y36019640D01*
X13298803Y36135622D01*
X13268874Y36255108D01*
X13250798Y36376973D01*
X13244752Y36500000D01*
X13250798Y36623027D01*
X13268874Y36744892D01*
X13298803Y36864378D01*
X13340302Y36980360D01*
X13397229Y37100724D01*
X11295060Y39202893D01*
X11287217Y39209310D01*
X11242848Y39263378D01*
X11209951Y39324925D01*
X11189694Y39391703D01*
X11183845Y39451090D01*
X11183845Y40480000D01*
X10833845Y40480000D01*
X10833845Y41790000D01*
X12243845Y41790000D01*
X12243845Y40480000D01*
X11893845Y40480000D01*
X11893845Y39608202D01*
X13899276Y37602771D01*
X14019640Y37659698D01*
X14135622Y37701197D01*
X14255108Y37731126D01*
X14376973Y37749202D01*
X14500000Y37755248D01*
X14623027Y37749202D01*
X14744892Y37731126D01*
X14864378Y37701197D01*
X14980360Y37659698D01*
X15091718Y37607030D01*
X15197377Y37543700D01*
X15296319Y37470319D01*
X15387594Y37387594D01*
X15470319Y37296319D01*
X15543700Y37197377D01*
X15607030Y37091718D01*
X15659698Y36980360D01*
X15701197Y36864378D01*
X15731126Y36744892D01*
X15749202Y36623027D01*
X15755248Y36500000D01*
X15749202Y36376973D01*
X15731126Y36255108D01*
X15701197Y36135622D01*
X15659698Y36019640D01*
X15607030Y35908282D01*
X15543700Y35802623D01*
X15470319Y35703681D01*
X15387594Y35612406D01*
X15296319Y35529681D01*
X15197377Y35456300D01*
X15091718Y35392970D01*
X14980360Y35340302D01*
X14864378Y35298803D01*
X14744892Y35268874D01*
X14623027Y35250798D01*
X14500000Y35244752D01*
D02*
G37*
%LPC*%
G36*
X58500000Y35244752D02*
X58376973Y35250798D01*
X58255108Y35268874D01*
X58135622Y35298803D01*
X58019640Y35340302D01*
X57908282Y35392970D01*
X57802623Y35456300D01*
X57703681Y35529681D01*
X57612406Y35612406D01*
X57529681Y35703681D01*
X57456300Y35802623D01*
X57392970Y35908282D01*
X57340302Y36019640D01*
X57298803Y36135622D01*
X57268874Y36255108D01*
X57250798Y36376973D01*
X57244752Y36500000D01*
X57250798Y36623027D01*
X57268874Y36744892D01*
X57298803Y36864378D01*
X57340302Y36980360D01*
X57397229Y37100724D01*
X55902953Y38595000D01*
X39439935Y38595000D01*
X39380548Y38600849D01*
X39313770Y38621106D01*
X39252223Y38654003D01*
X39198157Y38698371D01*
X39191740Y38706214D01*
X38252953Y39645000D01*
X18738780Y39645000D01*
X18679393Y39650849D01*
X18612615Y39671106D01*
X18551068Y39704003D01*
X18497000Y39748372D01*
X18490583Y39756215D01*
X17766799Y40480000D01*
X16908845Y40480000D01*
X16908845Y41790000D01*
X18318845Y41790000D01*
X18318845Y40932046D01*
X18895892Y40355000D01*
X38410077Y40355000D01*
X38469451Y40349151D01*
X38536229Y40328893D01*
X38597776Y40295996D01*
X38643897Y40258148D01*
X39597047Y39305000D01*
X56060077Y39305000D01*
X56119451Y39299151D01*
X56186229Y39278893D01*
X56247776Y39245996D01*
X56293897Y39208148D01*
X57899275Y37602771D01*
X58019644Y37659699D01*
X58135622Y37701197D01*
X58255108Y37731126D01*
X58376973Y37749202D01*
X58500000Y37755248D01*
X58623027Y37749202D01*
X58744892Y37731126D01*
X58864378Y37701197D01*
X58980360Y37659698D01*
X59091718Y37607030D01*
X59197377Y37543700D01*
X59296319Y37470319D01*
X59387594Y37387594D01*
X59470319Y37296319D01*
X59543700Y37197377D01*
X59607030Y37091718D01*
X59659698Y36980360D01*
X59701197Y36864378D01*
X59731126Y36744892D01*
X59749202Y36623027D01*
X59755248Y36500000D01*
X59749202Y36376973D01*
X59731126Y36255108D01*
X59701197Y36135622D01*
X59659698Y36019640D01*
X59607030Y35908282D01*
X59543700Y35802623D01*
X59470319Y35703681D01*
X59387594Y35612406D01*
X59296319Y35529681D01*
X59197377Y35456300D01*
X59091718Y35392970D01*
X58980360Y35340302D01*
X58864378Y35298803D01*
X58744892Y35268874D01*
X58623027Y35250798D01*
X58500000Y35244752D01*
D02*
G37*
%LPC*%
G36*
X36500000Y35244752D02*
X36376973Y35250798D01*
X36255108Y35268874D01*
X36135622Y35298803D01*
X36019640Y35340302D01*
X35908282Y35392970D01*
X35802623Y35456300D01*
X35703681Y35529681D01*
X35612406Y35612406D01*
X35529681Y35703681D01*
X35456300Y35802623D01*
X35392970Y35908282D01*
X35340302Y36019640D01*
X35298803Y36135622D01*
X35268874Y36255108D01*
X35250798Y36376973D01*
X35244752Y36500000D01*
X35250798Y36623027D01*
X35268874Y36744892D01*
X35298803Y36864378D01*
X35340302Y36980360D01*
X35397229Y37100724D01*
X34252953Y38245000D01*
X17689975Y38245000D01*
X17630588Y38250849D01*
X17563810Y38271106D01*
X17502263Y38304003D01*
X17448197Y38348371D01*
X17441780Y38356214D01*
X15445058Y40352936D01*
X15437215Y40359353D01*
X15392845Y40413421D01*
X15357260Y40480000D01*
X14983845Y40480000D01*
X14983845Y41790000D01*
X16393845Y41790000D01*
X16393845Y40408242D01*
X17847087Y38955000D01*
X34410077Y38955000D01*
X34469451Y38949151D01*
X34536229Y38928893D01*
X34597776Y38895996D01*
X34643897Y38858148D01*
X35899275Y37602771D01*
X36019644Y37659699D01*
X36135622Y37701197D01*
X36255108Y37731126D01*
X36376973Y37749202D01*
X36500000Y37755248D01*
X36623027Y37749202D01*
X36744892Y37731126D01*
X36864378Y37701197D01*
X36980360Y37659698D01*
X37091718Y37607030D01*
X37197377Y37543700D01*
X37296319Y37470319D01*
X37387594Y37387594D01*
X37470319Y37296319D01*
X37543700Y37197377D01*
X37607030Y37091718D01*
X37659698Y36980360D01*
X37701197Y36864378D01*
X37731126Y36744892D01*
X37749202Y36623027D01*
X37755248Y36500000D01*
X37749202Y36376973D01*
X37731126Y36255108D01*
X37701197Y36135622D01*
X37659698Y36019640D01*
X37607030Y35908282D01*
X37543700Y35802623D01*
X37470319Y35703681D01*
X37387594Y35612406D01*
X37296319Y35529681D01*
X37197377Y35456300D01*
X37091718Y35392970D01*
X36980360Y35340302D01*
X36864378Y35298803D01*
X36744892Y35268874D01*
X36623027Y35250798D01*
X36500000Y35244752D01*
D02*
G37*
%LPC*%
G36*
X46260066Y33895000D02*
X33739935Y33895000D01*
X33680548Y33900849D01*
X33613770Y33921106D01*
X33552223Y33954003D01*
X33498157Y33998371D01*
X33491740Y34006214D01*
X32100724Y35397229D01*
X31980360Y35340302D01*
X31864378Y35298803D01*
X31744892Y35268874D01*
X31623027Y35250798D01*
X31500000Y35244752D01*
X31376973Y35250798D01*
X31255108Y35268874D01*
X31135622Y35298803D01*
X31019640Y35340302D01*
X30908282Y35392970D01*
X30802623Y35456300D01*
X30703681Y35529681D01*
X30612406Y35612406D01*
X30529681Y35703681D01*
X30456300Y35802623D01*
X30392970Y35908282D01*
X30340302Y36019640D01*
X30295448Y36145000D01*
X27704552Y36145000D01*
X27659698Y36019640D01*
X27607030Y35908282D01*
X27543700Y35802623D01*
X27470319Y35703681D01*
X27387594Y35612406D01*
X27296319Y35529681D01*
X27197377Y35456300D01*
X27091718Y35392970D01*
X26980360Y35340302D01*
X26864378Y35298803D01*
X26744892Y35268874D01*
X26623027Y35250798D01*
X26500000Y35244752D01*
X26376973Y35250798D01*
X26255108Y35268874D01*
X26135622Y35298803D01*
X26019640Y35340302D01*
X25908282Y35392970D01*
X25802623Y35456300D01*
X25703681Y35529681D01*
X25612406Y35612406D01*
X25529681Y35703681D01*
X25456300Y35802623D01*
X25392970Y35908282D01*
X25340302Y36019640D01*
X25298803Y36135622D01*
X25268874Y36255108D01*
X25250798Y36376973D01*
X25244752Y36500000D01*
X25250798Y36623027D01*
X25268874Y36744892D01*
X25298803Y36864378D01*
X25340302Y36980360D01*
X25392970Y37091718D01*
X25456300Y37197377D01*
X25529681Y37296319D01*
X25612406Y37387594D01*
X25703681Y37470319D01*
X25802623Y37543700D01*
X25908282Y37607030D01*
X26019640Y37659698D01*
X26135622Y37701197D01*
X26255108Y37731126D01*
X26376973Y37749202D01*
X26500000Y37755248D01*
X26623027Y37749202D01*
X26744892Y37731126D01*
X26864378Y37701197D01*
X26980360Y37659698D01*
X27091718Y37607030D01*
X27197377Y37543700D01*
X27296319Y37470319D01*
X27387594Y37387594D01*
X27470319Y37296319D01*
X27543700Y37197377D01*
X27607030Y37091718D01*
X27659698Y36980360D01*
X27704552Y36855000D01*
X30295448Y36855000D01*
X30340302Y36980360D01*
X30392970Y37091718D01*
X30456300Y37197377D01*
X30529681Y37296319D01*
X30612406Y37387594D01*
X30703681Y37470319D01*
X30802623Y37543700D01*
X30908282Y37607030D01*
X31019640Y37659698D01*
X31135622Y37701197D01*
X31255108Y37731126D01*
X31376973Y37749202D01*
X31500000Y37755248D01*
X31623027Y37749202D01*
X31744892Y37731126D01*
X31864378Y37701197D01*
X31980360Y37659698D01*
X32091718Y37607030D01*
X32197377Y37543700D01*
X32296319Y37470319D01*
X32387594Y37387594D01*
X32470319Y37296319D01*
X32543700Y37197377D01*
X32607030Y37091718D01*
X32659698Y36980360D01*
X32701197Y36864378D01*
X32731126Y36744892D01*
X32749202Y36623027D01*
X32755248Y36500000D01*
X32749202Y36376973D01*
X32731126Y36255108D01*
X32701197Y36135622D01*
X32659698Y36019640D01*
X32602771Y35899276D01*
X33897047Y34605000D01*
X46102953Y34605000D01*
X47397229Y35899276D01*
X47340302Y36019640D01*
X47298803Y36135622D01*
X47268874Y36255108D01*
X47250798Y36376973D01*
X47244752Y36500000D01*
X47250798Y36623027D01*
X47268874Y36744892D01*
X47298803Y36864378D01*
X47340302Y36980360D01*
X47392970Y37091718D01*
X47456300Y37197377D01*
X47529681Y37296319D01*
X47612406Y37387594D01*
X47703681Y37470319D01*
X47802623Y37543700D01*
X47908282Y37607030D01*
X48019640Y37659698D01*
X48135622Y37701197D01*
X48255108Y37731126D01*
X48376973Y37749202D01*
X48500000Y37755248D01*
X48623027Y37749202D01*
X48744892Y37731126D01*
X48864378Y37701197D01*
X48980360Y37659698D01*
X49091718Y37607030D01*
X49197377Y37543700D01*
X49296319Y37470319D01*
X49387594Y37387594D01*
X49470319Y37296319D01*
X49543700Y37197377D01*
X49607030Y37091718D01*
X49659698Y36980360D01*
X49704552Y36855000D01*
X52295448Y36855000D01*
X52340302Y36980360D01*
X52392970Y37091718D01*
X52456300Y37197377D01*
X52529681Y37296319D01*
X52612406Y37387594D01*
X52703681Y37470319D01*
X52802623Y37543700D01*
X52908282Y37607030D01*
X53019640Y37659698D01*
X53135622Y37701197D01*
X53255108Y37731126D01*
X53376973Y37749202D01*
X53500000Y37755248D01*
X53623027Y37749202D01*
X53744892Y37731126D01*
X53864378Y37701197D01*
X53980360Y37659698D01*
X54091718Y37607030D01*
X54197377Y37543700D01*
X54296319Y37470319D01*
X54387594Y37387594D01*
X54470319Y37296319D01*
X54543700Y37197377D01*
X54607030Y37091718D01*
X54659698Y36980360D01*
X54701197Y36864378D01*
X54731126Y36744892D01*
X54749202Y36623027D01*
X54755248Y36500000D01*
X54749202Y36376973D01*
X54731126Y36255108D01*
X54701197Y36135622D01*
X54659698Y36019640D01*
X54607030Y35908282D01*
X54543700Y35802623D01*
X54470319Y35703681D01*
X54387594Y35612406D01*
X54296319Y35529681D01*
X54197377Y35456300D01*
X54091718Y35392970D01*
X53980360Y35340302D01*
X53864378Y35298803D01*
X53744892Y35268874D01*
X53623027Y35250798D01*
X53500000Y35244752D01*
X53376973Y35250798D01*
X53255108Y35268874D01*
X53135622Y35298803D01*
X53019640Y35340302D01*
X52908282Y35392970D01*
X52802623Y35456300D01*
X52703681Y35529681D01*
X52612406Y35612406D01*
X52529681Y35703681D01*
X52456300Y35802623D01*
X52392970Y35908282D01*
X52340302Y36019640D01*
X52295448Y36145000D01*
X49704552Y36145000D01*
X49659698Y36019640D01*
X49607030Y35908282D01*
X49543700Y35802623D01*
X49470319Y35703681D01*
X49387594Y35612406D01*
X49296319Y35529681D01*
X49197377Y35456300D01*
X49091718Y35392970D01*
X48980360Y35340302D01*
X48864378Y35298803D01*
X48744892Y35268874D01*
X48623027Y35250798D01*
X48500000Y35244752D01*
X48376973Y35250798D01*
X48255108Y35268874D01*
X48135622Y35298803D01*
X48019640Y35340302D01*
X47899276Y35397229D01*
X46507598Y34005551D01*
X46501122Y33997779D01*
X46447777Y33954003D01*
X46386229Y33921106D01*
X46319451Y33900849D01*
X46260066Y33895000D01*
D02*
G37*
%LPC*%
G36*
X34405000Y9045000D02*
X31995000Y9045000D01*
X31995000Y13745000D01*
X30945000Y13745000D01*
X30945000Y20255000D01*
X35455000Y20255000D01*
X35455000Y13745000D01*
X34405000Y13745000D01*
X34405000Y9045000D01*
D02*
G37*
%LPD*%
G36*
X34150000Y9300000D02*
X34150000Y14000000D01*
X35200000Y14000000D01*
X35200000Y20000000D01*
X31200000Y20000000D01*
X31200000Y14000000D01*
X32250000Y14000000D01*
X32250000Y9300000D01*
X34150000Y9300000D01*
D02*
G37*
%LPC*%
G36*
X29999000Y16315000D02*
X28349000Y16315000D01*
X28349000Y17165000D01*
X29999000Y17165000D01*
X29999000Y16315000D01*
D02*
G37*
%LPC*%
G36*
X28049000Y16315000D02*
X26399000Y16315000D01*
X26399000Y17165000D01*
X28049000Y17165000D01*
X28049000Y16315000D01*
D02*
G37*
%LPC*%
G36*
X28049000Y15165000D02*
X26399000Y15165000D01*
X26399000Y16015000D01*
X28049000Y16015000D01*
X28049000Y15165000D01*
D02*
G37*
%LPC*%
G36*
X29999000Y15165000D02*
X28349000Y15165000D01*
X28349000Y16015000D01*
X29999000Y16015000D01*
X29999000Y15165000D01*
D02*
G37*
%LPC*%
G36*
X31495000Y1745000D02*
X29005000Y1745000D01*
X29005000Y12155000D01*
X31495000Y12155000D01*
X31495000Y1745000D01*
D02*
G37*
%LPD*%
G36*
X31240000Y2000000D02*
X31240000Y11900000D01*
X29260000Y11900000D01*
X29260000Y2000000D01*
X31240000Y2000000D01*
D02*
G37*
%LPC*%
G36*
X10727083Y6636016D02*
X10623650Y6641098D01*
X10521210Y6656294D01*
X10420763Y6681454D01*
X10323263Y6716341D01*
X10229637Y6760621D01*
X10140825Y6813854D01*
X10057639Y6875549D01*
X9980911Y6945091D01*
X9911369Y7021819D01*
X9849674Y7105005D01*
X9796441Y7193817D01*
X9752161Y7287443D01*
X9717274Y7384943D01*
X9692114Y7485390D01*
X9676918Y7587830D01*
X9671836Y7691263D01*
X9676918Y7794696D01*
X9692114Y7897136D01*
X9717274Y7997583D01*
X9752161Y8095083D01*
X9796441Y8188709D01*
X9849674Y8277521D01*
X9911369Y8360707D01*
X9980911Y8437435D01*
X10057639Y8506977D01*
X10140825Y8568672D01*
X10229637Y8621905D01*
X10323263Y8666185D01*
X10420763Y8701072D01*
X10521210Y8726232D01*
X10623650Y8741428D01*
X10727083Y8746510D01*
X10830516Y8741428D01*
X10932956Y8726232D01*
X11033403Y8701072D01*
X11130903Y8666185D01*
X11224529Y8621905D01*
X11313341Y8568672D01*
X11396527Y8506977D01*
X11473255Y8437435D01*
X11542797Y8360707D01*
X11604492Y8277521D01*
X11657725Y8188709D01*
X11702005Y8095083D01*
X11736892Y7997583D01*
X11762052Y7897136D01*
X11777248Y7794696D01*
X11782330Y7691263D01*
X11777248Y7587830D01*
X11762052Y7485390D01*
X11736892Y7384943D01*
X11702005Y7287443D01*
X11657725Y7193817D01*
X11604492Y7105005D01*
X11542797Y7021819D01*
X11473255Y6945091D01*
X11396527Y6875549D01*
X11313341Y6813854D01*
X11224529Y6760621D01*
X11130903Y6716341D01*
X11033403Y6681454D01*
X10932956Y6656294D01*
X10830516Y6641098D01*
X10727083Y6636016D01*
D02*
G37*
%LPC*%
G36*
X54727083Y6636016D02*
X54623650Y6641098D01*
X54521210Y6656294D01*
X54420763Y6681454D01*
X54323263Y6716341D01*
X54229637Y6760621D01*
X54140825Y6813854D01*
X54057639Y6875549D01*
X53980911Y6945091D01*
X53911369Y7021819D01*
X53849674Y7105005D01*
X53796441Y7193817D01*
X53752161Y7287443D01*
X53717274Y7384943D01*
X53692114Y7485390D01*
X53676918Y7587830D01*
X53671836Y7691263D01*
X53676918Y7794696D01*
X53692114Y7897136D01*
X53717274Y7997583D01*
X53752161Y8095083D01*
X53796441Y8188709D01*
X53849674Y8277521D01*
X53911369Y8360707D01*
X53980911Y8437435D01*
X54057639Y8506977D01*
X54140825Y8568672D01*
X54229637Y8621905D01*
X54323263Y8666185D01*
X54420763Y8701072D01*
X54521210Y8726232D01*
X54623650Y8741428D01*
X54727083Y8746510D01*
X54830516Y8741428D01*
X54932956Y8726232D01*
X55033403Y8701072D01*
X55130903Y8666185D01*
X55224529Y8621905D01*
X55313341Y8568672D01*
X55396527Y8506977D01*
X55473255Y8437435D01*
X55542797Y8360707D01*
X55604492Y8277521D01*
X55657725Y8188709D01*
X55702005Y8095083D01*
X55736892Y7997583D01*
X55762052Y7897136D01*
X55777248Y7794696D01*
X55782330Y7691263D01*
X55777248Y7587830D01*
X55762052Y7485390D01*
X55736892Y7384943D01*
X55702005Y7287443D01*
X55657725Y7193817D01*
X55604492Y7105005D01*
X55542797Y7021819D01*
X55473255Y6945091D01*
X55396527Y6875549D01*
X55313341Y6813854D01*
X55224529Y6760621D01*
X55130903Y6716341D01*
X55033403Y6681454D01*
X54932956Y6656294D01*
X54830516Y6641098D01*
X54727083Y6636016D01*
D02*
G37*
%LPC*%
G36*
X9265285Y7841263D02*
X8377083Y7841263D01*
X8377083Y8729465D01*
X8431980Y8721322D01*
X8531954Y8696280D01*
X8628994Y8661558D01*
X8722153Y8617499D01*
X8810574Y8564500D01*
X8893345Y8503113D01*
X8969715Y8433895D01*
X9038933Y8357525D01*
X9100320Y8274754D01*
X9153319Y8186333D01*
X9197378Y8093174D01*
X9232100Y7996134D01*
X9257142Y7896160D01*
X9265285Y7841263D01*
D02*
G37*
%LPC*%
G36*
X53265285Y7841263D02*
X52377083Y7841263D01*
X52377083Y8729465D01*
X52431980Y8721322D01*
X52531954Y8696280D01*
X52628994Y8661558D01*
X52722153Y8617499D01*
X52810574Y8564500D01*
X52893345Y8503113D01*
X52969715Y8433895D01*
X53038933Y8357525D01*
X53100320Y8274754D01*
X53153319Y8186333D01*
X53197378Y8093174D01*
X53232100Y7996134D01*
X53257142Y7896160D01*
X53265285Y7841263D01*
D02*
G37*
%LPC*%
G36*
X8077083Y7841263D02*
X7188881Y7841263D01*
X7197024Y7896160D01*
X7222066Y7996134D01*
X7256788Y8093174D01*
X7300847Y8186333D01*
X7353846Y8274754D01*
X7415233Y8357525D01*
X7484451Y8433895D01*
X7560821Y8503113D01*
X7643592Y8564500D01*
X7732013Y8617499D01*
X7825172Y8661558D01*
X7922212Y8696280D01*
X8022186Y8721322D01*
X8077083Y8729465D01*
X8077083Y7841263D01*
D02*
G37*
%LPC*%
G36*
X52077083Y7841263D02*
X51188881Y7841263D01*
X51197024Y7896160D01*
X51222066Y7996134D01*
X51256788Y8093174D01*
X51300847Y8186333D01*
X51353846Y8274754D01*
X51415233Y8357525D01*
X51484451Y8433895D01*
X51560821Y8503113D01*
X51643592Y8564500D01*
X51732013Y8617499D01*
X51825172Y8661558D01*
X51922212Y8696280D01*
X52022186Y8721322D01*
X52077083Y8729465D01*
X52077083Y7841263D01*
D02*
G37*
%LPC*%
G36*
X52377083Y6653061D02*
X52377083Y7541263D01*
X53265285Y7541263D01*
X53257142Y7486366D01*
X53232100Y7386392D01*
X53197378Y7289352D01*
X53153319Y7196193D01*
X53100320Y7107772D01*
X53038933Y7025001D01*
X52969715Y6948631D01*
X52893345Y6879413D01*
X52810574Y6818026D01*
X52722153Y6765027D01*
X52628994Y6720968D01*
X52531954Y6686246D01*
X52431980Y6661204D01*
X52377083Y6653061D01*
D02*
G37*
%LPC*%
G36*
X8077083Y6653061D02*
X8022186Y6661204D01*
X7922212Y6686246D01*
X7825172Y6720968D01*
X7732013Y6765027D01*
X7643592Y6818026D01*
X7560821Y6879413D01*
X7484451Y6948631D01*
X7415233Y7025001D01*
X7353846Y7107772D01*
X7300847Y7196193D01*
X7256788Y7289352D01*
X7222066Y7386392D01*
X7197024Y7486366D01*
X7188881Y7541263D01*
X8077083Y7541263D01*
X8077083Y6653061D01*
D02*
G37*
%LPC*%
G36*
X52077083Y6653061D02*
X52022186Y6661204D01*
X51922212Y6686246D01*
X51825172Y6720968D01*
X51732013Y6765027D01*
X51643592Y6818026D01*
X51560821Y6879413D01*
X51484451Y6948631D01*
X51415233Y7025001D01*
X51353846Y7107772D01*
X51300847Y7196193D01*
X51256788Y7289352D01*
X51222066Y7386392D01*
X51197024Y7486366D01*
X51188881Y7541263D01*
X52077083Y7541263D01*
X52077083Y6653061D01*
D02*
G37*
%LPC*%
G36*
X8377083Y6653061D02*
X8377083Y7541263D01*
X9265285Y7541263D01*
X9257142Y7486366D01*
X9232100Y7386392D01*
X9197378Y7289352D01*
X9153319Y7196193D01*
X9100320Y7107772D01*
X9038933Y7025001D01*
X8969715Y6948631D01*
X8893345Y6879413D01*
X8810574Y6818026D01*
X8722153Y6765027D01*
X8628994Y6720968D01*
X8531954Y6686246D01*
X8431980Y6661204D01*
X8377083Y6653061D01*
D02*
G37*
%LPC*%
G36*
X25249000Y2184753D02*
X25145567Y2189835D01*
X25043127Y2205031D01*
X24942680Y2230191D01*
X24845180Y2265078D01*
X24751554Y2309358D01*
X24662742Y2362591D01*
X24579556Y2424286D01*
X24502828Y2493828D01*
X24433286Y2570556D01*
X24371591Y2653742D01*
X24318358Y2742554D01*
X24274078Y2836180D01*
X24239191Y2933680D01*
X24214031Y3034127D01*
X24198835Y3136567D01*
X24193753Y3240000D01*
X24198835Y3343433D01*
X24214031Y3445873D01*
X24239191Y3546320D01*
X24274078Y3643820D01*
X24318358Y3737446D01*
X24371591Y3826258D01*
X24433286Y3909444D01*
X24502828Y3986172D01*
X24579556Y4055714D01*
X24662742Y4117409D01*
X24751554Y4170642D01*
X24845180Y4214922D01*
X24942680Y4249809D01*
X25043127Y4274969D01*
X25145567Y4290165D01*
X25249000Y4295247D01*
X25352433Y4290165D01*
X25454873Y4274969D01*
X25555320Y4249809D01*
X25652820Y4214922D01*
X25746446Y4170642D01*
X25835258Y4117409D01*
X25918444Y4055714D01*
X25995172Y3986172D01*
X26064714Y3909444D01*
X26126409Y3826258D01*
X26179642Y3737446D01*
X26223922Y3643820D01*
X26258809Y3546320D01*
X26283969Y3445873D01*
X26299165Y3343433D01*
X26304247Y3240000D01*
X26299165Y3136567D01*
X26283969Y3034127D01*
X26258809Y2933680D01*
X26223922Y2836180D01*
X26179642Y2742554D01*
X26126409Y2653742D01*
X26064714Y2570556D01*
X25995172Y2493828D01*
X25918444Y2424286D01*
X25835258Y2362591D01*
X25746446Y2309358D01*
X25652820Y2265078D01*
X25555320Y2230191D01*
X25454873Y2205031D01*
X25352433Y2189835D01*
X25249000Y2184753D01*
D02*
G37*
%LPC*%
G36*
X37749000Y2184753D02*
X37645567Y2189835D01*
X37543127Y2205031D01*
X37442680Y2230191D01*
X37345180Y2265078D01*
X37251554Y2309358D01*
X37162742Y2362591D01*
X37079556Y2424286D01*
X37002828Y2493828D01*
X36933286Y2570556D01*
X36871591Y2653742D01*
X36818358Y2742554D01*
X36774078Y2836180D01*
X36739191Y2933680D01*
X36714031Y3034127D01*
X36698835Y3136567D01*
X36693753Y3240000D01*
X36698835Y3343433D01*
X36714031Y3445873D01*
X36739191Y3546320D01*
X36774078Y3643820D01*
X36818358Y3737446D01*
X36871591Y3826258D01*
X36933286Y3909444D01*
X37002828Y3986172D01*
X37079556Y4055714D01*
X37162742Y4117409D01*
X37251554Y4170642D01*
X37345180Y4214922D01*
X37442680Y4249809D01*
X37543127Y4274969D01*
X37645567Y4290165D01*
X37749000Y4295247D01*
X37852433Y4290165D01*
X37954873Y4274969D01*
X38055320Y4249809D01*
X38152820Y4214922D01*
X38246446Y4170642D01*
X38335258Y4117409D01*
X38418444Y4055714D01*
X38495172Y3986172D01*
X38564714Y3909444D01*
X38626409Y3826258D01*
X38679642Y3737446D01*
X38723922Y3643820D01*
X38758809Y3546320D01*
X38783969Y3445873D01*
X38799165Y3343433D01*
X38804247Y3240000D01*
X38799165Y3136567D01*
X38783969Y3034127D01*
X38758809Y2933680D01*
X38723922Y2836180D01*
X38679642Y2742554D01*
X38626409Y2653742D01*
X38564714Y2570556D01*
X38495172Y2493828D01*
X38418444Y2424286D01*
X38335258Y2362591D01*
X38246446Y2309358D01*
X38152820Y2265078D01*
X38055320Y2230191D01*
X37954873Y2205031D01*
X37852433Y2189835D01*
X37749000Y2184753D01*
D02*
G37*
%LPC*%
G36*
X35249000Y2184753D02*
X35145567Y2189835D01*
X35043127Y2205031D01*
X34942680Y2230191D01*
X34845180Y2265078D01*
X34751554Y2309358D01*
X34662742Y2362591D01*
X34579556Y2424286D01*
X34502828Y2493828D01*
X34433286Y2570556D01*
X34371591Y2653742D01*
X34318358Y2742554D01*
X34274078Y2836180D01*
X34239191Y2933680D01*
X34214031Y3034127D01*
X34198835Y3136567D01*
X34193753Y3240000D01*
X34198835Y3343433D01*
X34214031Y3445873D01*
X34239191Y3546320D01*
X34274078Y3643820D01*
X34318358Y3737446D01*
X34371591Y3826258D01*
X34433286Y3909444D01*
X34502828Y3986172D01*
X34579556Y4055714D01*
X34662742Y4117409D01*
X34751554Y4170642D01*
X34845180Y4214922D01*
X34942680Y4249809D01*
X35043127Y4274969D01*
X35145567Y4290165D01*
X35249000Y4295247D01*
X35352433Y4290165D01*
X35454873Y4274969D01*
X35555320Y4249809D01*
X35652820Y4214922D01*
X35746446Y4170642D01*
X35835258Y4117409D01*
X35918444Y4055714D01*
X35995172Y3986172D01*
X36064714Y3909444D01*
X36126409Y3826258D01*
X36179642Y3737446D01*
X36223922Y3643820D01*
X36258809Y3546320D01*
X36283969Y3445873D01*
X36299165Y3343433D01*
X36304247Y3240000D01*
X36299165Y3136567D01*
X36283969Y3034127D01*
X36258809Y2933680D01*
X36223922Y2836180D01*
X36179642Y2742554D01*
X36126409Y2653742D01*
X36064714Y2570556D01*
X35995172Y2493828D01*
X35918444Y2424286D01*
X35835258Y2362591D01*
X35746446Y2309358D01*
X35652820Y2265078D01*
X35555320Y2230191D01*
X35454873Y2205031D01*
X35352433Y2189835D01*
X35249000Y2184753D01*
D02*
G37*
%LPC*%
G36*
X32749000Y2184753D02*
X32645567Y2189835D01*
X32543127Y2205031D01*
X32442680Y2230191D01*
X32345180Y2265078D01*
X32251554Y2309358D01*
X32162742Y2362591D01*
X32079556Y2424286D01*
X32002828Y2493828D01*
X31933286Y2570556D01*
X31871591Y2653742D01*
X31818358Y2742554D01*
X31774078Y2836180D01*
X31739191Y2933680D01*
X31714031Y3034127D01*
X31698835Y3136567D01*
X31693753Y3240000D01*
X31698835Y3343433D01*
X31714031Y3445873D01*
X31739191Y3546320D01*
X31774078Y3643820D01*
X31818358Y3737446D01*
X31871591Y3826258D01*
X31933286Y3909444D01*
X32002828Y3986172D01*
X32079556Y4055714D01*
X32162742Y4117409D01*
X32251554Y4170642D01*
X32345180Y4214922D01*
X32442680Y4249809D01*
X32543127Y4274969D01*
X32645567Y4290165D01*
X32749000Y4295247D01*
X32852433Y4290165D01*
X32954873Y4274969D01*
X33055320Y4249809D01*
X33152820Y4214922D01*
X33246446Y4170642D01*
X33335258Y4117409D01*
X33418444Y4055714D01*
X33495172Y3986172D01*
X33564714Y3909444D01*
X33626409Y3826258D01*
X33679642Y3737446D01*
X33723922Y3643820D01*
X33758809Y3546320D01*
X33783969Y3445873D01*
X33799165Y3343433D01*
X33804247Y3240000D01*
X33799165Y3136567D01*
X33783969Y3034127D01*
X33758809Y2933680D01*
X33723922Y2836180D01*
X33679642Y2742554D01*
X33626409Y2653742D01*
X33564714Y2570556D01*
X33495172Y2493828D01*
X33418444Y2424286D01*
X33335258Y2362591D01*
X33246446Y2309358D01*
X33152820Y2265078D01*
X33055320Y2230191D01*
X32954873Y2205031D01*
X32852433Y2189835D01*
X32749000Y2184753D01*
D02*
G37*
%LPC*%
G36*
X22599000Y3390000D02*
X21710798Y3390000D01*
X21718941Y3444897D01*
X21743983Y3544871D01*
X21778705Y3641911D01*
X21822764Y3735070D01*
X21875763Y3823491D01*
X21937150Y3906262D01*
X22006368Y3982632D01*
X22082738Y4051850D01*
X22165509Y4113237D01*
X22253930Y4166236D01*
X22347089Y4210295D01*
X22444129Y4245017D01*
X22544103Y4270059D01*
X22599000Y4278202D01*
X22599000Y3390000D01*
D02*
G37*
%LPC*%
G36*
X23787202Y3390000D02*
X22899000Y3390000D01*
X22899000Y4278202D01*
X22953897Y4270059D01*
X23053871Y4245017D01*
X23150911Y4210295D01*
X23244070Y4166236D01*
X23332491Y4113237D01*
X23415262Y4051850D01*
X23491632Y3982632D01*
X23560850Y3906262D01*
X23622237Y3823491D01*
X23675236Y3735070D01*
X23719295Y3641911D01*
X23754017Y3544871D01*
X23779059Y3444897D01*
X23787202Y3390000D01*
D02*
G37*
%LPC*%
G36*
X27599000Y3390000D02*
X26710798Y3390000D01*
X26718941Y3444897D01*
X26743983Y3544871D01*
X26778705Y3641911D01*
X26822764Y3735070D01*
X26875763Y3823491D01*
X26937150Y3906262D01*
X27006368Y3982632D01*
X27082738Y4051850D01*
X27165509Y4113237D01*
X27253930Y4166236D01*
X27347089Y4210295D01*
X27444129Y4245017D01*
X27544103Y4270059D01*
X27599000Y4278202D01*
X27599000Y3390000D01*
D02*
G37*
%LPC*%
G36*
X28787202Y3390000D02*
X27899000Y3390000D01*
X27899000Y4278202D01*
X27953897Y4270059D01*
X28053871Y4245017D01*
X28150911Y4210295D01*
X28244070Y4166236D01*
X28332491Y4113237D01*
X28415262Y4051850D01*
X28491632Y3982632D01*
X28560850Y3906262D01*
X28622237Y3823491D01*
X28675236Y3735070D01*
X28719295Y3641911D01*
X28754017Y3544871D01*
X28779059Y3444897D01*
X28787202Y3390000D01*
D02*
G37*
%LPC*%
G36*
X40099000Y3390000D02*
X39210798Y3390000D01*
X39218941Y3444897D01*
X39243983Y3544871D01*
X39278705Y3641911D01*
X39322764Y3735070D01*
X39375763Y3823491D01*
X39437150Y3906262D01*
X39506368Y3982632D01*
X39582738Y4051850D01*
X39665509Y4113237D01*
X39753930Y4166236D01*
X39847089Y4210295D01*
X39944129Y4245017D01*
X40044103Y4270059D01*
X40099000Y4278202D01*
X40099000Y3390000D01*
D02*
G37*
%LPC*%
G36*
X41287202Y3390000D02*
X40399000Y3390000D01*
X40399000Y4278202D01*
X40453897Y4270059D01*
X40553871Y4245017D01*
X40650911Y4210295D01*
X40744070Y4166236D01*
X40832491Y4113237D01*
X40915262Y4051850D01*
X40991632Y3982632D01*
X41060850Y3906262D01*
X41122237Y3823491D01*
X41175236Y3735070D01*
X41219295Y3641911D01*
X41254017Y3544871D01*
X41279059Y3444897D01*
X41287202Y3390000D01*
D02*
G37*
%LPC*%
G36*
X40399000Y2201798D02*
X40399000Y3090000D01*
X41287202Y3090000D01*
X41279059Y3035103D01*
X41254017Y2935129D01*
X41219295Y2838089D01*
X41175236Y2744930D01*
X41122237Y2656509D01*
X41060850Y2573738D01*
X40991632Y2497368D01*
X40915262Y2428150D01*
X40832491Y2366763D01*
X40744070Y2313764D01*
X40650911Y2269705D01*
X40553871Y2234983D01*
X40453897Y2209941D01*
X40399000Y2201798D01*
D02*
G37*
%LPC*%
G36*
X40099000Y2201798D02*
X40044103Y2209941D01*
X39944129Y2234983D01*
X39847089Y2269705D01*
X39753930Y2313764D01*
X39665509Y2366763D01*
X39582738Y2428150D01*
X39506368Y2497368D01*
X39437150Y2573738D01*
X39375763Y2656509D01*
X39322764Y2744930D01*
X39278705Y2838089D01*
X39243983Y2935129D01*
X39218941Y3035103D01*
X39210798Y3090000D01*
X40099000Y3090000D01*
X40099000Y2201798D01*
D02*
G37*
%LPC*%
G36*
X27899000Y2201798D02*
X27899000Y3090000D01*
X28787202Y3090000D01*
X28779059Y3035103D01*
X28754017Y2935129D01*
X28719295Y2838089D01*
X28675236Y2744930D01*
X28622237Y2656509D01*
X28560850Y2573738D01*
X28491632Y2497368D01*
X28415262Y2428150D01*
X28332491Y2366763D01*
X28244070Y2313764D01*
X28150911Y2269705D01*
X28053871Y2234983D01*
X27953897Y2209941D01*
X27899000Y2201798D01*
D02*
G37*
%LPC*%
G36*
X27599000Y2201798D02*
X27544103Y2209941D01*
X27444129Y2234983D01*
X27347089Y2269705D01*
X27253930Y2313764D01*
X27165509Y2366763D01*
X27082738Y2428150D01*
X27006368Y2497368D01*
X26937150Y2573738D01*
X26875763Y2656509D01*
X26822764Y2744930D01*
X26778705Y2838089D01*
X26743983Y2935129D01*
X26718941Y3035103D01*
X26710798Y3090000D01*
X27599000Y3090000D01*
X27599000Y2201798D01*
D02*
G37*
%LPC*%
G36*
X22899000Y2201798D02*
X22899000Y3090000D01*
X23787202Y3090000D01*
X23779059Y3035103D01*
X23754017Y2935129D01*
X23719295Y2838089D01*
X23675236Y2744930D01*
X23622237Y2656509D01*
X23560850Y2573738D01*
X23491632Y2497368D01*
X23415262Y2428150D01*
X23332491Y2366763D01*
X23244070Y2313764D01*
X23150911Y2269705D01*
X23053871Y2234983D01*
X22953897Y2209941D01*
X22899000Y2201798D01*
D02*
G37*
%LPC*%
G36*
X22599000Y2201798D02*
X22544103Y2209941D01*
X22444129Y2234983D01*
X22347089Y2269705D01*
X22253930Y2313764D01*
X22165509Y2366763D01*
X22082738Y2428150D01*
X22006368Y2497368D01*
X21937150Y2573738D01*
X21875763Y2656509D01*
X21822764Y2744930D01*
X21778705Y2838089D01*
X21743983Y2935129D01*
X21718941Y3035103D01*
X21710798Y3090000D01*
X22599000Y3090000D01*
X22599000Y2201798D01*
D02*
G37*
%LPD*%
G01*
%LPD*%
D10*
X47575000Y56830000D02*
X47575000Y58125000D01*
D10*
X17613845Y42735000D02*
X17950000Y43071155D01*
D10*
X14500000Y54140000D02*
X16065000Y55705000D01*
D10*
X46250000Y34250000D02*
X48500000Y36500000D01*
D11*
X23641155Y49850000D02*
X21386155Y49850000D01*
D10*
X17450000Y62500000D02*
X19660000Y60290000D01*
D10*
X11313845Y54925000D02*
X11313845Y52720000D01*
D10*
X20249000Y3240000D02*
X20249000Y17551000D01*
D10*
X12300000Y59700000D02*
X9500000Y62500000D01*
D10*
X13613845Y41178845D02*
X15170000Y42735000D01*
D11*
X46486155Y52350000D02*
X49236155Y52350000D01*
D10*
X17800000Y55015000D02*
X17800000Y55705000D01*
D10*
X17150000Y47310000D02*
X16213845Y47310000D01*
D10*
X19660000Y60290000D02*
X19660000Y57305000D01*
D12*
X21386155Y53660000D02*
X21386155Y52390000D01*
D10*
X23311155Y42400000D02*
X23586155Y42125000D01*
D10*
X27136155Y44268845D02*
X27136155Y44000000D01*
D10*
X16065000Y55705000D02*
X16200000Y55705000D01*
D10*
X11538845Y41135000D02*
X11538845Y39461155D01*
D10*
X47575000Y58125000D02*
X48800000Y59350000D01*
D10*
X21100000Y44000000D02*
X19670000Y45430000D01*
D10*
X13193845Y52720000D02*
X11313845Y52720000D01*
D10*
X22700000Y46900000D02*
X22290000Y47310000D01*
D10*
X16200000Y55705000D02*
X16200000Y57595000D01*
D10*
X16213845Y46040000D02*
X14493845Y46040000D01*
D10*
X60605000Y52405000D02*
X56505002Y52405000D01*
D13*
X9588845Y42735000D02*
X11538845Y42735000D01*
D11*
X46486155Y52350000D02*
X44063845Y52350000D01*
D10*
X9388845Y51120000D02*
X11313845Y51120000D01*
D10*
X40080000Y52825000D02*
X40080000Y54690000D01*
D10*
X36000000Y60700000D02*
X31450000Y60700000D01*
D10*
X16213845Y52390000D02*
X15295000Y52390000D01*
D10*
X20205000Y55705000D02*
X23000000Y58500000D01*
D10*
X15170000Y42735000D02*
X15688845Y42735000D01*
D10*
X17950000Y46510000D02*
X17150000Y47310000D01*
D13*
X38115000Y50900000D02*
X40065000Y50900000D01*
D10*
X17950000Y43071155D02*
X17950000Y46510000D01*
D10*
X26186155Y41800000D02*
X28996155Y41800000D01*
D10*
X49236155Y53620000D02*
X44063845Y53620000D01*
D10*
X51500000Y44000000D02*
X52050000Y44000000D01*
D10*
X44063845Y51080000D02*
X49236155Y51080000D01*
D10*
X28565000Y64965000D02*
X28050000Y64450000D01*
D10*
X39450000Y38950000D02*
X56050000Y38950000D01*
D10*
X42749000Y17549000D02*
X60950000Y35750000D01*
D10*
X49190000Y57430000D02*
X56180000Y57430000D01*
D10*
X49236155Y56160000D02*
X48245000Y56160000D01*
D10*
X14500000Y62500000D02*
X17450000Y62500000D01*
D13*
X24285000Y51800000D02*
X27210000Y51800000D01*
D10*
X27850000Y46900000D02*
X22700000Y46900000D01*
D11*
X51641155Y54890000D02*
X49236155Y54890000D01*
D10*
X19660000Y55705000D02*
X20205000Y55705000D01*
D13*
X30985000Y51800000D02*
X32785000Y53600000D01*
D10*
X20249000Y17551000D02*
X2000000Y35800000D01*
D10*
X31900000Y58500000D02*
X37575000Y52825000D01*
D10*
X9500000Y62500000D02*
X13400000Y66400000D01*
D10*
X48500000Y42400000D02*
X48500000Y40300000D01*
D10*
X14493845Y46040000D02*
X13613845Y45160000D01*
D10*
X47596155Y46900000D02*
X49236155Y48540000D01*
D10*
X23000000Y58500000D02*
X31900000Y58500000D01*
D10*
X22505000Y45445000D02*
X25960000Y45445000D01*
D10*
X11925000Y49500000D02*
X13193845Y50768845D01*
D10*
X13400000Y66400000D02*
X23600000Y66400000D01*
D10*
X38850000Y46900000D02*
X47596155Y46900000D01*
D10*
X18748845Y40000000D02*
X38400000Y40000000D01*
D10*
X22290000Y47310000D02*
X21386155Y47310000D01*
D10*
X6788845Y54925000D02*
X11313845Y54925000D01*
D10*
X16200000Y57595000D02*
X14095000Y59700000D01*
D10*
X51500000Y44000000D02*
X50350000Y45150000D01*
D10*
X13015000Y48580000D02*
X16213845Y48580000D01*
D11*
X21386155Y52390000D02*
X19236155Y52390000D01*
D10*
X44063845Y53620000D02*
X43080000Y53620000D01*
D10*
X2000000Y43731155D02*
X9388845Y51120000D01*
D10*
X48500000Y36500000D02*
X53500000Y36500000D01*
D13*
X17800000Y59545000D02*
X17800000Y57595000D01*
D10*
X14095000Y59700000D02*
X12300000Y59700000D01*
D10*
X16213845Y53660000D02*
X16445000Y53660000D01*
D10*
X23600000Y66400000D02*
X25550000Y64450000D01*
D10*
X37575000Y52825000D02*
X40080000Y52825000D01*
D10*
X25960000Y45445000D02*
X27136155Y44268845D01*
D10*
X11000000Y49500000D02*
X11925000Y49500000D01*
D11*
X23210000Y51800000D02*
X24285000Y51800000D01*
D10*
X15295000Y52390000D02*
X14500000Y53185000D01*
D10*
X9500000Y36500000D02*
X9500000Y39500000D01*
D10*
X4500000Y36500000D02*
X4500000Y43000000D01*
D10*
X30596155Y43725000D02*
X32875000Y43725000D01*
D10*
X56050000Y38950000D02*
X58500000Y36500000D01*
D10*
X34400000Y38600000D02*
X17700040Y38600000D01*
D10*
X19670000Y47765000D02*
X20485000Y48580000D01*
D10*
X48800000Y59350000D02*
X50350000Y59350000D01*
D10*
X21386155Y44000000D02*
X21100000Y44000000D01*
D10*
X33750000Y34250000D02*
X46250000Y34250000D01*
D13*
X27210000Y51800000D02*
X30985000Y51800000D01*
D10*
X48500000Y42400000D02*
X51500000Y42400000D01*
D10*
X13193845Y50768845D02*
X13193845Y51120000D01*
D10*
X60950000Y35750000D02*
X60950000Y48665000D01*
D13*
X33425000Y64965000D02*
X35375000Y64965000D01*
D10*
X29350000Y62800000D02*
X27200000Y62800000D01*
D13*
X25541155Y49750000D02*
X23741155Y49750000D01*
D10*
X21910000Y46040000D02*
X22505000Y45445000D01*
D10*
X52050000Y44000000D02*
X53650000Y42400000D01*
D10*
X25861155Y42125000D02*
X26186155Y41800000D01*
D10*
X13613845Y45160000D02*
X13613845Y43335000D01*
D10*
X44063845Y51080000D02*
X41845000Y51080000D01*
D10*
X37690000Y48540000D02*
X44063845Y48540000D01*
D10*
X33750000Y41800000D02*
X38850000Y46900000D01*
D10*
X36500000Y36500000D02*
X34400000Y38600000D01*
D10*
X53500000Y62500000D02*
X50350000Y59350000D01*
D10*
X48245000Y56160000D02*
X47575000Y56830000D01*
D10*
X7750000Y41250000D02*
X7750000Y43315000D01*
D11*
X23741155Y49750000D02*
X23641155Y49850000D01*
D10*
X56180000Y57430000D02*
X60605000Y57430000D01*
D10*
X2000000Y35800000D02*
X2000000Y43731155D01*
D10*
X19670000Y45430000D02*
X19670000Y47765000D01*
D10*
X41845000Y51080000D02*
X41665000Y50900000D01*
D10*
X41680000Y52825000D02*
X41680000Y50915000D01*
D10*
X44063845Y56160000D02*
X44063845Y57430000D01*
D10*
X25236155Y44000000D02*
X23311155Y44000000D01*
D10*
X27200000Y62800000D02*
X25550000Y64450000D01*
D10*
X31450000Y60700000D02*
X29350000Y62800000D01*
D10*
X11538845Y39461155D02*
X14500000Y36500000D01*
D10*
X17700040Y38600000D02*
X15688845Y40611195D01*
D10*
X33425000Y63365000D02*
X31525000Y63365000D01*
D10*
X38400000Y40000000D02*
X39450000Y38950000D01*
D10*
X17613845Y41135000D02*
X18748845Y40000000D01*
D10*
X60950000Y48665000D02*
X60605000Y49010000D01*
D10*
X21386155Y46040000D02*
X21910000Y46040000D01*
D10*
X4500000Y43000000D02*
X11000000Y49500000D01*
D10*
X15688845Y40611195D02*
X15688845Y41135000D01*
D13*
X24285000Y56700000D02*
X24285000Y54800000D01*
D10*
X53650000Y42400000D02*
X54500000Y42400000D01*
D10*
X14500000Y53185000D02*
X14500000Y54140000D01*
D13*
X19536155Y42400000D02*
X21386155Y42400000D01*
D10*
X21386155Y44000000D02*
X23311155Y44000000D01*
D10*
X56505002Y52405000D02*
X56180000Y52730002D01*
D10*
X16445000Y53660000D02*
X17800000Y55015000D01*
D10*
X32875000Y43725000D02*
X37690000Y48540000D01*
D10*
X17800000Y55705000D02*
X19660000Y55705000D01*
D10*
X13613845Y41135000D02*
X13613845Y41178845D01*
D13*
X53591155Y54890000D02*
X51641155Y54890000D01*
D10*
X13193845Y51120000D02*
X16213845Y51120000D01*
D10*
X20485000Y48580000D02*
X21386155Y48580000D01*
D11*
X22530000Y51120000D02*
X23210000Y51800000D01*
D10*
X31500000Y36500000D02*
X33750000Y34250000D01*
D10*
X60605000Y50610000D02*
X60605000Y52405000D01*
D10*
X43080000Y53620000D02*
X36000000Y60700000D01*
D10*
X4500000Y62500000D02*
X9500000Y62500000D01*
D10*
X9500000Y39500000D02*
X7750000Y41250000D01*
D10*
X16213845Y47310000D02*
X13663845Y47310000D01*
D10*
X28996155Y41800000D02*
X28996155Y43725000D01*
D10*
X50350000Y45150000D02*
X39000000Y45150000D01*
D10*
X42749000Y3240000D02*
X42749000Y17549000D01*
D11*
X21386155Y51120000D02*
X22530000Y51120000D01*
D10*
X23586155Y42125000D02*
X25861155Y42125000D01*
D10*
X7750000Y43315000D02*
X13015000Y48580000D01*
D10*
X30596155Y41800000D02*
X33750000Y41800000D01*
D10*
X13663845Y47310000D02*
X13613845Y47360000D01*
D10*
X31525000Y64965000D02*
X28565000Y64965000D01*
D10*
X26500000Y36500000D02*
X31500000Y36500000D01*
D10*
X41680000Y50915000D02*
X41665000Y50900000D01*
G75*
D14*
X33199000Y16165000D03*
D15*
X28199000Y16165000D03*
D16*
X31525000Y63365000D03*
D17*
X31525000Y64965000D03*
D16*
X13193845Y51120000D03*
D17*
X13193845Y52720000D03*
D18*
X16200000Y57595000D03*
D19*
X17800000Y57595000D03*
D16*
X60605000Y49010000D03*
D17*
X60605000Y50610000D03*
D17*
X60605000Y54005000D03*
D16*
X60605000Y52405000D03*
D16*
X23741155Y48150000D03*
D17*
X23741155Y49750000D03*
D16*
X17613845Y41135000D03*
D17*
X17613845Y42735000D03*
D20*
X30199000Y10590000D03*
D21*
X33199000Y10590000D03*
D22*
X4500000Y62500000D03*
D22*
X14500000Y62500000D03*
D22*
X9500000Y62500000D03*
D19*
X41665000Y50900000D03*
D18*
X40065000Y50900000D03*
D16*
X51641155Y53290000D03*
D17*
X51641155Y54890000D03*
D19*
X30596155Y41800000D03*
D18*
X28996155Y41800000D03*
D23*
X21386155Y53660000D03*
D24*
X16213845Y52390000D03*
D24*
X16213845Y47310000D03*
D24*
X16213845Y48580000D03*
D23*
X21386155Y52390000D03*
D24*
X16213845Y53660000D03*
D24*
X16213845Y49850000D03*
D23*
X21386155Y47310000D03*
D23*
X21386155Y51120000D03*
D23*
X21386155Y46040000D03*
D24*
X16213845Y51120000D03*
D24*
X16213845Y46040000D03*
D23*
X21386155Y49850000D03*
D23*
X21386155Y48580000D03*
D17*
X23311155Y44000000D03*
D16*
X23311155Y42400000D03*
D22*
X26500000Y36500000D03*
D22*
X36500000Y36500000D03*
D22*
X31500000Y36500000D03*
D16*
X19660000Y55705000D03*
D17*
X19660000Y57305000D03*
D25*
X25236155Y44000000D03*
D26*
X26186155Y41800000D03*
D25*
X27136155Y44000000D03*
D27*
X13613845Y43335000D03*
D28*
X13613845Y41135000D03*
D19*
X17800000Y55705000D03*
D18*
X16200000Y55705000D03*
D22*
X4500000Y36500000D03*
D22*
X14500000Y36500000D03*
D22*
X9500000Y36500000D03*
D27*
X13613845Y47360000D03*
D28*
X13613845Y45160000D03*
D29*
X27210000Y51800000D03*
D30*
X27210000Y54800000D03*
D31*
X54727083Y7691263D03*
D31*
X52227083Y7691263D03*
D32*
X56180000Y57430000D03*
D33*
X56180000Y52730002D03*
D17*
X11313845Y52720000D03*
D16*
X11313845Y51120000D03*
D16*
X60605000Y55830000D03*
D17*
X60605000Y57430000D03*
D34*
X20249000Y3240000D03*
D34*
X37749000Y3240000D03*
D34*
X35249000Y3240000D03*
D34*
X32749000Y3240000D03*
D34*
X27749000Y3240000D03*
D34*
X42749000Y3240000D03*
D34*
X22749000Y3240000D03*
D34*
X25249000Y3240000D03*
D34*
X40249000Y3240000D03*
D34*
X30249000Y3240000D03*
D19*
X30596155Y43725000D03*
D18*
X28996155Y43725000D03*
D24*
X44063845Y53620000D03*
D24*
X44063845Y52350000D03*
D23*
X49236155Y53620000D03*
D24*
X44063845Y51080000D03*
D24*
X44063845Y56160000D03*
D24*
X44063845Y49810000D03*
D24*
X49190000Y57430000D03*
D23*
X49236155Y52350000D03*
D23*
X49236155Y56160000D03*
D23*
X49236155Y49810000D03*
D24*
X44063845Y54890000D03*
D23*
X49236155Y54890000D03*
D23*
X49236155Y48540000D03*
D23*
X49236155Y51080000D03*
D24*
X44063845Y57430000D03*
D24*
X44063845Y48540000D03*
D18*
X40080000Y52825000D03*
D19*
X41680000Y52825000D03*
D35*
X54500000Y42400000D03*
D36*
X58000000Y42400000D03*
D37*
X6788845Y57465000D03*
D37*
X6788845Y54925000D03*
D38*
X11313845Y54925000D03*
D38*
X11313845Y57465000D03*
D16*
X33425000Y63365000D03*
D17*
X33425000Y64965000D03*
D39*
X32785000Y48600000D03*
D40*
X32785000Y53600000D03*
D30*
X24285000Y54800000D03*
D29*
X24285000Y51800000D03*
D17*
X51500000Y44000000D03*
D16*
X51500000Y42400000D03*
D22*
X48500000Y62500000D03*
D22*
X58500000Y62500000D03*
D22*
X53500000Y62500000D03*
D16*
X15688845Y41135000D03*
D17*
X15688845Y42735000D03*
D38*
X23050000Y61150000D03*
D38*
X25550000Y64450000D03*
D38*
X28050000Y64450000D03*
D38*
X23050000Y64450000D03*
D38*
X25550000Y61150000D03*
D38*
X28050000Y61150000D03*
D17*
X21386155Y44000000D03*
D16*
X21386155Y42400000D03*
D16*
X11538845Y41135000D03*
D17*
X11538845Y42735000D03*
D17*
X9388845Y52720000D03*
D16*
X9388845Y51120000D03*
D22*
X48500000Y36500000D03*
D22*
X58500000Y36500000D03*
D22*
X53500000Y36500000D03*
D31*
X10727083Y7691263D03*
D31*
X8227083Y7691263D03*
D36*
X48500000Y42400000D03*
D35*
X45000000Y42400000D03*
D41*
X8625000Y39000000D03*
D41*
X39125000Y7000000D03*
D42*
X1000000Y26200000D03*
D42*
X62000000Y64600000D03*
D42*
X54375000Y71000000D03*
D42*
X46750000Y1000000D03*
D41*
X54375000Y13400000D03*
D41*
X25759000Y16165000D03*
D43*
X48500000Y40300000D03*
D44*
X24285000Y56700000D03*
D41*
X23875000Y13400000D03*
D41*
X27700000Y45450000D03*
D42*
X1000000Y51800000D03*
D41*
X8000000Y48200000D03*
D42*
X1000000Y32600000D03*
D41*
X39125000Y32600000D03*
D41*
X16250000Y32600000D03*
D41*
X8625000Y13400000D03*
D42*
X62000000Y13400000D03*
D41*
X15950000Y39000000D03*
D41*
X32785000Y46160000D03*
D44*
X9588845Y42735000D03*
D41*
X23875000Y26200000D03*
D41*
X27210000Y56250000D03*
D42*
X46750000Y71000000D03*
D41*
X28199000Y17805000D03*
D42*
X62000000Y51800000D03*
D41*
X54375000Y32600000D03*
D41*
X34000000Y36400000D03*
D41*
X39125000Y64600000D03*
D42*
X62000000Y1000000D03*
D42*
X8625000Y71000000D03*
D41*
X16250000Y13400000D03*
D41*
X15500000Y44900000D03*
D44*
X19236155Y52390000D03*
D41*
X8625000Y58200000D03*
D45*
X46486155Y52350000D03*
D41*
X54375000Y26200000D03*
D42*
X1000000Y19800000D03*
D42*
X62000000Y7000000D03*
D41*
X45050000Y36100000D03*
D42*
X16250000Y1000000D03*
D41*
X23875000Y7000000D03*
D42*
X62000000Y32600000D03*
D42*
X31500000Y1000000D03*
D42*
X62000000Y45400000D03*
D42*
X1000000Y71000000D03*
D41*
X46750000Y7000000D03*
D41*
X46750000Y26200000D03*
D42*
X39125000Y71000000D03*
D42*
X62000000Y19800000D03*
D42*
X31500000Y71000000D03*
D41*
X14563845Y49850000D03*
D41*
X8625000Y19800000D03*
D42*
X62000000Y26200000D03*
D41*
X46750000Y32600000D03*
D41*
X50950000Y37700000D03*
D41*
X23875000Y19800000D03*
D41*
X39125000Y19800000D03*
D42*
X62000000Y39000000D03*
D41*
X34435000Y48600000D03*
D44*
X19536155Y42400000D03*
D42*
X62000000Y58200000D03*
D44*
X17800000Y59545000D03*
D41*
X52941155Y53290000D03*
D44*
X38115000Y50900000D03*
D42*
X1000000Y1000000D03*
D42*
X8625000Y1000000D03*
D42*
X1000000Y7000000D03*
D42*
X1000000Y45400000D03*
D41*
X58000000Y40750000D03*
D41*
X11300000Y45000000D03*
D44*
X33199000Y18765000D03*
D41*
X46750000Y13400000D03*
D43*
X40080000Y54690000D03*
D42*
X1000000Y58200000D03*
D42*
X23875000Y71000000D03*
D41*
X31145000Y48600000D03*
D41*
X37050000Y38650000D03*
D41*
X16250000Y19800000D03*
D41*
X45713845Y54890000D03*
D41*
X28850000Y37550000D03*
D41*
X59305000Y54005000D03*
D41*
X25041155Y48150000D03*
D41*
X34800000Y44200000D03*
D42*
X54375000Y1000000D03*
D42*
X23875000Y1000000D03*
D41*
X38100000Y47550000D03*
D41*
X54375000Y64600000D03*
D41*
X8625000Y32600000D03*
D41*
X45000000Y40750000D03*
D41*
X16250000Y26200000D03*
D44*
X25541155Y49750000D03*
D41*
X39125000Y13400000D03*
D42*
X1000000Y39000000D03*
D41*
X46650000Y58200000D03*
D41*
X46750000Y64600000D03*
D41*
X28199000Y14515000D03*
D42*
X1000000Y13400000D03*
D41*
X16250000Y7000000D03*
D41*
X9600000Y46700000D03*
D41*
X46750000Y19800000D03*
D41*
X8088845Y52720000D03*
D42*
X16250000Y71000000D03*
D43*
X39000000Y45150000D03*
D44*
X35375000Y64965000D03*
D41*
X31500000Y32600000D03*
D41*
X39125000Y26200000D03*
D41*
X8625000Y64600000D03*
D42*
X39125000Y1000000D03*
D41*
X59305000Y55830000D03*
D41*
X3200000Y39000000D03*
D41*
X8625000Y26200000D03*
D42*
X62000000Y71000000D03*
D43*
X27850000Y46900000D03*
D41*
X54375000Y19800000D03*
D44*
X53591155Y54890000D03*
D42*
X1000000Y64600000D03*
M02*
