%FSLAX46Y46*%
%MOMM*%
%AMPS10*
1,1,2.100000,0.000000,0.000000*
%
%ADD10PS10*%
%AMPS14*
1,1,1.600000,0.000000,0.000000*
%
%ADD14PS14*%
%AMPS13*
1,1,1.600000,0.000000,0.000000*
%
%ADD13PS13*%
%AMPS12*
1,1,1.700000,0.000000,0.000000*
%
%ADD12PS12*%
%AMPS11*
1,1,1.700000,0.000000,0.000000*
%
%ADD11PS11*%
%AMPS18*
1,1,1.400000,0.000000,0.000000*
%
%ADD18PS18*%
%AMPS16*
1,1,0.700000,0.000000,0.000000*
%
%ADD16PS16*%
%AMPS17*
1,1,0.900000,0.000000,0.000000*
%
%ADD17PS17*%
%AMPS19*
1,1,1.000000,0.000000,0.000000*
%
%ADD19PS19*%
%AMPS15*
1,1,0.700000,0.000000,0.000000*
%
%ADD15PS15*%
G01*
%LPD*%
G36*
X62640000Y360000D02*
X62640000Y71640000D01*
X360000Y71640000D01*
X360000Y360000D01*
X62640000Y360000D01*
D02*
G37*
%LPC*%
G36*
X35375000Y64059753D02*
X35286268Y64064113D01*
X35198388Y64077149D01*
X35112224Y64098731D01*
X35028579Y64128661D01*
X34948263Y64166648D01*
X34872079Y64212310D01*
X34800715Y64265237D01*
X34734894Y64324894D01*
X34675237Y64390715D01*
X34622310Y64462079D01*
X34576648Y64538263D01*
X34538661Y64618579D01*
X34508731Y64702224D01*
X34487149Y64788388D01*
X34474113Y64876268D01*
X34469753Y64965000D01*
X34474113Y65053732D01*
X34487149Y65141612D01*
X34508731Y65227776D01*
X34538661Y65311421D01*
X34576648Y65391737D01*
X34622310Y65467921D01*
X34675237Y65539285D01*
X34734894Y65605106D01*
X34800715Y65664763D01*
X34872079Y65717690D01*
X34948263Y65763352D01*
X35028579Y65801339D01*
X35112224Y65831269D01*
X35198388Y65852851D01*
X35286268Y65865887D01*
X35375000Y65870247D01*
X35463732Y65865887D01*
X35551612Y65852851D01*
X35637776Y65831269D01*
X35721421Y65801339D01*
X35801737Y65763352D01*
X35877921Y65717690D01*
X35949285Y65664763D01*
X36015106Y65605106D01*
X36074763Y65539285D01*
X36127690Y65467921D01*
X36173352Y65391737D01*
X36211339Y65311421D01*
X36241269Y65227776D01*
X36262851Y65141612D01*
X36275887Y65053732D01*
X36280247Y64965000D01*
X36275887Y64876268D01*
X36262851Y64788388D01*
X36241269Y64702224D01*
X36211339Y64618579D01*
X36173352Y64538263D01*
X36127690Y64462079D01*
X36074763Y64390715D01*
X36015106Y64324894D01*
X35949285Y64265237D01*
X35877921Y64212310D01*
X35801737Y64166648D01*
X35721421Y64128661D01*
X35637776Y64098731D01*
X35551612Y64077149D01*
X35463732Y64064113D01*
X35375000Y64059753D01*
D02*
G37*
%LPC*%
G36*
X25550000Y63444752D02*
X25451475Y63449594D01*
X25353884Y63464069D01*
X25258193Y63488038D01*
X25165304Y63521275D01*
X25076140Y63563445D01*
X24991512Y63614170D01*
X24912277Y63672935D01*
X24839183Y63739183D01*
X24772935Y63812277D01*
X24714170Y63891512D01*
X24663445Y63976140D01*
X24621275Y64065304D01*
X24588038Y64158193D01*
X24564069Y64253884D01*
X24549594Y64351475D01*
X24544752Y64450000D01*
X24549594Y64548525D01*
X24564069Y64646116D01*
X24588038Y64741807D01*
X24621275Y64834696D01*
X24663445Y64923860D01*
X24714170Y65008488D01*
X24772935Y65087723D01*
X24839183Y65160817D01*
X24912277Y65227065D01*
X24991512Y65285830D01*
X25076140Y65336555D01*
X25165304Y65378725D01*
X25258193Y65411962D01*
X25353884Y65435931D01*
X25451475Y65450406D01*
X25550000Y65455248D01*
X25648525Y65450406D01*
X25746116Y65435931D01*
X25841807Y65411962D01*
X25934696Y65378725D01*
X26023860Y65336555D01*
X26108488Y65285830D01*
X26187723Y65227065D01*
X26260817Y65160817D01*
X26327065Y65087723D01*
X26385830Y65008488D01*
X26436555Y64923860D01*
X26478725Y64834696D01*
X26511962Y64741807D01*
X26535931Y64646116D01*
X26550406Y64548525D01*
X26555248Y64450000D01*
X26550406Y64351475D01*
X26535931Y64253884D01*
X26511962Y64158193D01*
X26478725Y64065304D01*
X26436555Y63976140D01*
X26385830Y63891512D01*
X26327065Y63812277D01*
X26260817Y63739183D01*
X26187723Y63672935D01*
X26108488Y63614170D01*
X26023860Y63563445D01*
X25934696Y63521275D01*
X25841807Y63488038D01*
X25746116Y63464069D01*
X25648525Y63449594D01*
X25550000Y63444752D01*
D02*
G37*
%LPC*%
G36*
X28050000Y63444752D02*
X27951475Y63449594D01*
X27853884Y63464069D01*
X27758193Y63488038D01*
X27665304Y63521275D01*
X27576140Y63563445D01*
X27491512Y63614170D01*
X27412277Y63672935D01*
X27339183Y63739183D01*
X27272935Y63812277D01*
X27214170Y63891512D01*
X27163445Y63976140D01*
X27121275Y64065304D01*
X27088038Y64158193D01*
X27064069Y64253884D01*
X27049594Y64351475D01*
X27044752Y64450000D01*
X27049594Y64548525D01*
X27064069Y64646116D01*
X27088038Y64741807D01*
X27121275Y64834696D01*
X27163445Y64923860D01*
X27214170Y65008488D01*
X27272935Y65087723D01*
X27339183Y65160817D01*
X27412277Y65227065D01*
X27491512Y65285830D01*
X27576140Y65336555D01*
X27665304Y65378725D01*
X27758193Y65411962D01*
X27853884Y65435931D01*
X27951475Y65450406D01*
X28050000Y65455248D01*
X28148525Y65450406D01*
X28246116Y65435931D01*
X28341807Y65411962D01*
X28434696Y65378725D01*
X28523860Y65336555D01*
X28608488Y65285830D01*
X28687723Y65227065D01*
X28760817Y65160817D01*
X28827065Y65087723D01*
X28885830Y65008488D01*
X28936555Y64923860D01*
X28978725Y64834696D01*
X29011962Y64741807D01*
X29035931Y64646116D01*
X29050406Y64548525D01*
X29055248Y64450000D01*
X29050406Y64351475D01*
X29035931Y64253884D01*
X29011962Y64158193D01*
X28978725Y64065304D01*
X28936555Y63976140D01*
X28885830Y63891512D01*
X28827065Y63812277D01*
X28760817Y63739183D01*
X28687723Y63672935D01*
X28608488Y63614170D01*
X28523860Y63563445D01*
X28434696Y63521275D01*
X28341807Y63488038D01*
X28246116Y63464069D01*
X28148525Y63449594D01*
X28050000Y63444752D01*
D02*
G37*
%LPC*%
G36*
X23050000Y63444752D02*
X22951475Y63449594D01*
X22853884Y63464069D01*
X22758193Y63488038D01*
X22665304Y63521275D01*
X22576140Y63563445D01*
X22491512Y63614170D01*
X22412277Y63672935D01*
X22339183Y63739183D01*
X22272935Y63812277D01*
X22214170Y63891512D01*
X22163445Y63976140D01*
X22121275Y64065304D01*
X22088038Y64158193D01*
X22064069Y64253884D01*
X22049594Y64351475D01*
X22044752Y64450000D01*
X22049594Y64548525D01*
X22064069Y64646116D01*
X22088038Y64741807D01*
X22121275Y64834696D01*
X22163445Y64923860D01*
X22214170Y65008488D01*
X22272935Y65087723D01*
X22339183Y65160817D01*
X22412277Y65227065D01*
X22491512Y65285830D01*
X22576140Y65336555D01*
X22665304Y65378725D01*
X22758193Y65411962D01*
X22853884Y65435931D01*
X22951475Y65450406D01*
X23050000Y65455248D01*
X23148525Y65450406D01*
X23246116Y65435931D01*
X23341807Y65411962D01*
X23434696Y65378725D01*
X23523860Y65336555D01*
X23608488Y65285830D01*
X23687723Y65227065D01*
X23760817Y65160817D01*
X23827065Y65087723D01*
X23885830Y65008488D01*
X23936555Y64923860D01*
X23978725Y64834696D01*
X24011962Y64741807D01*
X24035931Y64646116D01*
X24050406Y64548525D01*
X24055248Y64450000D01*
X24050406Y64351475D01*
X24035931Y64253884D01*
X24011962Y64158193D01*
X23978725Y64065304D01*
X23936555Y63976140D01*
X23885830Y63891512D01*
X23827065Y63812277D01*
X23760817Y63739183D01*
X23687723Y63672935D01*
X23608488Y63614170D01*
X23523860Y63563445D01*
X23434696Y63521275D01*
X23341807Y63488038D01*
X23246116Y63464069D01*
X23148525Y63449594D01*
X23050000Y63444752D01*
D02*
G37*
%LPC*%
G36*
X4500000Y61244752D02*
X4376973Y61250798D01*
X4255108Y61268874D01*
X4135622Y61298803D01*
X4019640Y61340302D01*
X3908282Y61392970D01*
X3802623Y61456300D01*
X3703681Y61529681D01*
X3612406Y61612406D01*
X3529681Y61703681D01*
X3456300Y61802623D01*
X3392970Y61908282D01*
X3340302Y62019640D01*
X3298803Y62135622D01*
X3268874Y62255108D01*
X3250798Y62376973D01*
X3244752Y62500000D01*
X3250798Y62623027D01*
X3268874Y62744892D01*
X3298803Y62864378D01*
X3340302Y62980360D01*
X3392970Y63091718D01*
X3456300Y63197377D01*
X3529681Y63296319D01*
X3612406Y63387594D01*
X3703681Y63470319D01*
X3802623Y63543700D01*
X3908282Y63607030D01*
X4019640Y63659698D01*
X4135622Y63701197D01*
X4255108Y63731126D01*
X4376973Y63749202D01*
X4500000Y63755248D01*
X4623027Y63749202D01*
X4744892Y63731126D01*
X4864378Y63701197D01*
X4980360Y63659698D01*
X5091718Y63607030D01*
X5197377Y63543700D01*
X5296319Y63470319D01*
X5387594Y63387594D01*
X5470319Y63296319D01*
X5543700Y63197377D01*
X5607030Y63091718D01*
X5659698Y62980360D01*
X5701197Y62864378D01*
X5731126Y62744892D01*
X5749202Y62623027D01*
X5755248Y62500000D01*
X5749202Y62376973D01*
X5731126Y62255108D01*
X5701197Y62135622D01*
X5659698Y62019640D01*
X5607030Y61908282D01*
X5543700Y61802623D01*
X5470319Y61703681D01*
X5387594Y61612406D01*
X5296319Y61529681D01*
X5197377Y61456300D01*
X5091718Y61392970D01*
X4980360Y61340302D01*
X4864378Y61298803D01*
X4744892Y61268874D01*
X4623027Y61250798D01*
X4500000Y61244752D01*
D02*
G37*
%LPC*%
G36*
X9500000Y61244752D02*
X9376973Y61250798D01*
X9255108Y61268874D01*
X9135622Y61298803D01*
X9019640Y61340302D01*
X8908282Y61392970D01*
X8802623Y61456300D01*
X8703681Y61529681D01*
X8612406Y61612406D01*
X8529681Y61703681D01*
X8456300Y61802623D01*
X8392970Y61908282D01*
X8340302Y62019640D01*
X8298803Y62135622D01*
X8268874Y62255108D01*
X8250798Y62376973D01*
X8244752Y62500000D01*
X8250798Y62623027D01*
X8268874Y62744892D01*
X8298803Y62864378D01*
X8340302Y62980360D01*
X8392970Y63091718D01*
X8456300Y63197377D01*
X8529681Y63296319D01*
X8612406Y63387594D01*
X8703681Y63470319D01*
X8802623Y63543700D01*
X8908282Y63607030D01*
X9019640Y63659698D01*
X9135622Y63701197D01*
X9255108Y63731126D01*
X9376973Y63749202D01*
X9500000Y63755248D01*
X9623027Y63749202D01*
X9744892Y63731126D01*
X9864378Y63701197D01*
X9980360Y63659698D01*
X10091718Y63607030D01*
X10197377Y63543700D01*
X10296319Y63470319D01*
X10387594Y63387594D01*
X10470319Y63296319D01*
X10543700Y63197377D01*
X10607030Y63091718D01*
X10659698Y62980360D01*
X10701197Y62864378D01*
X10731126Y62744892D01*
X10749202Y62623027D01*
X10755248Y62500000D01*
X10749202Y62376973D01*
X10731126Y62255108D01*
X10701197Y62135622D01*
X10659698Y62019640D01*
X10607030Y61908282D01*
X10543700Y61802623D01*
X10470319Y61703681D01*
X10387594Y61612406D01*
X10296319Y61529681D01*
X10197377Y61456300D01*
X10091718Y61392970D01*
X9980360Y61340302D01*
X9864378Y61298803D01*
X9744892Y61268874D01*
X9623027Y61250798D01*
X9500000Y61244752D01*
D02*
G37*
%LPC*%
G36*
X14500000Y61244752D02*
X14376973Y61250798D01*
X14255108Y61268874D01*
X14135622Y61298803D01*
X14019640Y61340302D01*
X13908282Y61392970D01*
X13802623Y61456300D01*
X13703681Y61529681D01*
X13612406Y61612406D01*
X13529681Y61703681D01*
X13456300Y61802623D01*
X13392970Y61908282D01*
X13340302Y62019640D01*
X13298803Y62135622D01*
X13268874Y62255108D01*
X13250798Y62376973D01*
X13244752Y62500000D01*
X13250798Y62623027D01*
X13268874Y62744892D01*
X13298803Y62864378D01*
X13340302Y62980360D01*
X13392970Y63091718D01*
X13456300Y63197377D01*
X13529681Y63296319D01*
X13612406Y63387594D01*
X13703681Y63470319D01*
X13802623Y63543700D01*
X13908282Y63607030D01*
X14019640Y63659698D01*
X14135622Y63701197D01*
X14255108Y63731126D01*
X14376973Y63749202D01*
X14500000Y63755248D01*
X14623027Y63749202D01*
X14744892Y63731126D01*
X14864378Y63701197D01*
X14980360Y63659698D01*
X15091718Y63607030D01*
X15197377Y63543700D01*
X15296319Y63470319D01*
X15387594Y63387594D01*
X15470319Y63296319D01*
X15543700Y63197377D01*
X15607030Y63091718D01*
X15659698Y62980360D01*
X15701197Y62864378D01*
X15731126Y62744892D01*
X15749202Y62623027D01*
X15755248Y62500000D01*
X15749202Y62376973D01*
X15731126Y62255108D01*
X15701197Y62135622D01*
X15659698Y62019640D01*
X15607030Y61908282D01*
X15543700Y61802623D01*
X15470319Y61703681D01*
X15387594Y61612406D01*
X15296319Y61529681D01*
X15197377Y61456300D01*
X15091718Y61392970D01*
X14980360Y61340302D01*
X14864378Y61298803D01*
X14744892Y61268874D01*
X14623027Y61250798D01*
X14500000Y61244752D01*
D02*
G37*
%LPC*%
G36*
X48500000Y61244752D02*
X48376973Y61250798D01*
X48255108Y61268874D01*
X48135622Y61298803D01*
X48019640Y61340302D01*
X47908282Y61392970D01*
X47802623Y61456300D01*
X47703681Y61529681D01*
X47612406Y61612406D01*
X47529681Y61703681D01*
X47456300Y61802623D01*
X47392970Y61908282D01*
X47340302Y62019640D01*
X47298803Y62135622D01*
X47268874Y62255108D01*
X47250798Y62376973D01*
X47244752Y62500000D01*
X47250798Y62623027D01*
X47268874Y62744892D01*
X47298803Y62864378D01*
X47340302Y62980360D01*
X47392970Y63091718D01*
X47456300Y63197377D01*
X47529681Y63296319D01*
X47612406Y63387594D01*
X47703681Y63470319D01*
X47802623Y63543700D01*
X47908282Y63607030D01*
X48019640Y63659698D01*
X48135622Y63701197D01*
X48255108Y63731126D01*
X48376973Y63749202D01*
X48500000Y63755248D01*
X48623027Y63749202D01*
X48744892Y63731126D01*
X48864378Y63701197D01*
X48980360Y63659698D01*
X49091718Y63607030D01*
X49197377Y63543700D01*
X49296319Y63470319D01*
X49387594Y63387594D01*
X49470319Y63296319D01*
X49543700Y63197377D01*
X49607030Y63091718D01*
X49659698Y62980360D01*
X49701197Y62864378D01*
X49731126Y62744892D01*
X49749202Y62623027D01*
X49755248Y62500000D01*
X49749202Y62376973D01*
X49731126Y62255108D01*
X49701197Y62135622D01*
X49659698Y62019640D01*
X49607030Y61908282D01*
X49543700Y61802623D01*
X49470319Y61703681D01*
X49387594Y61612406D01*
X49296319Y61529681D01*
X49197377Y61456300D01*
X49091718Y61392970D01*
X48980360Y61340302D01*
X48864378Y61298803D01*
X48744892Y61268874D01*
X48623027Y61250798D01*
X48500000Y61244752D01*
D02*
G37*
%LPC*%
G36*
X53500000Y61244752D02*
X53376973Y61250798D01*
X53255108Y61268874D01*
X53135622Y61298803D01*
X53019640Y61340302D01*
X52908282Y61392970D01*
X52802623Y61456300D01*
X52703681Y61529681D01*
X52612406Y61612406D01*
X52529681Y61703681D01*
X52456300Y61802623D01*
X52392970Y61908282D01*
X52340302Y62019640D01*
X52298803Y62135622D01*
X52268874Y62255108D01*
X52250798Y62376973D01*
X52244752Y62500000D01*
X52250798Y62623027D01*
X52268874Y62744892D01*
X52298803Y62864378D01*
X52340302Y62980360D01*
X52392970Y63091718D01*
X52456300Y63197377D01*
X52529681Y63296319D01*
X52612406Y63387594D01*
X52703681Y63470319D01*
X52802623Y63543700D01*
X52908282Y63607030D01*
X53019640Y63659698D01*
X53135622Y63701197D01*
X53255108Y63731126D01*
X53376973Y63749202D01*
X53500000Y63755248D01*
X53623027Y63749202D01*
X53744892Y63731126D01*
X53864378Y63701197D01*
X53980360Y63659698D01*
X54091718Y63607030D01*
X54197377Y63543700D01*
X54296319Y63470319D01*
X54387594Y63387594D01*
X54470319Y63296319D01*
X54543700Y63197377D01*
X54607030Y63091718D01*
X54659698Y62980360D01*
X54701197Y62864378D01*
X54731126Y62744892D01*
X54749202Y62623027D01*
X54755248Y62500000D01*
X54749202Y62376973D01*
X54731126Y62255108D01*
X54701197Y62135622D01*
X54659698Y62019640D01*
X54607030Y61908282D01*
X54543700Y61802623D01*
X54470319Y61703681D01*
X54387594Y61612406D01*
X54296319Y61529681D01*
X54197377Y61456300D01*
X54091718Y61392970D01*
X53980360Y61340302D01*
X53864378Y61298803D01*
X53744892Y61268874D01*
X53623027Y61250798D01*
X53500000Y61244752D01*
D02*
G37*
%LPC*%
G36*
X58500000Y61244752D02*
X58376973Y61250798D01*
X58255108Y61268874D01*
X58135622Y61298803D01*
X58019640Y61340302D01*
X57908282Y61392970D01*
X57802623Y61456300D01*
X57703681Y61529681D01*
X57612406Y61612406D01*
X57529681Y61703681D01*
X57456300Y61802623D01*
X57392970Y61908282D01*
X57340302Y62019640D01*
X57298803Y62135622D01*
X57268874Y62255108D01*
X57250798Y62376973D01*
X57244752Y62500000D01*
X57250798Y62623027D01*
X57268874Y62744892D01*
X57298803Y62864378D01*
X57340302Y62980360D01*
X57392970Y63091718D01*
X57456300Y63197377D01*
X57529681Y63296319D01*
X57612406Y63387594D01*
X57703681Y63470319D01*
X57802623Y63543700D01*
X57908282Y63607030D01*
X58019640Y63659698D01*
X58135622Y63701197D01*
X58255108Y63731126D01*
X58376973Y63749202D01*
X58500000Y63755248D01*
X58623027Y63749202D01*
X58744892Y63731126D01*
X58864378Y63701197D01*
X58980360Y63659698D01*
X59091718Y63607030D01*
X59197377Y63543700D01*
X59296319Y63470319D01*
X59387594Y63387594D01*
X59470319Y63296319D01*
X59543700Y63197377D01*
X59607030Y63091718D01*
X59659698Y62980360D01*
X59701197Y62864378D01*
X59731126Y62744892D01*
X59749202Y62623027D01*
X59755248Y62500000D01*
X59749202Y62376973D01*
X59731126Y62255108D01*
X59701197Y62135622D01*
X59659698Y62019640D01*
X59607030Y61908282D01*
X59543700Y61802623D01*
X59470319Y61703681D01*
X59387594Y61612406D01*
X59296319Y61529681D01*
X59197377Y61456300D01*
X59091718Y61392970D01*
X58980360Y61340302D01*
X58864378Y61298803D01*
X58744892Y61268874D01*
X58623027Y61250798D01*
X58500000Y61244752D01*
D02*
G37*
%LPC*%
G36*
X17800000Y58639753D02*
X17711268Y58644113D01*
X17623388Y58657149D01*
X17537224Y58678731D01*
X17453579Y58708661D01*
X17373263Y58746648D01*
X17297079Y58792310D01*
X17225715Y58845237D01*
X17159894Y58904894D01*
X17100237Y58970715D01*
X17047310Y59042079D01*
X17001648Y59118263D01*
X16963661Y59198579D01*
X16933731Y59282224D01*
X16912149Y59368388D01*
X16899113Y59456268D01*
X16894753Y59545000D01*
X16899113Y59633732D01*
X16912149Y59721612D01*
X16933731Y59807776D01*
X16963661Y59891421D01*
X17001648Y59971737D01*
X17047310Y60047921D01*
X17100237Y60119285D01*
X17159894Y60185106D01*
X17225715Y60244763D01*
X17297079Y60297690D01*
X17373263Y60343352D01*
X17453579Y60381339D01*
X17537224Y60411269D01*
X17623388Y60432851D01*
X17711268Y60445887D01*
X17800000Y60450247D01*
X17888732Y60445887D01*
X17976612Y60432851D01*
X18062776Y60411269D01*
X18146421Y60381339D01*
X18226737Y60343352D01*
X18302921Y60297690D01*
X18374285Y60244763D01*
X18440106Y60185106D01*
X18499763Y60119285D01*
X18552690Y60047921D01*
X18598352Y59971737D01*
X18636339Y59891421D01*
X18666269Y59807776D01*
X18687851Y59721612D01*
X18700887Y59633732D01*
X18705247Y59545000D01*
X18700887Y59456268D01*
X18687851Y59368388D01*
X18666269Y59282224D01*
X18636339Y59198579D01*
X18598352Y59118263D01*
X18552690Y59042079D01*
X18499763Y58970715D01*
X18440106Y58904894D01*
X18374285Y58845237D01*
X18302921Y58792310D01*
X18226737Y58746648D01*
X18146421Y58708661D01*
X18062776Y58678731D01*
X17976612Y58657149D01*
X17888732Y58644113D01*
X17800000Y58639753D01*
D02*
G37*
%LPC*%
G36*
X24285000Y55794753D02*
X24196268Y55799113D01*
X24108388Y55812149D01*
X24022224Y55833731D01*
X23938579Y55863661D01*
X23858263Y55901648D01*
X23782079Y55947310D01*
X23710715Y56000237D01*
X23644894Y56059894D01*
X23585237Y56125715D01*
X23532310Y56197079D01*
X23486648Y56273263D01*
X23448661Y56353579D01*
X23418731Y56437224D01*
X23397149Y56523388D01*
X23384113Y56611268D01*
X23379753Y56700000D01*
X23384113Y56788732D01*
X23397149Y56876612D01*
X23418731Y56962776D01*
X23448661Y57046421D01*
X23486648Y57126737D01*
X23532310Y57202921D01*
X23585237Y57274285D01*
X23644894Y57340106D01*
X23710715Y57399763D01*
X23782079Y57452690D01*
X23858263Y57498352D01*
X23938579Y57536339D01*
X24022224Y57566269D01*
X24108388Y57587851D01*
X24196268Y57600887D01*
X24285000Y57605247D01*
X24373732Y57600887D01*
X24461612Y57587851D01*
X24547776Y57566269D01*
X24631421Y57536339D01*
X24711737Y57498352D01*
X24787921Y57452690D01*
X24859285Y57399763D01*
X24925106Y57340106D01*
X24984763Y57274285D01*
X25037690Y57202921D01*
X25083352Y57126737D01*
X25121339Y57046421D01*
X25151269Y56962776D01*
X25172851Y56876612D01*
X25185887Y56788732D01*
X25190247Y56700000D01*
X25185887Y56611268D01*
X25172851Y56523388D01*
X25151269Y56437224D01*
X25121339Y56353579D01*
X25083352Y56273263D01*
X25037690Y56197079D01*
X24984763Y56125715D01*
X24925106Y56059894D01*
X24859285Y56000237D01*
X24787921Y55947310D01*
X24711737Y55901648D01*
X24631421Y55863661D01*
X24547776Y55833731D01*
X24461612Y55812149D01*
X24373732Y55799113D01*
X24285000Y55794753D01*
D02*
G37*
%LPC*%
G36*
X6788845Y53919752D02*
X6690320Y53924594D01*
X6592729Y53939069D01*
X6497038Y53963038D01*
X6404149Y53996275D01*
X6314985Y54038445D01*
X6230357Y54089170D01*
X6151122Y54147935D01*
X6078028Y54214183D01*
X6011780Y54287277D01*
X5953015Y54366512D01*
X5902290Y54451140D01*
X5860120Y54540304D01*
X5826883Y54633193D01*
X5802914Y54728884D01*
X5788439Y54826475D01*
X5783597Y54925000D01*
X5788439Y55023525D01*
X5802914Y55121116D01*
X5826883Y55216807D01*
X5860120Y55309696D01*
X5902290Y55398860D01*
X5953015Y55483488D01*
X6011780Y55562723D01*
X6078028Y55635817D01*
X6151122Y55702065D01*
X6230357Y55760830D01*
X6314985Y55811555D01*
X6404149Y55853725D01*
X6497038Y55886962D01*
X6592729Y55910931D01*
X6690320Y55925406D01*
X6788845Y55930248D01*
X6887370Y55925406D01*
X6984961Y55910931D01*
X7080652Y55886962D01*
X7173541Y55853725D01*
X7262705Y55811555D01*
X7347333Y55760830D01*
X7426568Y55702065D01*
X7499662Y55635817D01*
X7565910Y55562723D01*
X7624675Y55483488D01*
X7675400Y55398860D01*
X7717570Y55309696D01*
X7750807Y55216807D01*
X7774776Y55121116D01*
X7789251Y55023525D01*
X7794093Y54925000D01*
X7789251Y54826475D01*
X7774776Y54728884D01*
X7750807Y54633193D01*
X7717570Y54540304D01*
X7675400Y54451140D01*
X7624675Y54366512D01*
X7565910Y54287277D01*
X7499662Y54214183D01*
X7426568Y54147935D01*
X7347333Y54089170D01*
X7262705Y54038445D01*
X7173541Y53996275D01*
X7080652Y53963038D01*
X6984961Y53939069D01*
X6887370Y53924594D01*
X6788845Y53919752D01*
D02*
G37*
%LPC*%
G36*
X11313845Y53919752D02*
X11215320Y53924594D01*
X11117729Y53939069D01*
X11022038Y53963038D01*
X10929149Y53996275D01*
X10839985Y54038445D01*
X10755357Y54089170D01*
X10676122Y54147935D01*
X10603028Y54214183D01*
X10536780Y54287277D01*
X10478015Y54366512D01*
X10427290Y54451140D01*
X10385120Y54540304D01*
X10351883Y54633193D01*
X10327914Y54728884D01*
X10313439Y54826475D01*
X10308597Y54925000D01*
X10313439Y55023525D01*
X10327914Y55121116D01*
X10351883Y55216807D01*
X10385120Y55309696D01*
X10427290Y55398860D01*
X10478015Y55483488D01*
X10536780Y55562723D01*
X10603028Y55635817D01*
X10676122Y55702065D01*
X10755357Y55760830D01*
X10839985Y55811555D01*
X10929149Y55853725D01*
X11022038Y55886962D01*
X11117729Y55910931D01*
X11215320Y55925406D01*
X11313845Y55930248D01*
X11412370Y55925406D01*
X11509961Y55910931D01*
X11605652Y55886962D01*
X11698541Y55853725D01*
X11787705Y55811555D01*
X11872333Y55760830D01*
X11951568Y55702065D01*
X12024662Y55635817D01*
X12090910Y55562723D01*
X12149675Y55483488D01*
X12200400Y55398860D01*
X12242570Y55309696D01*
X12275807Y55216807D01*
X12299776Y55121116D01*
X12314251Y55023525D01*
X12319093Y54925000D01*
X12314251Y54826475D01*
X12299776Y54728884D01*
X12275807Y54633193D01*
X12242570Y54540304D01*
X12200400Y54451140D01*
X12149675Y54366512D01*
X12090910Y54287277D01*
X12024662Y54214183D01*
X11951568Y54147935D01*
X11872333Y54089170D01*
X11787705Y54038445D01*
X11698541Y53996275D01*
X11605652Y53963038D01*
X11509961Y53939069D01*
X11412370Y53924594D01*
X11313845Y53919752D01*
D02*
G37*
%LPC*%
G36*
X53591155Y53984753D02*
X53502423Y53989113D01*
X53414543Y54002149D01*
X53328379Y54023731D01*
X53244734Y54053661D01*
X53164418Y54091648D01*
X53088234Y54137310D01*
X53016870Y54190237D01*
X52951049Y54249894D01*
X52891392Y54315715D01*
X52838465Y54387079D01*
X52792803Y54463263D01*
X52754816Y54543579D01*
X52724886Y54627224D01*
X52703304Y54713388D01*
X52690268Y54801268D01*
X52685908Y54890000D01*
X52690268Y54978732D01*
X52703304Y55066612D01*
X52724886Y55152776D01*
X52754816Y55236421D01*
X52792803Y55316737D01*
X52838465Y55392921D01*
X52891392Y55464285D01*
X52951049Y55530106D01*
X53016870Y55589763D01*
X53088234Y55642690D01*
X53164418Y55688352D01*
X53244734Y55726339D01*
X53328379Y55756269D01*
X53414543Y55777851D01*
X53502423Y55790887D01*
X53591155Y55795247D01*
X53679887Y55790887D01*
X53767767Y55777851D01*
X53853931Y55756269D01*
X53937576Y55726339D01*
X54017892Y55688352D01*
X54094076Y55642690D01*
X54165440Y55589763D01*
X54231261Y55530106D01*
X54290918Y55464285D01*
X54343845Y55392921D01*
X54389507Y55316737D01*
X54427494Y55236421D01*
X54457424Y55152776D01*
X54479006Y55066612D01*
X54492042Y54978732D01*
X54496402Y54890000D01*
X54492042Y54801268D01*
X54479006Y54713388D01*
X54457424Y54627224D01*
X54427494Y54543579D01*
X54389507Y54463263D01*
X54343845Y54387079D01*
X54290918Y54315715D01*
X54231261Y54249894D01*
X54165440Y54190237D01*
X54094076Y54137310D01*
X54017892Y54091648D01*
X53937576Y54053661D01*
X53853931Y54023731D01*
X53767767Y54002149D01*
X53679887Y53989113D01*
X53591155Y53984753D01*
D02*
G37*
%LPC*%
G36*
X40080000Y54034753D02*
X40015774Y54037909D01*
X39952167Y54047345D01*
X39889790Y54062968D01*
X39829243Y54084634D01*
X39771122Y54112123D01*
X39715966Y54145182D01*
X39664316Y54183488D01*
X39616670Y54226670D01*
X39573488Y54274316D01*
X39535182Y54325966D01*
X39502123Y54381122D01*
X39474634Y54439243D01*
X39452968Y54499790D01*
X39437345Y54562167D01*
X39427909Y54625774D01*
X39424753Y54690000D01*
X39427909Y54754226D01*
X39437345Y54817833D01*
X39452968Y54880210D01*
X39474634Y54940757D01*
X39502123Y54998878D01*
X39535182Y55054034D01*
X39573488Y55105684D01*
X39616670Y55153330D01*
X39664316Y55196512D01*
X39715966Y55234818D01*
X39771122Y55267877D01*
X39829243Y55295366D01*
X39889790Y55317032D01*
X39952167Y55332655D01*
X40015774Y55342091D01*
X40080000Y55345247D01*
X40144226Y55342091D01*
X40207833Y55332655D01*
X40270210Y55317032D01*
X40330757Y55295366D01*
X40388878Y55267877D01*
X40444034Y55234818D01*
X40495684Y55196512D01*
X40543330Y55153330D01*
X40586512Y55105684D01*
X40624818Y55054034D01*
X40657877Y54998878D01*
X40685366Y54940757D01*
X40707032Y54880210D01*
X40722655Y54817833D01*
X40732091Y54754226D01*
X40735247Y54690000D01*
X40732091Y54625774D01*
X40722655Y54562167D01*
X40707032Y54499790D01*
X40685366Y54439243D01*
X40657877Y54381122D01*
X40624818Y54325966D01*
X40586512Y54274316D01*
X40543330Y54226670D01*
X40495684Y54183488D01*
X40444034Y54145182D01*
X40388878Y54112123D01*
X40330757Y54084634D01*
X40270210Y54062968D01*
X40207833Y54047345D01*
X40144226Y54037909D01*
X40080000Y54034753D01*
D02*
G37*
%LPC*%
G36*
X19236155Y51484753D02*
X19147423Y51489113D01*
X19059543Y51502149D01*
X18973379Y51523731D01*
X18889734Y51553661D01*
X18809418Y51591648D01*
X18733234Y51637310D01*
X18661870Y51690237D01*
X18596049Y51749894D01*
X18536392Y51815715D01*
X18483465Y51887079D01*
X18437803Y51963263D01*
X18399816Y52043579D01*
X18369886Y52127224D01*
X18348304Y52213388D01*
X18335268Y52301268D01*
X18330908Y52390000D01*
X18335268Y52478732D01*
X18348304Y52566612D01*
X18369886Y52652776D01*
X18399816Y52736421D01*
X18437803Y52816737D01*
X18483465Y52892921D01*
X18536392Y52964285D01*
X18596049Y53030106D01*
X18661870Y53089763D01*
X18733234Y53142690D01*
X18809418Y53188352D01*
X18889734Y53226339D01*
X18973379Y53256269D01*
X19059543Y53277851D01*
X19147423Y53290887D01*
X19236155Y53295247D01*
X19324887Y53290887D01*
X19412767Y53277851D01*
X19498931Y53256269D01*
X19582576Y53226339D01*
X19662892Y53188352D01*
X19739076Y53142690D01*
X19810440Y53089763D01*
X19876261Y53030106D01*
X19935918Y52964285D01*
X19988845Y52892921D01*
X20034507Y52816737D01*
X20072494Y52736421D01*
X20102424Y52652776D01*
X20124006Y52566612D01*
X20137042Y52478732D01*
X20141402Y52390000D01*
X20137042Y52301268D01*
X20124006Y52213388D01*
X20102424Y52127224D01*
X20072494Y52043579D01*
X20034507Y51963263D01*
X19988845Y51887079D01*
X19935918Y51815715D01*
X19876261Y51749894D01*
X19810440Y51690237D01*
X19739076Y51637310D01*
X19662892Y51591648D01*
X19582576Y51553661D01*
X19498931Y51523731D01*
X19412767Y51502149D01*
X19324887Y51489113D01*
X19236155Y51484753D01*
D02*
G37*
%LPC*%
G36*
X46486155Y51644752D02*
X46417038Y51648148D01*
X46348560Y51658307D01*
X46281439Y51675118D01*
X46216269Y51698438D01*
X46153706Y51728027D01*
X46094334Y51763614D01*
X46038754Y51804834D01*
X45987470Y51851315D01*
X45940989Y51902599D01*
X45899769Y51958179D01*
X45864182Y52017551D01*
X45834593Y52080114D01*
X45811273Y52145284D01*
X45794462Y52212405D01*
X45784303Y52280883D01*
X45780907Y52350000D01*
X45784303Y52419117D01*
X45794462Y52487595D01*
X45811273Y52554716D01*
X45834593Y52619886D01*
X45864182Y52682449D01*
X45899769Y52741821D01*
X45940989Y52797401D01*
X45987470Y52848685D01*
X46038754Y52895166D01*
X46094334Y52936386D01*
X46153706Y52971973D01*
X46216269Y53001562D01*
X46281439Y53024882D01*
X46348560Y53041693D01*
X46417038Y53051852D01*
X46486155Y53055248D01*
X46555272Y53051852D01*
X46623750Y53041693D01*
X46690871Y53024882D01*
X46756041Y53001562D01*
X46818604Y52971973D01*
X46877976Y52936386D01*
X46933556Y52895166D01*
X46984840Y52848685D01*
X47031321Y52797401D01*
X47072541Y52741821D01*
X47108128Y52682449D01*
X47137717Y52619886D01*
X47161037Y52554716D01*
X47177848Y52487595D01*
X47188007Y52419117D01*
X47191403Y52350000D01*
X47188007Y52280883D01*
X47177848Y52212405D01*
X47161037Y52145284D01*
X47137717Y52080114D01*
X47108128Y52017551D01*
X47072541Y51958179D01*
X47031321Y51902599D01*
X46984840Y51851315D01*
X46933556Y51804834D01*
X46877976Y51763614D01*
X46818604Y51728027D01*
X46756041Y51698438D01*
X46690871Y51675118D01*
X46623750Y51658307D01*
X46555272Y51648148D01*
X46486155Y51644752D01*
D02*
G37*
%LPC*%
G36*
X38115000Y49994753D02*
X38026268Y49999113D01*
X37938388Y50012149D01*
X37852224Y50033731D01*
X37768579Y50063661D01*
X37688263Y50101648D01*
X37612079Y50147310D01*
X37540715Y50200237D01*
X37474894Y50259894D01*
X37415237Y50325715D01*
X37362310Y50397079D01*
X37316648Y50473263D01*
X37278661Y50553579D01*
X37248731Y50637224D01*
X37227149Y50723388D01*
X37214113Y50811268D01*
X37209753Y50900000D01*
X37214113Y50988732D01*
X37227149Y51076612D01*
X37248731Y51162776D01*
X37278661Y51246421D01*
X37316648Y51326737D01*
X37362310Y51402921D01*
X37415237Y51474285D01*
X37474894Y51540106D01*
X37540715Y51599763D01*
X37612079Y51652690D01*
X37688263Y51698352D01*
X37768579Y51736339D01*
X37852224Y51766269D01*
X37938388Y51787851D01*
X38026268Y51800887D01*
X38115000Y51805247D01*
X38203732Y51800887D01*
X38291612Y51787851D01*
X38377776Y51766269D01*
X38461421Y51736339D01*
X38541737Y51698352D01*
X38617921Y51652690D01*
X38689285Y51599763D01*
X38755106Y51540106D01*
X38814763Y51474285D01*
X38867690Y51402921D01*
X38913352Y51326737D01*
X38951339Y51246421D01*
X38981269Y51162776D01*
X39002851Y51076612D01*
X39015887Y50988732D01*
X39020247Y50900000D01*
X39015887Y50811268D01*
X39002851Y50723388D01*
X38981269Y50637224D01*
X38951339Y50553579D01*
X38913352Y50473263D01*
X38867690Y50397079D01*
X38814763Y50325715D01*
X38755106Y50259894D01*
X38689285Y50200237D01*
X38617921Y50147310D01*
X38541737Y50101648D01*
X38461421Y50063661D01*
X38377776Y50033731D01*
X38291612Y50012149D01*
X38203732Y49999113D01*
X38115000Y49994753D01*
D02*
G37*
%LPC*%
G36*
X25541155Y48844753D02*
X25452423Y48849113D01*
X25364543Y48862149D01*
X25278379Y48883731D01*
X25194734Y48913661D01*
X25114418Y48951648D01*
X25038234Y48997310D01*
X24966870Y49050237D01*
X24901049Y49109894D01*
X24841392Y49175715D01*
X24788465Y49247079D01*
X24742803Y49323263D01*
X24704816Y49403579D01*
X24674886Y49487224D01*
X24653304Y49573388D01*
X24640268Y49661268D01*
X24635908Y49750000D01*
X24640268Y49838732D01*
X24653304Y49926612D01*
X24674886Y50012776D01*
X24704816Y50096421D01*
X24742803Y50176737D01*
X24788465Y50252921D01*
X24841392Y50324285D01*
X24901049Y50390106D01*
X24966870Y50449763D01*
X25038234Y50502690D01*
X25114418Y50548352D01*
X25194734Y50586339D01*
X25278379Y50616269D01*
X25364543Y50637851D01*
X25452423Y50650887D01*
X25541155Y50655247D01*
X25629887Y50650887D01*
X25717767Y50637851D01*
X25803931Y50616269D01*
X25887576Y50586339D01*
X25967892Y50548352D01*
X26044076Y50502690D01*
X26115440Y50449763D01*
X26181261Y50390106D01*
X26240918Y50324285D01*
X26293845Y50252921D01*
X26339507Y50176737D01*
X26377494Y50096421D01*
X26407424Y50012776D01*
X26429006Y49926612D01*
X26442042Y49838732D01*
X26446402Y49750000D01*
X26442042Y49661268D01*
X26429006Y49573388D01*
X26407424Y49487224D01*
X26377494Y49403579D01*
X26339507Y49323263D01*
X26293845Y49247079D01*
X26240918Y49175715D01*
X26181261Y49109894D01*
X26115440Y49050237D01*
X26044076Y48997310D01*
X25967892Y48951648D01*
X25887576Y48913661D01*
X25803931Y48883731D01*
X25717767Y48862149D01*
X25629887Y48849113D01*
X25541155Y48844753D01*
D02*
G37*
%LPC*%
G36*
X27850000Y46244753D02*
X27785774Y46247909D01*
X27722167Y46257345D01*
X27659790Y46272968D01*
X27599243Y46294634D01*
X27541122Y46322123D01*
X27485966Y46355182D01*
X27434316Y46393488D01*
X27386670Y46436670D01*
X27343488Y46484316D01*
X27305182Y46535966D01*
X27272123Y46591122D01*
X27244634Y46649243D01*
X27222968Y46709790D01*
X27207345Y46772167D01*
X27197909Y46835774D01*
X27194753Y46900000D01*
X27197909Y46964226D01*
X27207345Y47027833D01*
X27222968Y47090210D01*
X27244634Y47150757D01*
X27272123Y47208878D01*
X27305182Y47264034D01*
X27343488Y47315684D01*
X27386670Y47363330D01*
X27434316Y47406512D01*
X27485966Y47444818D01*
X27541122Y47477877D01*
X27599243Y47505366D01*
X27659790Y47527032D01*
X27722167Y47542655D01*
X27785774Y47552091D01*
X27850000Y47555247D01*
X27914226Y47552091D01*
X27977833Y47542655D01*
X28040210Y47527032D01*
X28100757Y47505366D01*
X28158878Y47477877D01*
X28214034Y47444818D01*
X28265684Y47406512D01*
X28313330Y47363330D01*
X28356512Y47315684D01*
X28394818Y47264034D01*
X28427877Y47208878D01*
X28455366Y47150757D01*
X28477032Y47090210D01*
X28492655Y47027833D01*
X28502091Y46964226D01*
X28505247Y46900000D01*
X28502091Y46835774D01*
X28492655Y46772167D01*
X28477032Y46709790D01*
X28455366Y46649243D01*
X28427877Y46591122D01*
X28394818Y46535966D01*
X28356512Y46484316D01*
X28313330Y46436670D01*
X28265684Y46393488D01*
X28214034Y46355182D01*
X28158878Y46322123D01*
X28100757Y46294634D01*
X28040210Y46272968D01*
X27977833Y46257345D01*
X27914226Y46247909D01*
X27850000Y46244753D01*
D02*
G37*
%LPC*%
G36*
X39000000Y44494753D02*
X38935774Y44497909D01*
X38872167Y44507345D01*
X38809790Y44522968D01*
X38749243Y44544634D01*
X38691122Y44572123D01*
X38635966Y44605182D01*
X38584316Y44643488D01*
X38536670Y44686670D01*
X38493488Y44734316D01*
X38455182Y44785966D01*
X38422123Y44841122D01*
X38394634Y44899243D01*
X38372968Y44959790D01*
X38357345Y45022167D01*
X38347909Y45085774D01*
X38344753Y45150000D01*
X38347909Y45214226D01*
X38357345Y45277833D01*
X38372968Y45340210D01*
X38394634Y45400757D01*
X38422123Y45458878D01*
X38455182Y45514034D01*
X38493488Y45565684D01*
X38536670Y45613330D01*
X38584316Y45656512D01*
X38635966Y45694818D01*
X38691122Y45727877D01*
X38749243Y45755366D01*
X38809790Y45777032D01*
X38872167Y45792655D01*
X38935774Y45802091D01*
X39000000Y45805247D01*
X39064226Y45802091D01*
X39127833Y45792655D01*
X39190210Y45777032D01*
X39250757Y45755366D01*
X39308878Y45727877D01*
X39364034Y45694818D01*
X39415684Y45656512D01*
X39463330Y45613330D01*
X39506512Y45565684D01*
X39544818Y45514034D01*
X39577877Y45458878D01*
X39605366Y45400757D01*
X39627032Y45340210D01*
X39642655Y45277833D01*
X39652091Y45214226D01*
X39655247Y45150000D01*
X39652091Y45085774D01*
X39642655Y45022167D01*
X39627032Y44959790D01*
X39605366Y44899243D01*
X39577877Y44841122D01*
X39544818Y44785966D01*
X39506512Y44734316D01*
X39463330Y44686670D01*
X39415684Y44643488D01*
X39364034Y44605182D01*
X39308878Y44572123D01*
X39250757Y44544634D01*
X39190210Y44522968D01*
X39127833Y44507345D01*
X39064226Y44497909D01*
X39000000Y44494753D01*
D02*
G37*
%LPC*%
G36*
X9588845Y41829753D02*
X9500113Y41834113D01*
X9412233Y41847149D01*
X9326069Y41868731D01*
X9242424Y41898661D01*
X9162108Y41936648D01*
X9085924Y41982310D01*
X9014560Y42035237D01*
X8948739Y42094894D01*
X8889082Y42160715D01*
X8836155Y42232079D01*
X8790493Y42308263D01*
X8752506Y42388579D01*
X8722576Y42472224D01*
X8700994Y42558388D01*
X8687958Y42646268D01*
X8683598Y42735000D01*
X8687958Y42823732D01*
X8700994Y42911612D01*
X8722576Y42997776D01*
X8752506Y43081421D01*
X8790493Y43161737D01*
X8836155Y43237921D01*
X8889082Y43309285D01*
X8948739Y43375106D01*
X9014560Y43434763D01*
X9085924Y43487690D01*
X9162108Y43533352D01*
X9242424Y43571339D01*
X9326069Y43601269D01*
X9412233Y43622851D01*
X9500113Y43635887D01*
X9588845Y43640247D01*
X9677577Y43635887D01*
X9765457Y43622851D01*
X9851621Y43601269D01*
X9935266Y43571339D01*
X10015582Y43533352D01*
X10091766Y43487690D01*
X10163130Y43434763D01*
X10228951Y43375106D01*
X10288608Y43309285D01*
X10341535Y43237921D01*
X10387197Y43161737D01*
X10425184Y43081421D01*
X10455114Y42997776D01*
X10476696Y42911612D01*
X10489732Y42823732D01*
X10494092Y42735000D01*
X10489732Y42646268D01*
X10476696Y42558388D01*
X10455114Y42472224D01*
X10425184Y42388579D01*
X10387197Y42308263D01*
X10341535Y42232079D01*
X10288608Y42160715D01*
X10228951Y42094894D01*
X10163130Y42035237D01*
X10091766Y41982310D01*
X10015582Y41936648D01*
X9935266Y41898661D01*
X9851621Y41868731D01*
X9765457Y41847149D01*
X9677577Y41834113D01*
X9588845Y41829753D01*
D02*
G37*
%LPC*%
G36*
X19536155Y41494753D02*
X19447423Y41499113D01*
X19359543Y41512149D01*
X19273379Y41533731D01*
X19189734Y41563661D01*
X19109418Y41601648D01*
X19033234Y41647310D01*
X18961870Y41700237D01*
X18896049Y41759894D01*
X18836392Y41825715D01*
X18783465Y41897079D01*
X18737803Y41973263D01*
X18699816Y42053579D01*
X18669886Y42137224D01*
X18648304Y42223388D01*
X18635268Y42311268D01*
X18630908Y42400000D01*
X18635268Y42488732D01*
X18648304Y42576612D01*
X18669886Y42662776D01*
X18699816Y42746421D01*
X18737803Y42826737D01*
X18783465Y42902921D01*
X18836392Y42974285D01*
X18896049Y43040106D01*
X18961870Y43099763D01*
X19033234Y43152690D01*
X19109418Y43198352D01*
X19189734Y43236339D01*
X19273379Y43266269D01*
X19359543Y43287851D01*
X19447423Y43300887D01*
X19536155Y43305247D01*
X19624887Y43300887D01*
X19712767Y43287851D01*
X19798931Y43266269D01*
X19882576Y43236339D01*
X19962892Y43198352D01*
X20039076Y43152690D01*
X20110440Y43099763D01*
X20176261Y43040106D01*
X20235918Y42974285D01*
X20288845Y42902921D01*
X20334507Y42826737D01*
X20372494Y42746421D01*
X20402424Y42662776D01*
X20424006Y42576612D01*
X20437042Y42488732D01*
X20441402Y42400000D01*
X20437042Y42311268D01*
X20424006Y42223388D01*
X20402424Y42137224D01*
X20372494Y42053579D01*
X20334507Y41973263D01*
X20288845Y41897079D01*
X20235918Y41825715D01*
X20176261Y41759894D01*
X20110440Y41700237D01*
X20039076Y41647310D01*
X19962892Y41601648D01*
X19882576Y41563661D01*
X19798931Y41533731D01*
X19712767Y41512149D01*
X19624887Y41499113D01*
X19536155Y41494753D01*
D02*
G37*
%LPC*%
G36*
X48500000Y39644753D02*
X48435774Y39647909D01*
X48372167Y39657345D01*
X48309790Y39672968D01*
X48249243Y39694634D01*
X48191122Y39722123D01*
X48135966Y39755182D01*
X48084316Y39793488D01*
X48036670Y39836670D01*
X47993488Y39884316D01*
X47955182Y39935966D01*
X47922123Y39991122D01*
X47894634Y40049243D01*
X47872968Y40109790D01*
X47857345Y40172167D01*
X47847909Y40235774D01*
X47844753Y40300000D01*
X47847909Y40364226D01*
X47857345Y40427833D01*
X47872968Y40490210D01*
X47894634Y40550757D01*
X47922123Y40608878D01*
X47955182Y40664034D01*
X47993488Y40715684D01*
X48036670Y40763330D01*
X48084316Y40806512D01*
X48135966Y40844818D01*
X48191122Y40877877D01*
X48249243Y40905366D01*
X48309790Y40927032D01*
X48372167Y40942655D01*
X48435774Y40952091D01*
X48500000Y40955247D01*
X48564226Y40952091D01*
X48627833Y40942655D01*
X48690210Y40927032D01*
X48750757Y40905366D01*
X48808878Y40877877D01*
X48864034Y40844818D01*
X48915684Y40806512D01*
X48963330Y40763330D01*
X49006512Y40715684D01*
X49044818Y40664034D01*
X49077877Y40608878D01*
X49105366Y40550757D01*
X49127032Y40490210D01*
X49142655Y40427833D01*
X49152091Y40364226D01*
X49155247Y40300000D01*
X49152091Y40235774D01*
X49142655Y40172167D01*
X49127032Y40109790D01*
X49105366Y40049243D01*
X49077877Y39991122D01*
X49044818Y39935966D01*
X49006512Y39884316D01*
X48963330Y39836670D01*
X48915684Y39793488D01*
X48864034Y39755182D01*
X48808878Y39722123D01*
X48750757Y39694634D01*
X48690210Y39672968D01*
X48627833Y39657345D01*
X48564226Y39647909D01*
X48500000Y39644753D01*
D02*
G37*
%LPC*%
G36*
X58500000Y35244752D02*
X58376973Y35250798D01*
X58255108Y35268874D01*
X58135622Y35298803D01*
X58019640Y35340302D01*
X57908282Y35392970D01*
X57802623Y35456300D01*
X57703681Y35529681D01*
X57612406Y35612406D01*
X57529681Y35703681D01*
X57456300Y35802623D01*
X57392970Y35908282D01*
X57340302Y36019640D01*
X57298803Y36135622D01*
X57268874Y36255108D01*
X57250798Y36376973D01*
X57244752Y36500000D01*
X57250798Y36623027D01*
X57268874Y36744892D01*
X57298803Y36864378D01*
X57340302Y36980360D01*
X57392970Y37091718D01*
X57456300Y37197377D01*
X57529681Y37296319D01*
X57612406Y37387594D01*
X57703681Y37470319D01*
X57802623Y37543700D01*
X57908282Y37607030D01*
X58019640Y37659698D01*
X58135622Y37701197D01*
X58255108Y37731126D01*
X58376973Y37749202D01*
X58500000Y37755248D01*
X58623027Y37749202D01*
X58744892Y37731126D01*
X58864378Y37701197D01*
X58980360Y37659698D01*
X59091718Y37607030D01*
X59197377Y37543700D01*
X59296319Y37470319D01*
X59387594Y37387594D01*
X59470319Y37296319D01*
X59543700Y37197377D01*
X59607030Y37091718D01*
X59659698Y36980360D01*
X59701197Y36864378D01*
X59731126Y36744892D01*
X59749202Y36623027D01*
X59755248Y36500000D01*
X59749202Y36376973D01*
X59731126Y36255108D01*
X59701197Y36135622D01*
X59659698Y36019640D01*
X59607030Y35908282D01*
X59543700Y35802623D01*
X59470319Y35703681D01*
X59387594Y35612406D01*
X59296319Y35529681D01*
X59197377Y35456300D01*
X59091718Y35392970D01*
X58980360Y35340302D01*
X58864378Y35298803D01*
X58744892Y35268874D01*
X58623027Y35250798D01*
X58500000Y35244752D01*
D02*
G37*
%LPC*%
G36*
X53500000Y35244752D02*
X53376973Y35250798D01*
X53255108Y35268874D01*
X53135622Y35298803D01*
X53019640Y35340302D01*
X52908282Y35392970D01*
X52802623Y35456300D01*
X52703681Y35529681D01*
X52612406Y35612406D01*
X52529681Y35703681D01*
X52456300Y35802623D01*
X52392970Y35908282D01*
X52340302Y36019640D01*
X52298803Y36135622D01*
X52268874Y36255108D01*
X52250798Y36376973D01*
X52244752Y36500000D01*
X52250798Y36623027D01*
X52268874Y36744892D01*
X52298803Y36864378D01*
X52340302Y36980360D01*
X52392970Y37091718D01*
X52456300Y37197377D01*
X52529681Y37296319D01*
X52612406Y37387594D01*
X52703681Y37470319D01*
X52802623Y37543700D01*
X52908282Y37607030D01*
X53019640Y37659698D01*
X53135622Y37701197D01*
X53255108Y37731126D01*
X53376973Y37749202D01*
X53500000Y37755248D01*
X53623027Y37749202D01*
X53744892Y37731126D01*
X53864378Y37701197D01*
X53980360Y37659698D01*
X54091718Y37607030D01*
X54197377Y37543700D01*
X54296319Y37470319D01*
X54387594Y37387594D01*
X54470319Y37296319D01*
X54543700Y37197377D01*
X54607030Y37091718D01*
X54659698Y36980360D01*
X54701197Y36864378D01*
X54731126Y36744892D01*
X54749202Y36623027D01*
X54755248Y36500000D01*
X54749202Y36376973D01*
X54731126Y36255108D01*
X54701197Y36135622D01*
X54659698Y36019640D01*
X54607030Y35908282D01*
X54543700Y35802623D01*
X54470319Y35703681D01*
X54387594Y35612406D01*
X54296319Y35529681D01*
X54197377Y35456300D01*
X54091718Y35392970D01*
X53980360Y35340302D01*
X53864378Y35298803D01*
X53744892Y35268874D01*
X53623027Y35250798D01*
X53500000Y35244752D01*
D02*
G37*
%LPC*%
G36*
X48500000Y35244752D02*
X48376973Y35250798D01*
X48255108Y35268874D01*
X48135622Y35298803D01*
X48019640Y35340302D01*
X47908282Y35392970D01*
X47802623Y35456300D01*
X47703681Y35529681D01*
X47612406Y35612406D01*
X47529681Y35703681D01*
X47456300Y35802623D01*
X47392970Y35908282D01*
X47340302Y36019640D01*
X47298803Y36135622D01*
X47268874Y36255108D01*
X47250798Y36376973D01*
X47244752Y36500000D01*
X47250798Y36623027D01*
X47268874Y36744892D01*
X47298803Y36864378D01*
X47340302Y36980360D01*
X47392970Y37091718D01*
X47456300Y37197377D01*
X47529681Y37296319D01*
X47612406Y37387594D01*
X47703681Y37470319D01*
X47802623Y37543700D01*
X47908282Y37607030D01*
X48019640Y37659698D01*
X48135622Y37701197D01*
X48255108Y37731126D01*
X48376973Y37749202D01*
X48500000Y37755248D01*
X48623027Y37749202D01*
X48744892Y37731126D01*
X48864378Y37701197D01*
X48980360Y37659698D01*
X49091718Y37607030D01*
X49197377Y37543700D01*
X49296319Y37470319D01*
X49387594Y37387594D01*
X49470319Y37296319D01*
X49543700Y37197377D01*
X49607030Y37091718D01*
X49659698Y36980360D01*
X49701197Y36864378D01*
X49731126Y36744892D01*
X49749202Y36623027D01*
X49755248Y36500000D01*
X49749202Y36376973D01*
X49731126Y36255108D01*
X49701197Y36135622D01*
X49659698Y36019640D01*
X49607030Y35908282D01*
X49543700Y35802623D01*
X49470319Y35703681D01*
X49387594Y35612406D01*
X49296319Y35529681D01*
X49197377Y35456300D01*
X49091718Y35392970D01*
X48980360Y35340302D01*
X48864378Y35298803D01*
X48744892Y35268874D01*
X48623027Y35250798D01*
X48500000Y35244752D01*
D02*
G37*
%LPC*%
G36*
X36500000Y35244752D02*
X36376973Y35250798D01*
X36255108Y35268874D01*
X36135622Y35298803D01*
X36019640Y35340302D01*
X35908282Y35392970D01*
X35802623Y35456300D01*
X35703681Y35529681D01*
X35612406Y35612406D01*
X35529681Y35703681D01*
X35456300Y35802623D01*
X35392970Y35908282D01*
X35340302Y36019640D01*
X35298803Y36135622D01*
X35268874Y36255108D01*
X35250798Y36376973D01*
X35244752Y36500000D01*
X35250798Y36623027D01*
X35268874Y36744892D01*
X35298803Y36864378D01*
X35340302Y36980360D01*
X35392970Y37091718D01*
X35456300Y37197377D01*
X35529681Y37296319D01*
X35612406Y37387594D01*
X35703681Y37470319D01*
X35802623Y37543700D01*
X35908282Y37607030D01*
X36019640Y37659698D01*
X36135622Y37701197D01*
X36255108Y37731126D01*
X36376973Y37749202D01*
X36500000Y37755248D01*
X36623027Y37749202D01*
X36744892Y37731126D01*
X36864378Y37701197D01*
X36980360Y37659698D01*
X37091718Y37607030D01*
X37197377Y37543700D01*
X37296319Y37470319D01*
X37387594Y37387594D01*
X37470319Y37296319D01*
X37543700Y37197377D01*
X37607030Y37091718D01*
X37659698Y36980360D01*
X37701197Y36864378D01*
X37731126Y36744892D01*
X37749202Y36623027D01*
X37755248Y36500000D01*
X37749202Y36376973D01*
X37731126Y36255108D01*
X37701197Y36135622D01*
X37659698Y36019640D01*
X37607030Y35908282D01*
X37543700Y35802623D01*
X37470319Y35703681D01*
X37387594Y35612406D01*
X37296319Y35529681D01*
X37197377Y35456300D01*
X37091718Y35392970D01*
X36980360Y35340302D01*
X36864378Y35298803D01*
X36744892Y35268874D01*
X36623027Y35250798D01*
X36500000Y35244752D01*
D02*
G37*
%LPC*%
G36*
X31500000Y35244752D02*
X31376973Y35250798D01*
X31255108Y35268874D01*
X31135622Y35298803D01*
X31019640Y35340302D01*
X30908282Y35392970D01*
X30802623Y35456300D01*
X30703681Y35529681D01*
X30612406Y35612406D01*
X30529681Y35703681D01*
X30456300Y35802623D01*
X30392970Y35908282D01*
X30340302Y36019640D01*
X30298803Y36135622D01*
X30268874Y36255108D01*
X30250798Y36376973D01*
X30244752Y36500000D01*
X30250798Y36623027D01*
X30268874Y36744892D01*
X30298803Y36864378D01*
X30340302Y36980360D01*
X30392970Y37091718D01*
X30456300Y37197377D01*
X30529681Y37296319D01*
X30612406Y37387594D01*
X30703681Y37470319D01*
X30802623Y37543700D01*
X30908282Y37607030D01*
X31019640Y37659698D01*
X31135622Y37701197D01*
X31255108Y37731126D01*
X31376973Y37749202D01*
X31500000Y37755248D01*
X31623027Y37749202D01*
X31744892Y37731126D01*
X31864378Y37701197D01*
X31980360Y37659698D01*
X32091718Y37607030D01*
X32197377Y37543700D01*
X32296319Y37470319D01*
X32387594Y37387594D01*
X32470319Y37296319D01*
X32543700Y37197377D01*
X32607030Y37091718D01*
X32659698Y36980360D01*
X32701197Y36864378D01*
X32731126Y36744892D01*
X32749202Y36623027D01*
X32755248Y36500000D01*
X32749202Y36376973D01*
X32731126Y36255108D01*
X32701197Y36135622D01*
X32659698Y36019640D01*
X32607030Y35908282D01*
X32543700Y35802623D01*
X32470319Y35703681D01*
X32387594Y35612406D01*
X32296319Y35529681D01*
X32197377Y35456300D01*
X32091718Y35392970D01*
X31980360Y35340302D01*
X31864378Y35298803D01*
X31744892Y35268874D01*
X31623027Y35250798D01*
X31500000Y35244752D01*
D02*
G37*
%LPC*%
G36*
X26500000Y35244752D02*
X26376973Y35250798D01*
X26255108Y35268874D01*
X26135622Y35298803D01*
X26019640Y35340302D01*
X25908282Y35392970D01*
X25802623Y35456300D01*
X25703681Y35529681D01*
X25612406Y35612406D01*
X25529681Y35703681D01*
X25456300Y35802623D01*
X25392970Y35908282D01*
X25340302Y36019640D01*
X25298803Y36135622D01*
X25268874Y36255108D01*
X25250798Y36376973D01*
X25244752Y36500000D01*
X25250798Y36623027D01*
X25268874Y36744892D01*
X25298803Y36864378D01*
X25340302Y36980360D01*
X25392970Y37091718D01*
X25456300Y37197377D01*
X25529681Y37296319D01*
X25612406Y37387594D01*
X25703681Y37470319D01*
X25802623Y37543700D01*
X25908282Y37607030D01*
X26019640Y37659698D01*
X26135622Y37701197D01*
X26255108Y37731126D01*
X26376973Y37749202D01*
X26500000Y37755248D01*
X26623027Y37749202D01*
X26744892Y37731126D01*
X26864378Y37701197D01*
X26980360Y37659698D01*
X27091718Y37607030D01*
X27197377Y37543700D01*
X27296319Y37470319D01*
X27387594Y37387594D01*
X27470319Y37296319D01*
X27543700Y37197377D01*
X27607030Y37091718D01*
X27659698Y36980360D01*
X27701197Y36864378D01*
X27731126Y36744892D01*
X27749202Y36623027D01*
X27755248Y36500000D01*
X27749202Y36376973D01*
X27731126Y36255108D01*
X27701197Y36135622D01*
X27659698Y36019640D01*
X27607030Y35908282D01*
X27543700Y35802623D01*
X27470319Y35703681D01*
X27387594Y35612406D01*
X27296319Y35529681D01*
X27197377Y35456300D01*
X27091718Y35392970D01*
X26980360Y35340302D01*
X26864378Y35298803D01*
X26744892Y35268874D01*
X26623027Y35250798D01*
X26500000Y35244752D01*
D02*
G37*
%LPC*%
G36*
X14500000Y35244752D02*
X14376973Y35250798D01*
X14255108Y35268874D01*
X14135622Y35298803D01*
X14019640Y35340302D01*
X13908282Y35392970D01*
X13802623Y35456300D01*
X13703681Y35529681D01*
X13612406Y35612406D01*
X13529681Y35703681D01*
X13456300Y35802623D01*
X13392970Y35908282D01*
X13340302Y36019640D01*
X13298803Y36135622D01*
X13268874Y36255108D01*
X13250798Y36376973D01*
X13244752Y36500000D01*
X13250798Y36623027D01*
X13268874Y36744892D01*
X13298803Y36864378D01*
X13340302Y36980360D01*
X13392970Y37091718D01*
X13456300Y37197377D01*
X13529681Y37296319D01*
X13612406Y37387594D01*
X13703681Y37470319D01*
X13802623Y37543700D01*
X13908282Y37607030D01*
X14019640Y37659698D01*
X14135622Y37701197D01*
X14255108Y37731126D01*
X14376973Y37749202D01*
X14500000Y37755248D01*
X14623027Y37749202D01*
X14744892Y37731126D01*
X14864378Y37701197D01*
X14980360Y37659698D01*
X15091718Y37607030D01*
X15197377Y37543700D01*
X15296319Y37470319D01*
X15387594Y37387594D01*
X15470319Y37296319D01*
X15543700Y37197377D01*
X15607030Y37091718D01*
X15659698Y36980360D01*
X15701197Y36864378D01*
X15731126Y36744892D01*
X15749202Y36623027D01*
X15755248Y36500000D01*
X15749202Y36376973D01*
X15731126Y36255108D01*
X15701197Y36135622D01*
X15659698Y36019640D01*
X15607030Y35908282D01*
X15543700Y35802623D01*
X15470319Y35703681D01*
X15387594Y35612406D01*
X15296319Y35529681D01*
X15197377Y35456300D01*
X15091718Y35392970D01*
X14980360Y35340302D01*
X14864378Y35298803D01*
X14744892Y35268874D01*
X14623027Y35250798D01*
X14500000Y35244752D01*
D02*
G37*
%LPC*%
G36*
X9500000Y35244752D02*
X9376973Y35250798D01*
X9255108Y35268874D01*
X9135622Y35298803D01*
X9019640Y35340302D01*
X8908282Y35392970D01*
X8802623Y35456300D01*
X8703681Y35529681D01*
X8612406Y35612406D01*
X8529681Y35703681D01*
X8456300Y35802623D01*
X8392970Y35908282D01*
X8340302Y36019640D01*
X8298803Y36135622D01*
X8268874Y36255108D01*
X8250798Y36376973D01*
X8244752Y36500000D01*
X8250798Y36623027D01*
X8268874Y36744892D01*
X8298803Y36864378D01*
X8340302Y36980360D01*
X8392970Y37091718D01*
X8456300Y37197377D01*
X8529681Y37296319D01*
X8612406Y37387594D01*
X8703681Y37470319D01*
X8802623Y37543700D01*
X8908282Y37607030D01*
X9019640Y37659698D01*
X9135622Y37701197D01*
X9255108Y37731126D01*
X9376973Y37749202D01*
X9500000Y37755248D01*
X9623027Y37749202D01*
X9744892Y37731126D01*
X9864378Y37701197D01*
X9980360Y37659698D01*
X10091718Y37607030D01*
X10197377Y37543700D01*
X10296319Y37470319D01*
X10387594Y37387594D01*
X10470319Y37296319D01*
X10543700Y37197377D01*
X10607030Y37091718D01*
X10659698Y36980360D01*
X10701197Y36864378D01*
X10731126Y36744892D01*
X10749202Y36623027D01*
X10755248Y36500000D01*
X10749202Y36376973D01*
X10731126Y36255108D01*
X10701197Y36135622D01*
X10659698Y36019640D01*
X10607030Y35908282D01*
X10543700Y35802623D01*
X10470319Y35703681D01*
X10387594Y35612406D01*
X10296319Y35529681D01*
X10197377Y35456300D01*
X10091718Y35392970D01*
X9980360Y35340302D01*
X9864378Y35298803D01*
X9744892Y35268874D01*
X9623027Y35250798D01*
X9500000Y35244752D01*
D02*
G37*
%LPC*%
G36*
X4500000Y35244752D02*
X4376973Y35250798D01*
X4255108Y35268874D01*
X4135622Y35298803D01*
X4019640Y35340302D01*
X3908282Y35392970D01*
X3802623Y35456300D01*
X3703681Y35529681D01*
X3612406Y35612406D01*
X3529681Y35703681D01*
X3456300Y35802623D01*
X3392970Y35908282D01*
X3340302Y36019640D01*
X3298803Y36135622D01*
X3268874Y36255108D01*
X3250798Y36376973D01*
X3244752Y36500000D01*
X3250798Y36623027D01*
X3268874Y36744892D01*
X3298803Y36864378D01*
X3340302Y36980360D01*
X3392970Y37091718D01*
X3456300Y37197377D01*
X3529681Y37296319D01*
X3612406Y37387594D01*
X3703681Y37470319D01*
X3802623Y37543700D01*
X3908282Y37607030D01*
X4019640Y37659698D01*
X4135622Y37701197D01*
X4255108Y37731126D01*
X4376973Y37749202D01*
X4500000Y37755248D01*
X4623027Y37749202D01*
X4744892Y37731126D01*
X4864378Y37701197D01*
X4980360Y37659698D01*
X5091718Y37607030D01*
X5197377Y37543700D01*
X5296319Y37470319D01*
X5387594Y37387594D01*
X5470319Y37296319D01*
X5543700Y37197377D01*
X5607030Y37091718D01*
X5659698Y36980360D01*
X5701197Y36864378D01*
X5731126Y36744892D01*
X5749202Y36623027D01*
X5755248Y36500000D01*
X5749202Y36376973D01*
X5731126Y36255108D01*
X5701197Y36135622D01*
X5659698Y36019640D01*
X5607030Y35908282D01*
X5543700Y35802623D01*
X5470319Y35703681D01*
X5387594Y35612406D01*
X5296319Y35529681D01*
X5197377Y35456300D01*
X5091718Y35392970D01*
X4980360Y35340302D01*
X4864378Y35298803D01*
X4744892Y35268874D01*
X4623027Y35250798D01*
X4500000Y35244752D01*
D02*
G37*
%LPC*%
G36*
X33199000Y17859753D02*
X33110268Y17864113D01*
X33022388Y17877149D01*
X32936224Y17898731D01*
X32852579Y17928661D01*
X32772263Y17966648D01*
X32696079Y18012310D01*
X32624715Y18065237D01*
X32558894Y18124894D01*
X32499237Y18190715D01*
X32446310Y18262079D01*
X32400648Y18338263D01*
X32362661Y18418579D01*
X32332731Y18502224D01*
X32311149Y18588388D01*
X32298113Y18676268D01*
X32293753Y18765000D01*
X32298113Y18853732D01*
X32311149Y18941612D01*
X32332731Y19027776D01*
X32362661Y19111421D01*
X32400648Y19191737D01*
X32446310Y19267921D01*
X32499237Y19339285D01*
X32558894Y19405106D01*
X32624715Y19464763D01*
X32696079Y19517690D01*
X32772263Y19563352D01*
X32852579Y19601339D01*
X32936224Y19631269D01*
X33022388Y19652851D01*
X33110268Y19665887D01*
X33199000Y19670247D01*
X33287732Y19665887D01*
X33375612Y19652851D01*
X33461776Y19631269D01*
X33545421Y19601339D01*
X33625737Y19563352D01*
X33701921Y19517690D01*
X33773285Y19464763D01*
X33839106Y19405106D01*
X33898763Y19339285D01*
X33951690Y19267921D01*
X33997352Y19191737D01*
X34035339Y19111421D01*
X34065269Y19027776D01*
X34086851Y18941612D01*
X34099887Y18853732D01*
X34104247Y18765000D01*
X34099887Y18676268D01*
X34086851Y18588388D01*
X34065269Y18502224D01*
X34035339Y18418579D01*
X33997352Y18338263D01*
X33951690Y18262079D01*
X33898763Y18190715D01*
X33839106Y18124894D01*
X33773285Y18065237D01*
X33701921Y18012310D01*
X33625737Y17966648D01*
X33545421Y17928661D01*
X33461776Y17898731D01*
X33375612Y17877149D01*
X33287732Y17864113D01*
X33199000Y17859753D01*
D02*
G37*
%LPC*%
G36*
X10727083Y6636016D02*
X10623650Y6641098D01*
X10521210Y6656294D01*
X10420763Y6681454D01*
X10323263Y6716341D01*
X10229637Y6760621D01*
X10140825Y6813854D01*
X10057639Y6875549D01*
X9980911Y6945091D01*
X9911369Y7021819D01*
X9849674Y7105005D01*
X9796441Y7193817D01*
X9752161Y7287443D01*
X9717274Y7384943D01*
X9692114Y7485390D01*
X9676918Y7587830D01*
X9671836Y7691263D01*
X9676918Y7794696D01*
X9692114Y7897136D01*
X9717274Y7997583D01*
X9752161Y8095083D01*
X9796441Y8188709D01*
X9849674Y8277521D01*
X9911369Y8360707D01*
X9980911Y8437435D01*
X10057639Y8506977D01*
X10140825Y8568672D01*
X10229637Y8621905D01*
X10323263Y8666185D01*
X10420763Y8701072D01*
X10521210Y8726232D01*
X10623650Y8741428D01*
X10727083Y8746510D01*
X10830516Y8741428D01*
X10932956Y8726232D01*
X11033403Y8701072D01*
X11130903Y8666185D01*
X11224529Y8621905D01*
X11313341Y8568672D01*
X11396527Y8506977D01*
X11473255Y8437435D01*
X11542797Y8360707D01*
X11604492Y8277521D01*
X11657725Y8188709D01*
X11702005Y8095083D01*
X11736892Y7997583D01*
X11762052Y7897136D01*
X11777248Y7794696D01*
X11782330Y7691263D01*
X11777248Y7587830D01*
X11762052Y7485390D01*
X11736892Y7384943D01*
X11702005Y7287443D01*
X11657725Y7193817D01*
X11604492Y7105005D01*
X11542797Y7021819D01*
X11473255Y6945091D01*
X11396527Y6875549D01*
X11313341Y6813854D01*
X11224529Y6760621D01*
X11130903Y6716341D01*
X11033403Y6681454D01*
X10932956Y6656294D01*
X10830516Y6641098D01*
X10727083Y6636016D01*
D02*
G37*
%LPC*%
G36*
X54727083Y6636016D02*
X54623650Y6641098D01*
X54521210Y6656294D01*
X54420763Y6681454D01*
X54323263Y6716341D01*
X54229637Y6760621D01*
X54140825Y6813854D01*
X54057639Y6875549D01*
X53980911Y6945091D01*
X53911369Y7021819D01*
X53849674Y7105005D01*
X53796441Y7193817D01*
X53752161Y7287443D01*
X53717274Y7384943D01*
X53692114Y7485390D01*
X53676918Y7587830D01*
X53671836Y7691263D01*
X53676918Y7794696D01*
X53692114Y7897136D01*
X53717274Y7997583D01*
X53752161Y8095083D01*
X53796441Y8188709D01*
X53849674Y8277521D01*
X53911369Y8360707D01*
X53980911Y8437435D01*
X54057639Y8506977D01*
X54140825Y8568672D01*
X54229637Y8621905D01*
X54323263Y8666185D01*
X54420763Y8701072D01*
X54521210Y8726232D01*
X54623650Y8741428D01*
X54727083Y8746510D01*
X54830516Y8741428D01*
X54932956Y8726232D01*
X55033403Y8701072D01*
X55130903Y8666185D01*
X55224529Y8621905D01*
X55313341Y8568672D01*
X55396527Y8506977D01*
X55473255Y8437435D01*
X55542797Y8360707D01*
X55604492Y8277521D01*
X55657725Y8188709D01*
X55702005Y8095083D01*
X55736892Y7997583D01*
X55762052Y7897136D01*
X55777248Y7794696D01*
X55782330Y7691263D01*
X55777248Y7587830D01*
X55762052Y7485390D01*
X55736892Y7384943D01*
X55702005Y7287443D01*
X55657725Y7193817D01*
X55604492Y7105005D01*
X55542797Y7021819D01*
X55473255Y6945091D01*
X55396527Y6875549D01*
X55313341Y6813854D01*
X55224529Y6760621D01*
X55130903Y6716341D01*
X55033403Y6681454D01*
X54932956Y6656294D01*
X54830516Y6641098D01*
X54727083Y6636016D01*
D02*
G37*
%LPC*%
G36*
X20249000Y2184753D02*
X20145567Y2189835D01*
X20043127Y2205031D01*
X19942680Y2230191D01*
X19845180Y2265078D01*
X19751554Y2309358D01*
X19662742Y2362591D01*
X19579556Y2424286D01*
X19502828Y2493828D01*
X19433286Y2570556D01*
X19371591Y2653742D01*
X19318358Y2742554D01*
X19274078Y2836180D01*
X19239191Y2933680D01*
X19214031Y3034127D01*
X19198835Y3136567D01*
X19193753Y3240000D01*
X19198835Y3343433D01*
X19214031Y3445873D01*
X19239191Y3546320D01*
X19274078Y3643820D01*
X19318358Y3737446D01*
X19371591Y3826258D01*
X19433286Y3909444D01*
X19502828Y3986172D01*
X19579556Y4055714D01*
X19662742Y4117409D01*
X19751554Y4170642D01*
X19845180Y4214922D01*
X19942680Y4249809D01*
X20043127Y4274969D01*
X20145567Y4290165D01*
X20249000Y4295247D01*
X20352433Y4290165D01*
X20454873Y4274969D01*
X20555320Y4249809D01*
X20652820Y4214922D01*
X20746446Y4170642D01*
X20835258Y4117409D01*
X20918444Y4055714D01*
X20995172Y3986172D01*
X21064714Y3909444D01*
X21126409Y3826258D01*
X21179642Y3737446D01*
X21223922Y3643820D01*
X21258809Y3546320D01*
X21283969Y3445873D01*
X21299165Y3343433D01*
X21304247Y3240000D01*
X21299165Y3136567D01*
X21283969Y3034127D01*
X21258809Y2933680D01*
X21223922Y2836180D01*
X21179642Y2742554D01*
X21126409Y2653742D01*
X21064714Y2570556D01*
X20995172Y2493828D01*
X20918444Y2424286D01*
X20835258Y2362591D01*
X20746446Y2309358D01*
X20652820Y2265078D01*
X20555320Y2230191D01*
X20454873Y2205031D01*
X20352433Y2189835D01*
X20249000Y2184753D01*
D02*
G37*
%LPC*%
G36*
X25249000Y2184753D02*
X25145567Y2189835D01*
X25043127Y2205031D01*
X24942680Y2230191D01*
X24845180Y2265078D01*
X24751554Y2309358D01*
X24662742Y2362591D01*
X24579556Y2424286D01*
X24502828Y2493828D01*
X24433286Y2570556D01*
X24371591Y2653742D01*
X24318358Y2742554D01*
X24274078Y2836180D01*
X24239191Y2933680D01*
X24214031Y3034127D01*
X24198835Y3136567D01*
X24193753Y3240000D01*
X24198835Y3343433D01*
X24214031Y3445873D01*
X24239191Y3546320D01*
X24274078Y3643820D01*
X24318358Y3737446D01*
X24371591Y3826258D01*
X24433286Y3909444D01*
X24502828Y3986172D01*
X24579556Y4055714D01*
X24662742Y4117409D01*
X24751554Y4170642D01*
X24845180Y4214922D01*
X24942680Y4249809D01*
X25043127Y4274969D01*
X25145567Y4290165D01*
X25249000Y4295247D01*
X25352433Y4290165D01*
X25454873Y4274969D01*
X25555320Y4249809D01*
X25652820Y4214922D01*
X25746446Y4170642D01*
X25835258Y4117409D01*
X25918444Y4055714D01*
X25995172Y3986172D01*
X26064714Y3909444D01*
X26126409Y3826258D01*
X26179642Y3737446D01*
X26223922Y3643820D01*
X26258809Y3546320D01*
X26283969Y3445873D01*
X26299165Y3343433D01*
X26304247Y3240000D01*
X26299165Y3136567D01*
X26283969Y3034127D01*
X26258809Y2933680D01*
X26223922Y2836180D01*
X26179642Y2742554D01*
X26126409Y2653742D01*
X26064714Y2570556D01*
X25995172Y2493828D01*
X25918444Y2424286D01*
X25835258Y2362591D01*
X25746446Y2309358D01*
X25652820Y2265078D01*
X25555320Y2230191D01*
X25454873Y2205031D01*
X25352433Y2189835D01*
X25249000Y2184753D01*
D02*
G37*
%LPC*%
G36*
X30249000Y2184753D02*
X30145567Y2189835D01*
X30043127Y2205031D01*
X29942680Y2230191D01*
X29845180Y2265078D01*
X29751554Y2309358D01*
X29662742Y2362591D01*
X29579556Y2424286D01*
X29502828Y2493828D01*
X29433286Y2570556D01*
X29371591Y2653742D01*
X29318358Y2742554D01*
X29274078Y2836180D01*
X29239191Y2933680D01*
X29214031Y3034127D01*
X29198835Y3136567D01*
X29193753Y3240000D01*
X29198835Y3343433D01*
X29214031Y3445873D01*
X29239191Y3546320D01*
X29274078Y3643820D01*
X29318358Y3737446D01*
X29371591Y3826258D01*
X29433286Y3909444D01*
X29502828Y3986172D01*
X29579556Y4055714D01*
X29662742Y4117409D01*
X29751554Y4170642D01*
X29845180Y4214922D01*
X29942680Y4249809D01*
X30043127Y4274969D01*
X30145567Y4290165D01*
X30249000Y4295247D01*
X30352433Y4290165D01*
X30454873Y4274969D01*
X30555320Y4249809D01*
X30652820Y4214922D01*
X30746446Y4170642D01*
X30835258Y4117409D01*
X30918444Y4055714D01*
X30995172Y3986172D01*
X31064714Y3909444D01*
X31126409Y3826258D01*
X31179642Y3737446D01*
X31223922Y3643820D01*
X31258809Y3546320D01*
X31283969Y3445873D01*
X31299165Y3343433D01*
X31304247Y3240000D01*
X31299165Y3136567D01*
X31283969Y3034127D01*
X31258809Y2933680D01*
X31223922Y2836180D01*
X31179642Y2742554D01*
X31126409Y2653742D01*
X31064714Y2570556D01*
X30995172Y2493828D01*
X30918444Y2424286D01*
X30835258Y2362591D01*
X30746446Y2309358D01*
X30652820Y2265078D01*
X30555320Y2230191D01*
X30454873Y2205031D01*
X30352433Y2189835D01*
X30249000Y2184753D01*
D02*
G37*
%LPC*%
G36*
X32749000Y2184753D02*
X32645567Y2189835D01*
X32543127Y2205031D01*
X32442680Y2230191D01*
X32345180Y2265078D01*
X32251554Y2309358D01*
X32162742Y2362591D01*
X32079556Y2424286D01*
X32002828Y2493828D01*
X31933286Y2570556D01*
X31871591Y2653742D01*
X31818358Y2742554D01*
X31774078Y2836180D01*
X31739191Y2933680D01*
X31714031Y3034127D01*
X31698835Y3136567D01*
X31693753Y3240000D01*
X31698835Y3343433D01*
X31714031Y3445873D01*
X31739191Y3546320D01*
X31774078Y3643820D01*
X31818358Y3737446D01*
X31871591Y3826258D01*
X31933286Y3909444D01*
X32002828Y3986172D01*
X32079556Y4055714D01*
X32162742Y4117409D01*
X32251554Y4170642D01*
X32345180Y4214922D01*
X32442680Y4249809D01*
X32543127Y4274969D01*
X32645567Y4290165D01*
X32749000Y4295247D01*
X32852433Y4290165D01*
X32954873Y4274969D01*
X33055320Y4249809D01*
X33152820Y4214922D01*
X33246446Y4170642D01*
X33335258Y4117409D01*
X33418444Y4055714D01*
X33495172Y3986172D01*
X33564714Y3909444D01*
X33626409Y3826258D01*
X33679642Y3737446D01*
X33723922Y3643820D01*
X33758809Y3546320D01*
X33783969Y3445873D01*
X33799165Y3343433D01*
X33804247Y3240000D01*
X33799165Y3136567D01*
X33783969Y3034127D01*
X33758809Y2933680D01*
X33723922Y2836180D01*
X33679642Y2742554D01*
X33626409Y2653742D01*
X33564714Y2570556D01*
X33495172Y2493828D01*
X33418444Y2424286D01*
X33335258Y2362591D01*
X33246446Y2309358D01*
X33152820Y2265078D01*
X33055320Y2230191D01*
X32954873Y2205031D01*
X32852433Y2189835D01*
X32749000Y2184753D01*
D02*
G37*
%LPC*%
G36*
X35249000Y2184753D02*
X35145567Y2189835D01*
X35043127Y2205031D01*
X34942680Y2230191D01*
X34845180Y2265078D01*
X34751554Y2309358D01*
X34662742Y2362591D01*
X34579556Y2424286D01*
X34502828Y2493828D01*
X34433286Y2570556D01*
X34371591Y2653742D01*
X34318358Y2742554D01*
X34274078Y2836180D01*
X34239191Y2933680D01*
X34214031Y3034127D01*
X34198835Y3136567D01*
X34193753Y3240000D01*
X34198835Y3343433D01*
X34214031Y3445873D01*
X34239191Y3546320D01*
X34274078Y3643820D01*
X34318358Y3737446D01*
X34371591Y3826258D01*
X34433286Y3909444D01*
X34502828Y3986172D01*
X34579556Y4055714D01*
X34662742Y4117409D01*
X34751554Y4170642D01*
X34845180Y4214922D01*
X34942680Y4249809D01*
X35043127Y4274969D01*
X35145567Y4290165D01*
X35249000Y4295247D01*
X35352433Y4290165D01*
X35454873Y4274969D01*
X35555320Y4249809D01*
X35652820Y4214922D01*
X35746446Y4170642D01*
X35835258Y4117409D01*
X35918444Y4055714D01*
X35995172Y3986172D01*
X36064714Y3909444D01*
X36126409Y3826258D01*
X36179642Y3737446D01*
X36223922Y3643820D01*
X36258809Y3546320D01*
X36283969Y3445873D01*
X36299165Y3343433D01*
X36304247Y3240000D01*
X36299165Y3136567D01*
X36283969Y3034127D01*
X36258809Y2933680D01*
X36223922Y2836180D01*
X36179642Y2742554D01*
X36126409Y2653742D01*
X36064714Y2570556D01*
X35995172Y2493828D01*
X35918444Y2424286D01*
X35835258Y2362591D01*
X35746446Y2309358D01*
X35652820Y2265078D01*
X35555320Y2230191D01*
X35454873Y2205031D01*
X35352433Y2189835D01*
X35249000Y2184753D01*
D02*
G37*
%LPC*%
G36*
X37749000Y2184753D02*
X37645567Y2189835D01*
X37543127Y2205031D01*
X37442680Y2230191D01*
X37345180Y2265078D01*
X37251554Y2309358D01*
X37162742Y2362591D01*
X37079556Y2424286D01*
X37002828Y2493828D01*
X36933286Y2570556D01*
X36871591Y2653742D01*
X36818358Y2742554D01*
X36774078Y2836180D01*
X36739191Y2933680D01*
X36714031Y3034127D01*
X36698835Y3136567D01*
X36693753Y3240000D01*
X36698835Y3343433D01*
X36714031Y3445873D01*
X36739191Y3546320D01*
X36774078Y3643820D01*
X36818358Y3737446D01*
X36871591Y3826258D01*
X36933286Y3909444D01*
X37002828Y3986172D01*
X37079556Y4055714D01*
X37162742Y4117409D01*
X37251554Y4170642D01*
X37345180Y4214922D01*
X37442680Y4249809D01*
X37543127Y4274969D01*
X37645567Y4290165D01*
X37749000Y4295247D01*
X37852433Y4290165D01*
X37954873Y4274969D01*
X38055320Y4249809D01*
X38152820Y4214922D01*
X38246446Y4170642D01*
X38335258Y4117409D01*
X38418444Y4055714D01*
X38495172Y3986172D01*
X38564714Y3909444D01*
X38626409Y3826258D01*
X38679642Y3737446D01*
X38723922Y3643820D01*
X38758809Y3546320D01*
X38783969Y3445873D01*
X38799165Y3343433D01*
X38804247Y3240000D01*
X38799165Y3136567D01*
X38783969Y3034127D01*
X38758809Y2933680D01*
X38723922Y2836180D01*
X38679642Y2742554D01*
X38626409Y2653742D01*
X38564714Y2570556D01*
X38495172Y2493828D01*
X38418444Y2424286D01*
X38335258Y2362591D01*
X38246446Y2309358D01*
X38152820Y2265078D01*
X38055320Y2230191D01*
X37954873Y2205031D01*
X37852433Y2189835D01*
X37749000Y2184753D01*
D02*
G37*
%LPC*%
G36*
X42749000Y2184753D02*
X42645567Y2189835D01*
X42543127Y2205031D01*
X42442680Y2230191D01*
X42345180Y2265078D01*
X42251554Y2309358D01*
X42162742Y2362591D01*
X42079556Y2424286D01*
X42002828Y2493828D01*
X41933286Y2570556D01*
X41871591Y2653742D01*
X41818358Y2742554D01*
X41774078Y2836180D01*
X41739191Y2933680D01*
X41714031Y3034127D01*
X41698835Y3136567D01*
X41693753Y3240000D01*
X41698835Y3343433D01*
X41714031Y3445873D01*
X41739191Y3546320D01*
X41774078Y3643820D01*
X41818358Y3737446D01*
X41871591Y3826258D01*
X41933286Y3909444D01*
X42002828Y3986172D01*
X42079556Y4055714D01*
X42162742Y4117409D01*
X42251554Y4170642D01*
X42345180Y4214922D01*
X42442680Y4249809D01*
X42543127Y4274969D01*
X42645567Y4290165D01*
X42749000Y4295247D01*
X42852433Y4290165D01*
X42954873Y4274969D01*
X43055320Y4249809D01*
X43152820Y4214922D01*
X43246446Y4170642D01*
X43335258Y4117409D01*
X43418444Y4055714D01*
X43495172Y3986172D01*
X43564714Y3909444D01*
X43626409Y3826258D01*
X43679642Y3737446D01*
X43723922Y3643820D01*
X43758809Y3546320D01*
X43783969Y3445873D01*
X43799165Y3343433D01*
X43804247Y3240000D01*
X43799165Y3136567D01*
X43783969Y3034127D01*
X43758809Y2933680D01*
X43723922Y2836180D01*
X43679642Y2742554D01*
X43626409Y2653742D01*
X43564714Y2570556D01*
X43495172Y2493828D01*
X43418444Y2424286D01*
X43335258Y2362591D01*
X43246446Y2309358D01*
X43152820Y2265078D01*
X43055320Y2230191D01*
X42954873Y2205031D01*
X42852433Y2189835D01*
X42749000Y2184753D01*
D02*
G37*
%LPD*%
G01*
%LPD*%
G75*
D10*
X4500000Y62500000D03*
D10*
X14500000Y62500000D03*
D10*
X9500000Y62500000D03*
D10*
X26500000Y36500000D03*
D10*
X36500000Y36500000D03*
D10*
X31500000Y36500000D03*
D10*
X4500000Y36500000D03*
D10*
X14500000Y36500000D03*
D10*
X9500000Y36500000D03*
D11*
X54727083Y7691263D03*
D11*
X52227083Y7691263D03*
D12*
X20249000Y3240000D03*
D12*
X37749000Y3240000D03*
D12*
X35249000Y3240000D03*
D12*
X32749000Y3240000D03*
D12*
X27749000Y3240000D03*
D12*
X42749000Y3240000D03*
D12*
X22749000Y3240000D03*
D12*
X25249000Y3240000D03*
D12*
X40249000Y3240000D03*
D12*
X30249000Y3240000D03*
D13*
X6788845Y57465000D03*
D13*
X6788845Y54925000D03*
D14*
X11313845Y54925000D03*
D14*
X11313845Y57465000D03*
D10*
X48500000Y62500000D03*
D10*
X58500000Y62500000D03*
D10*
X53500000Y62500000D03*
D14*
X23050000Y61150000D03*
D14*
X25550000Y64450000D03*
D14*
X28050000Y64450000D03*
D14*
X23050000Y64450000D03*
D14*
X25550000Y61150000D03*
D14*
X28050000Y61150000D03*
D10*
X48500000Y36500000D03*
D10*
X58500000Y36500000D03*
D10*
X53500000Y36500000D03*
D11*
X10727083Y7691263D03*
D11*
X8227083Y7691263D03*
D15*
X8625000Y39000000D03*
D15*
X39125000Y7000000D03*
D16*
X1000000Y26200000D03*
D16*
X62000000Y64600000D03*
D16*
X54375000Y71000000D03*
D16*
X46750000Y1000000D03*
D15*
X54375000Y13400000D03*
D15*
X25759000Y16165000D03*
D17*
X48500000Y40300000D03*
D18*
X24285000Y56700000D03*
D15*
X23875000Y13400000D03*
D15*
X27700000Y45450000D03*
D16*
X1000000Y51800000D03*
D15*
X8000000Y48200000D03*
D16*
X1000000Y32600000D03*
D15*
X39125000Y32600000D03*
D15*
X16250000Y32600000D03*
D15*
X8625000Y13400000D03*
D16*
X62000000Y13400000D03*
D15*
X15950000Y39000000D03*
D15*
X32785000Y46160000D03*
D18*
X9588845Y42735000D03*
D15*
X23875000Y26200000D03*
D15*
X27210000Y56250000D03*
D16*
X46750000Y71000000D03*
D15*
X28199000Y17805000D03*
D16*
X62000000Y51800000D03*
D15*
X54375000Y32600000D03*
D15*
X34000000Y36400000D03*
D15*
X39125000Y64600000D03*
D16*
X62000000Y1000000D03*
D16*
X8625000Y71000000D03*
D15*
X16250000Y13400000D03*
D15*
X15500000Y44900000D03*
D18*
X19236155Y52390000D03*
D15*
X8625000Y58200000D03*
D19*
X46486155Y52350000D03*
D15*
X54375000Y26200000D03*
D16*
X1000000Y19800000D03*
D16*
X62000000Y7000000D03*
D15*
X45050000Y36100000D03*
D16*
X16250000Y1000000D03*
D15*
X23875000Y7000000D03*
D16*
X62000000Y32600000D03*
D16*
X31500000Y1000000D03*
D16*
X62000000Y45400000D03*
D16*
X1000000Y71000000D03*
D15*
X46750000Y7000000D03*
D15*
X46750000Y26200000D03*
D16*
X39125000Y71000000D03*
D16*
X62000000Y19800000D03*
D16*
X31500000Y71000000D03*
D15*
X14563845Y49850000D03*
D15*
X8625000Y19800000D03*
D16*
X62000000Y26200000D03*
D15*
X46750000Y32600000D03*
D15*
X50950000Y37700000D03*
D15*
X23875000Y19800000D03*
D15*
X39125000Y19800000D03*
D16*
X62000000Y39000000D03*
D15*
X34435000Y48600000D03*
D18*
X19536155Y42400000D03*
D16*
X62000000Y58200000D03*
D18*
X17800000Y59545000D03*
D15*
X52941155Y53290000D03*
D18*
X38115000Y50900000D03*
D16*
X1000000Y1000000D03*
D16*
X8625000Y1000000D03*
D16*
X1000000Y7000000D03*
D16*
X1000000Y45400000D03*
D15*
X58000000Y40750000D03*
D15*
X11300000Y45000000D03*
D18*
X33199000Y18765000D03*
D15*
X46750000Y13400000D03*
D17*
X40080000Y54690000D03*
D16*
X1000000Y58200000D03*
D16*
X23875000Y71000000D03*
D15*
X31145000Y48600000D03*
D15*
X37050000Y38650000D03*
D15*
X16250000Y19800000D03*
D15*
X45713845Y54890000D03*
D15*
X28850000Y37550000D03*
D15*
X59305000Y54005000D03*
D15*
X25041155Y48150000D03*
D15*
X34800000Y44200000D03*
D16*
X54375000Y1000000D03*
D16*
X23875000Y1000000D03*
D15*
X38100000Y47550000D03*
D15*
X54375000Y64600000D03*
D15*
X8625000Y32600000D03*
D15*
X45000000Y40750000D03*
D15*
X16250000Y26200000D03*
D18*
X25541155Y49750000D03*
D15*
X39125000Y13400000D03*
D16*
X1000000Y39000000D03*
D15*
X46650000Y58200000D03*
D15*
X46750000Y64600000D03*
D15*
X28199000Y14515000D03*
D16*
X1000000Y13400000D03*
D15*
X16250000Y7000000D03*
D15*
X9600000Y46700000D03*
D15*
X46750000Y19800000D03*
D15*
X8088845Y52720000D03*
D16*
X16250000Y71000000D03*
D17*
X39000000Y45150000D03*
D18*
X35375000Y64965000D03*
D15*
X31500000Y32600000D03*
D15*
X39125000Y26200000D03*
D15*
X8625000Y64600000D03*
D16*
X39125000Y1000000D03*
D15*
X59305000Y55830000D03*
D15*
X3200000Y39000000D03*
D15*
X8625000Y26200000D03*
D16*
X62000000Y71000000D03*
D17*
X27850000Y46900000D03*
D15*
X54375000Y19800000D03*
D18*
X53591155Y54890000D03*
D16*
X1000000Y64600000D03*
M02*
