%FSLAX46Y46*%
%MOMM*%
%AMPS18*
21,1,0.550000,1.500000,0.000000,0.000000,90.000000*
%
%ADD18PS18*%
%AMPS19*
21,1,0.550000,1.500000,0.000000,0.000000,270.000000*
%
%ADD19PS19*%
%AMPS28*
21,1,1.600000,2.500000,0.000000,0.000000,90.000000*
%
%ADD28PS28*%
%AMPS29*
21,1,1.600000,2.500000,0.000000,0.000000,270.000000*
%
%ADD29PS29*%
%AMPS21*
21,1,0.900000,1.000000,0.000000,0.000000,0.000000*
%
%ADD21PS21*%
%AMPS20*
21,1,0.900000,1.000000,0.000000,0.000000,180.000000*
%
%ADD20PS20*%
%AMPS30*
21,1,1.600000,3.200000,0.000000,0.000000,0.000000*
%
%ADD30PS30*%
%AMPS10*
21,1,1.600000,3.200000,0.000000,0.000000,90.000000*
%
%ADD10PS10*%
%AMPS31*
21,1,1.600000,3.200000,0.000000,0.000000,180.000000*
%
%ADD31PS31*%
%AMPS11*
21,1,1.600000,3.200000,0.000000,0.000000,270.000000*
%
%ADD11PS11*%
%AMPS23*
21,1,0.400000,0.900000,0.000000,0.000000,0.000000*
%
%ADD23PS23*%
%AMPS22*
21,1,0.400000,0.900000,0.000000,0.000000,180.000000*
%
%ADD22PS22*%
%AMPS27*
21,1,1.500000,2.800000,0.000000,0.000000,0.000000*
%
%ADD27PS27*%
%AMPS26*
21,1,1.500000,2.800000,0.000000,0.000000,180.000000*
%
%ADD26PS26*%
%AMPS24*
21,1,1.800000,1.100000,0.000000,0.000000,0.000000*
%
%ADD24PS24*%
%AMPS17*
21,1,1.800000,1.100000,0.000000,0.000000,90.000000*
%
%ADD17PS17*%
%AMPS25*
21,1,1.800000,1.100000,0.000000,0.000000,180.000000*
%
%ADD25PS25*%
%AMPS16*
21,1,1.800000,1.100000,0.000000,0.000000,270.000000*
%
%ADD16PS16*%
%AMPS12*
21,1,1.000000,0.900000,0.000000,0.000000,0.000000*
%
%ADD12PS12*%
%AMPS15*
21,1,1.000000,0.900000,0.000000,0.000000,90.000000*
%
%ADD15PS15*%
%AMPS13*
21,1,1.000000,0.900000,0.000000,0.000000,180.000000*
%
%ADD13PS13*%
%AMPS14*
21,1,1.000000,0.900000,0.000000,0.000000,270.000000*
%
%ADD14PS14*%
G01*
%LPD*%
G36*
X12171116Y83899306D02*
X12350000Y83000000D01*
X12350000Y83000000D01*
X12171116Y82100693D01*
X11661700Y81338299D01*
X10899306Y80828883D01*
X10000000Y80650000D01*
X9100693Y80828883D01*
X8338299Y81338299D01*
X7828883Y82100693D01*
X7650000Y83000000D01*
X7828883Y83899306D01*
X8338299Y84661700D01*
X9100693Y85171116D01*
X10000000Y85350000D01*
X10899306Y85171116D01*
X11661700Y84661700D01*
X12171116Y83899306D01*
D02*
G37*
G36*
X102171116Y25899306D02*
X102350000Y25000000D01*
X102350000Y25000000D01*
X102171116Y24100693D01*
X101661700Y23338299D01*
X100899306Y22828883D01*
X100000000Y22650000D01*
X99100693Y22828883D01*
X98338299Y23338299D01*
X97828883Y24100693D01*
X97650000Y25000000D01*
X97828883Y25899306D01*
X98338299Y26661700D01*
X99100693Y27171116D01*
X100000000Y27350000D01*
X100899306Y27171116D01*
X101661700Y26661700D01*
X102171116Y25899306D01*
D02*
G37*
G36*
X12171116Y25899306D02*
X12350000Y25000000D01*
X12350000Y25000000D01*
X12171116Y24100693D01*
X11661700Y23338299D01*
X10899306Y22828883D01*
X10000000Y22650000D01*
X9100693Y22828883D01*
X8338299Y23338299D01*
X7828883Y24100693D01*
X7650000Y25000000D01*
X7828883Y25899306D01*
X8338299Y26661700D01*
X9100693Y27171116D01*
X10000000Y27350000D01*
X10899306Y27171116D01*
X11661700Y26661700D01*
X12171116Y25899306D01*
D02*
G37*
G36*
X102171116Y83899306D02*
X102350000Y83000000D01*
X102350000Y83000000D01*
X102171116Y82100693D01*
X101661700Y81338299D01*
X100899306Y80828883D01*
X100000000Y80650000D01*
X99100693Y80828883D01*
X98338299Y81338299D01*
X97828883Y82100693D01*
X97650000Y83000000D01*
X97828883Y83899306D01*
X98338299Y84661700D01*
X99100693Y85171116D01*
X100000000Y85350000D01*
X100899306Y85171116D01*
X101661700Y84661700D01*
X102171116Y83899306D01*
D02*
G37*
G01*
%LPD*%
G75*
D10*
X56999000Y36265000D03*
D11*
X51999000Y36265000D03*
D12*
X55025000Y83465000D03*
D13*
X55025000Y85065000D03*
D12*
X36693845Y71220000D03*
D13*
X36693845Y72820000D03*
D14*
X39700000Y77695000D03*
D15*
X41300000Y77695000D03*
D12*
X84105000Y69110000D03*
D13*
X84105000Y70710000D03*
D13*
X84105000Y74105000D03*
D12*
X84105000Y72505000D03*
D12*
X47241155Y68250000D03*
D13*
X47241155Y69850000D03*
D12*
X41113845Y61235000D03*
D13*
X41113845Y62835000D03*
D16*
X53999000Y30690000D03*
D17*
X56999000Y30690000D03*
D15*
X65165000Y71000000D03*
D14*
X63565000Y71000000D03*
D12*
X75141155Y73390000D03*
D13*
X75141155Y74990000D03*
D15*
X54096155Y61900000D03*
D14*
X52496155Y61900000D03*
D18*
X44886155Y73760000D03*
D19*
X39713845Y72490000D03*
D19*
X39713845Y67410000D03*
D19*
X39713845Y68680000D03*
D18*
X44886155Y72490000D03*
D19*
X39713845Y73760000D03*
D19*
X39713845Y69950000D03*
D18*
X44886155Y67410000D03*
D18*
X44886155Y71220000D03*
D18*
X44886155Y66140000D03*
D19*
X39713845Y71220000D03*
D19*
X39713845Y66140000D03*
D18*
X44886155Y69950000D03*
D18*
X44886155Y68680000D03*
D13*
X46811155Y64100000D03*
D12*
X46811155Y62500000D03*
D12*
X43160000Y75805000D03*
D13*
X43160000Y77405000D03*
D20*
X48736155Y64100000D03*
D21*
X49686155Y61900000D03*
D20*
X50636155Y64100000D03*
D22*
X37113845Y63435000D03*
D23*
X37113845Y61235000D03*
D15*
X41300000Y75805000D03*
D14*
X39700000Y75805000D03*
D22*
X37113845Y67460000D03*
D23*
X37113845Y65260000D03*
D24*
X50710000Y71900000D03*
D25*
X50710000Y74900000D03*
D26*
X79680000Y77530000D03*
D27*
X79680000Y72830002D03*
D13*
X34813845Y72820000D03*
D12*
X34813845Y71220000D03*
D12*
X84105000Y75930000D03*
D13*
X84105000Y77530000D03*
D15*
X54096155Y63825000D03*
D14*
X52496155Y63825000D03*
D19*
X67563845Y73720000D03*
D19*
X67563845Y72450000D03*
D18*
X72736155Y73720000D03*
D19*
X67563845Y71180000D03*
D19*
X67563845Y76260000D03*
D19*
X67563845Y69910000D03*
D19*
X72690000Y77530000D03*
D18*
X72736155Y72450000D03*
D18*
X72736155Y76260000D03*
D18*
X72736155Y69910000D03*
D19*
X67563845Y74990000D03*
D18*
X72736155Y74990000D03*
D18*
X72736155Y68640000D03*
D18*
X72736155Y71180000D03*
D19*
X67563845Y77530000D03*
D19*
X67563845Y68640000D03*
D14*
X63580000Y72925000D03*
D15*
X65180000Y72925000D03*
D28*
X81500000Y62500000D03*
D29*
X78000000Y62500000D03*
D12*
X56925000Y83465000D03*
D13*
X56925000Y85065000D03*
D30*
X56285000Y68700000D03*
D31*
X56285000Y73700000D03*
D25*
X47785000Y74900000D03*
D24*
X47785000Y71900000D03*
D13*
X75000000Y64100000D03*
D12*
X75000000Y62500000D03*
D12*
X39188845Y61235000D03*
D13*
X39188845Y62835000D03*
D13*
X44886155Y64100000D03*
D12*
X44886155Y62500000D03*
D12*
X35038845Y61235000D03*
D13*
X35038845Y62835000D03*
D13*
X32888845Y72820000D03*
D12*
X32888845Y71220000D03*
D29*
X68500000Y62500000D03*
D28*
X72000000Y62500000D03*
M02*
